<svg width="675" height="626" viewBox="0 0 675 626" fill="none" xmlns="http://www.w3.org/2000/svg">
<rect width="656" height="584" transform="translate(9 21)" fill="white"/>
<g filter="url(#filter0_d_3675_2121)">
<circle cx="336.918" cy="313" r="83.9378" fill="white" shape-rendering="crispEdges"/>
<circle cx="336.918" cy="313" r="84.5207" stroke="#007AEA" stroke-opacity="0.3" stroke-width="1.1658" shape-rendering="crispEdges"/>
</g>
<mask id="path-3-inside-1_3675_2121" fill="white">
<path fill-rule="evenodd" clip-rule="evenodd" d="M337.655 265.202C317.876 265.202 301.845 281.882 301.845 302.461C301.845 313.463 306.431 323.354 313.719 330.175C312.668 332.579 311.392 334.858 309.911 336.976C307.62 340.281 304.773 343.081 301.521 345.226C305.82 344.538 310.058 343.449 314.186 341.97C317.512 340.779 320.762 339.351 323.915 337.695C323.804 337.458 323.683 337.217 323.54 336.972V334.64C323.539 333.443 323.754 332.258 324.174 331.152C324.593 330.046 325.209 329.04 325.985 328.194C326.762 327.347 327.684 326.675 328.7 326.217C329.715 325.758 330.803 325.523 331.902 325.523H343.75C345.438 325.525 347.085 326.083 348.476 327.123C349.868 328.163 350.937 329.638 351.545 331.352C353.379 330.005 355.272 328.652 357.223 327.295C358.668 326.292 360.106 325.32 361.523 324.38C362.037 324.769 362.594 325.309 362.672 326.047C362.801 327.213 361.712 328.36 358.083 330.94C356.516 332.052 354.421 333.47 351.866 335.001C351.898 335.268 351.931 335.533 351.964 335.798C351.997 336.063 352.03 336.329 352.062 336.595C364.664 330.824 373.475 317.723 373.475 302.476C373.464 281.882 357.433 265.202 337.655 265.202ZM348.997 324.804H326.656C322.713 324.804 318.931 323.098 316.143 320.061C313.354 317.025 311.788 312.907 311.788 308.613V303.561C311.788 298.316 313.701 293.287 317.106 289.578C320.512 285.87 325.13 283.787 329.946 283.787H333.14C332.83 283.787 332.532 283.652 332.313 283.413C332.093 283.174 331.97 282.85 331.97 282.512C331.97 282.174 332.093 281.85 332.313 281.611C332.532 281.372 332.83 281.237 333.14 281.237H337.366V276.457C335.581 276.181 334.264 274.665 334.4 272.959C334.539 271.195 336.185 269.909 338.101 270.087C340.017 270.266 341.438 271.844 341.313 273.608C341.192 275.163 339.885 276.329 338.301 276.48V281.233H342.53C342.84 281.233 343.138 281.368 343.358 281.607C343.577 281.846 343.7 282.17 343.7 282.508C343.7 282.846 343.577 283.17 343.358 283.41C343.138 283.649 342.84 283.783 342.53 283.783H345.72C350.536 283.783 355.155 285.866 358.56 289.575C361.966 293.283 363.879 298.312 363.879 303.557V308.609C363.88 310.737 363.495 312.844 362.747 314.81C362 316.776 360.903 318.563 359.521 320.067C358.139 321.571 356.498 322.763 354.692 323.576C352.886 324.389 350.951 324.806 348.997 324.804ZM352.596 294.98H324.274C322.387 294.981 320.579 295.797 319.245 297.249C317.912 298.702 317.162 300.671 317.161 302.725C317.161 304.779 317.91 306.749 319.244 308.202C320.578 309.655 322.387 310.471 324.274 310.471H336.226L337.064 308.555C337.372 308.21 337.793 308.012 338.235 308.003C338.468 307.997 338.699 308.043 338.915 308.138C339.131 308.233 339.327 308.375 339.491 308.555C339.712 309.192 339.937 309.833 340.162 310.471H352.596C354.482 310.471 356.291 309.655 357.625 308.202C358.959 306.749 359.708 304.779 359.708 302.725C359.708 300.671 358.958 298.702 357.624 297.249C356.291 295.797 354.482 294.981 352.596 294.98ZM329.388 306.44C328.716 306.439 328.061 306.222 327.502 305.816C326.94 305.408 326.503 304.828 326.244 304.15C325.985 303.471 325.917 302.724 326.048 302.003C326.179 301.282 326.504 300.619 326.981 300.099C327.458 299.579 328.066 299.225 328.728 299.081C329.39 298.938 330.076 299.011 330.7 299.292C331.323 299.573 331.856 300.049 332.231 300.661C332.606 301.272 332.807 301.99 332.807 302.725C332.807 303.214 332.718 303.697 332.546 304.149C332.374 304.6 332.122 305.01 331.805 305.355C331.487 305.7 331.11 305.974 330.696 306.16M347.086 306.44C346.414 306.439 345.758 306.222 345.2 305.816C344.638 305.408 344.2 304.828 343.942 304.15C343.683 303.471 343.615 302.724 343.746 302.003C343.877 301.282 344.202 300.619 344.679 300.099C345.156 299.579 345.764 299.225 346.426 299.081C347.088 298.938 347.774 299.011 348.397 299.292C349.021 299.573 349.554 300.049 349.929 300.661C350.304 301.272 350.504 301.99 350.504 302.725C350.504 303.214 350.416 303.697 350.244 304.149C350.072 304.6 349.82 305.01 349.503 305.355C349.185 305.7 348.808 305.974 348.393 306.16M329.391 306.44H329.388H329.391ZM347.089 306.44H347.086H347.089ZM332.469 315.678C333.54 316.12 335.37 316.873 337.822 316.888C340.356 316.903 342.251 316.12 343.337 315.671C343.946 315.419 344.3 315.273 344.371 315.431C344.624 315.951 341.598 319.511 337.843 319.492C334.089 319.472 331.145 315.947 331.398 315.431C331.483 315.272 331.849 315.423 332.469 315.678Z"/>
</mask>
<g filter="url(#filter1_i_3675_2121)">
<path fill-rule="evenodd" clip-rule="evenodd" d="M337.655 265.202C317.876 265.202 301.845 281.882 301.845 302.461C301.845 313.463 306.431 323.354 313.719 330.175C312.668 332.579 311.392 334.858 309.911 336.976C307.62 340.281 304.773 343.081 301.521 345.226C305.82 344.538 310.058 343.449 314.186 341.97C317.512 340.779 320.762 339.351 323.915 337.695C323.804 337.458 323.683 337.217 323.54 336.972V334.64C323.539 333.443 323.754 332.258 324.174 331.152C324.593 330.046 325.209 329.04 325.985 328.194C326.762 327.347 327.684 326.675 328.7 326.217C329.715 325.758 330.803 325.523 331.902 325.523H343.75C345.438 325.525 347.085 326.083 348.476 327.123C349.868 328.163 350.937 329.638 351.545 331.352C353.379 330.005 355.272 328.652 357.223 327.295C358.668 326.292 360.106 325.32 361.523 324.38C362.037 324.769 362.594 325.309 362.672 326.047C362.801 327.213 361.712 328.36 358.083 330.94C356.516 332.052 354.421 333.47 351.866 335.001C351.898 335.268 351.931 335.533 351.964 335.798C351.997 336.063 352.03 336.329 352.062 336.595C364.664 330.824 373.475 317.723 373.475 302.476C373.464 281.882 357.433 265.202 337.655 265.202ZM348.997 324.804H326.656C322.713 324.804 318.931 323.098 316.143 320.061C313.354 317.025 311.788 312.907 311.788 308.613V303.561C311.788 298.316 313.701 293.287 317.106 289.578C320.512 285.87 325.13 283.787 329.946 283.787H333.14C332.83 283.787 332.532 283.652 332.313 283.413C332.093 283.174 331.97 282.85 331.97 282.512C331.97 282.174 332.093 281.85 332.313 281.611C332.532 281.372 332.83 281.237 333.14 281.237H337.366V276.457C335.581 276.181 334.264 274.665 334.4 272.959C334.539 271.195 336.185 269.909 338.101 270.087C340.017 270.266 341.438 271.844 341.313 273.608C341.192 275.163 339.885 276.329 338.301 276.48V281.233H342.53C342.84 281.233 343.138 281.368 343.358 281.607C343.577 281.846 343.7 282.17 343.7 282.508C343.7 282.846 343.577 283.17 343.358 283.41C343.138 283.649 342.84 283.783 342.53 283.783H345.72C350.536 283.783 355.155 285.866 358.56 289.575C361.966 293.283 363.879 298.312 363.879 303.557V308.609C363.88 310.737 363.495 312.844 362.747 314.81C362 316.776 360.903 318.563 359.521 320.067C358.139 321.571 356.498 322.763 354.692 323.576C352.886 324.389 350.951 324.806 348.997 324.804ZM352.596 294.98H324.274C322.387 294.981 320.579 295.797 319.245 297.249C317.912 298.702 317.162 300.671 317.161 302.725C317.161 304.779 317.91 306.749 319.244 308.202C320.578 309.655 322.387 310.471 324.274 310.471H336.226L337.064 308.555C337.372 308.21 337.793 308.012 338.235 308.003C338.468 307.997 338.699 308.043 338.915 308.138C339.131 308.233 339.327 308.375 339.491 308.555C339.712 309.192 339.937 309.833 340.162 310.471H352.596C354.482 310.471 356.291 309.655 357.625 308.202C358.959 306.749 359.708 304.779 359.708 302.725C359.708 300.671 358.958 298.702 357.624 297.249C356.291 295.797 354.482 294.981 352.596 294.98ZM329.388 306.44C328.716 306.439 328.061 306.222 327.502 305.816C326.94 305.408 326.503 304.828 326.244 304.15C325.985 303.471 325.917 302.724 326.048 302.003C326.179 301.282 326.504 300.619 326.981 300.099C327.458 299.579 328.066 299.225 328.728 299.081C329.39 298.938 330.076 299.011 330.7 299.292C331.323 299.573 331.856 300.049 332.231 300.661C332.606 301.272 332.807 301.99 332.807 302.725C332.807 303.214 332.718 303.697 332.546 304.149C332.374 304.6 332.122 305.01 331.805 305.355C331.487 305.7 331.11 305.974 330.696 306.16M347.086 306.44C346.414 306.439 345.758 306.222 345.2 305.816C344.638 305.408 344.2 304.828 343.942 304.15C343.683 303.471 343.615 302.724 343.746 302.003C343.877 301.282 344.202 300.619 344.679 300.099C345.156 299.579 345.764 299.225 346.426 299.081C347.088 298.938 347.774 299.011 348.397 299.292C349.021 299.573 349.554 300.049 349.929 300.661C350.304 301.272 350.504 301.99 350.504 302.725C350.504 303.214 350.416 303.697 350.244 304.149C350.072 304.6 349.82 305.01 349.503 305.355C349.185 305.7 348.808 305.974 348.393 306.16M329.391 306.44H329.388H329.391ZM347.089 306.44H347.086H347.089ZM332.469 315.678C333.54 316.12 335.37 316.873 337.822 316.888C340.356 316.903 342.251 316.12 343.337 315.671C343.946 315.419 344.3 315.273 344.371 315.431C344.624 315.951 341.598 319.511 337.843 319.492C334.089 319.472 331.145 315.947 331.398 315.431C331.483 315.272 331.849 315.423 332.469 315.678Z" fill="#007AEA"/>
</g>
<path d="M329.388 306.44L329.291 305.99L329.388 306.901V306.44ZM347.086 306.44L346.989 305.99L347.086 306.901V306.44ZM330.599 305.709L329.291 305.99L329.484 306.891L330.792 306.611L330.599 305.709ZM348.297 305.709L346.989 305.99L347.182 306.891L348.49 306.611L348.297 305.709ZM329.391 305.98H329.388V306.901H329.391V305.98ZM347.089 305.98H347.086V306.901H347.089V305.98ZM313.719 330.175L314.564 330.544L314.824 329.947L314.349 329.501L313.719 330.175ZM309.911 336.976L309.155 336.447L309.153 336.451L309.911 336.976ZM301.521 345.226L301.013 344.457L301.666 346.137L301.521 345.226ZM314.186 341.97L313.876 341.102L313.875 341.102L314.186 341.97ZM323.915 337.695L324.344 338.511L325.122 338.102L324.75 337.305L323.915 337.695ZM323.54 336.972H322.618V337.221L322.744 337.436L323.54 336.972ZM323.54 334.64H324.462L324.462 334.639L323.54 334.64ZM325.985 328.194L326.665 328.817L326.665 328.817L325.985 328.194ZM343.75 325.523L343.752 324.601H343.75V325.523ZM348.476 327.123L347.924 327.861L348.476 327.123ZM351.545 331.352L350.676 331.66L351.09 332.83L352.091 332.095L351.545 331.352ZM357.223 327.295L356.697 326.537L356.696 326.538L357.223 327.295ZM361.523 324.38L362.079 323.645L361.558 323.25L361.013 323.612L361.523 324.38ZM362.672 326.047L361.756 326.145L361.756 326.148L362.672 326.047ZM358.083 330.94L358.616 331.692L358.617 331.692L358.083 330.94ZM351.866 335.001L351.392 334.211L350.879 334.518L350.951 335.112L351.866 335.001ZM351.964 335.798L352.879 335.684V335.684L351.964 335.798ZM352.062 336.595L351.147 336.705L351.298 337.959L352.446 337.433L352.062 336.595ZM373.475 302.476H374.397V302.476L373.475 302.476ZM348.997 324.804L348.998 323.882H348.997V324.804ZM316.143 320.061L316.822 319.438L316.143 320.061ZM317.106 289.578L316.427 288.955L317.106 289.578ZM332.313 283.413L332.992 282.79L332.313 283.413ZM332.313 281.611L332.992 282.234L332.313 281.611ZM337.366 281.237V282.159H338.288V281.237H337.366ZM337.366 276.457H338.288V275.667L337.507 275.546L337.366 276.457ZM334.4 272.959L335.319 273.032L335.319 273.032L334.4 272.959ZM338.101 270.087L338.187 269.169L338.101 270.087ZM341.313 273.608L342.232 273.68L342.233 273.673L341.313 273.608ZM338.301 276.48L338.213 275.563L337.379 275.642V276.48H338.301ZM338.301 281.233H337.379V282.155H338.301V281.233ZM343.358 283.41L344.037 284.033L344.037 284.033L343.358 283.41ZM358.56 289.575L359.239 288.951L358.56 289.575ZM363.879 308.609H362.957V308.609L363.879 308.609ZM362.747 314.81L363.609 315.138L362.747 314.81ZM359.521 320.067L360.2 320.691L359.521 320.067ZM354.692 323.576L355.07 324.417H355.07L354.692 323.576ZM324.274 294.98V294.058H324.273L324.274 294.98ZM352.596 294.98L352.596 294.058H352.596V294.98ZM319.245 297.249L319.924 297.873H319.924L319.245 297.249ZM317.161 302.725L316.239 302.725V302.725H317.161ZM319.244 308.202L319.923 307.578L319.244 308.202ZM336.226 310.471V311.393H336.828L337.07 310.84L336.226 310.471ZM337.064 308.555L336.377 307.94L336.279 308.05L336.22 308.185L337.064 308.555ZM338.235 308.003L338.253 308.925L338.258 308.924L338.235 308.003ZM338.915 308.138L338.544 308.982H338.544L338.915 308.138ZM339.491 308.555L340.362 308.252L340.3 308.074L340.173 307.934L339.491 308.555ZM340.162 310.471L339.293 310.777L339.51 311.393H340.162V310.471ZM357.625 308.202L356.946 307.578L357.625 308.202ZM359.708 302.725H360.63V302.725L359.708 302.725ZM357.624 297.249L356.945 297.873L357.624 297.249ZM327.502 305.816L328.044 305.07H328.044L327.502 305.816ZM329.388 306.44L329.386 307.362H329.388V306.44ZM326.244 304.15L325.382 304.478L325.382 304.478L326.244 304.15ZM326.048 302.003L325.141 301.838V301.838L326.048 302.003ZM328.728 299.081L328.923 299.982L328.923 299.982L328.728 299.081ZM330.7 299.292L330.321 300.133H330.321L330.7 299.292ZM332.231 300.661L331.446 301.143H331.446L332.231 300.661ZM332.807 302.725H331.885V302.725L332.807 302.725ZM332.546 304.149L333.408 304.477L332.546 304.149ZM331.805 305.355L332.483 305.979L332.483 305.979L331.805 305.355ZM345.2 305.816L344.658 306.562H344.658L345.2 305.816ZM347.086 306.44L347.083 307.362H347.086V306.44ZM343.942 304.15L343.08 304.478V304.478L343.942 304.15ZM343.746 302.003L342.839 301.838L342.839 301.838L343.746 302.003ZM344.679 300.099L345.358 300.723L345.358 300.723L344.679 300.099ZM346.426 299.081L346.621 299.982L346.621 299.982L346.426 299.081ZM349.929 300.661L350.715 300.178L349.929 300.661ZM350.504 302.725H351.426V302.725L350.504 302.725ZM350.244 304.149L349.383 303.821L349.383 303.821L350.244 304.149ZM349.503 305.355L350.181 305.979L350.181 305.979L349.503 305.355ZM337.822 316.888L337.816 317.81H337.816L337.822 316.888ZM332.469 315.678L332.118 316.531H332.118L332.469 315.678ZM343.337 315.671L342.985 314.819L343.337 315.671ZM344.371 315.431L343.529 315.807L343.535 315.82L343.542 315.834L344.371 315.431ZM331.398 315.431L330.586 314.994L330.578 315.009L330.57 315.025L331.398 315.431ZM302.767 302.461C302.767 282.357 318.42 266.124 337.655 266.124V264.28C317.333 264.28 300.923 281.408 300.923 302.461H302.767ZM314.349 329.501C307.244 322.852 302.767 313.204 302.767 302.461H300.923C300.923 313.723 305.618 323.856 313.089 330.848L314.349 329.501ZM310.666 337.504C312.183 335.336 313.489 333.003 314.564 330.544L312.874 329.805C311.848 332.154 310.601 334.38 309.155 336.447L310.666 337.504ZM302.028 345.996C305.382 343.784 308.313 340.9 310.669 337.501L309.153 336.451C306.927 339.662 304.164 342.379 301.013 344.457L302.028 345.996ZM313.875 341.102C309.8 342.562 305.618 343.637 301.375 344.316L301.666 346.137C306.023 345.439 310.316 344.336 314.497 342.838L313.875 341.102ZM323.486 336.878C320.371 338.515 317.16 339.926 313.876 341.102L314.497 342.838C317.863 341.632 321.153 340.187 324.344 338.511L323.486 336.878ZM322.744 337.436C322.868 337.65 322.977 337.865 323.079 338.085L324.75 337.305C324.632 337.051 324.497 336.783 324.337 336.507L322.744 337.436ZM322.618 334.64V336.972H324.462V334.64H322.618ZM323.312 330.825C322.852 332.037 322.617 333.334 322.618 334.641L324.462 334.639C324.461 333.553 324.656 332.479 325.036 331.479L323.312 330.825ZM325.306 327.571C324.448 328.506 323.771 329.613 323.312 330.825L325.036 331.479C325.415 330.479 325.97 329.575 326.665 328.817L325.306 327.571ZM328.32 325.377C327.188 325.888 326.164 326.635 325.306 327.571L326.665 328.817C327.36 328.059 328.181 327.462 329.079 327.057L328.32 325.377ZM331.902 324.601C330.67 324.601 329.453 324.865 328.32 325.377L329.079 327.057C329.977 326.652 330.936 326.445 331.902 326.445V324.601ZM343.75 324.601H331.902V326.445H343.75V324.601ZM349.029 326.385C347.484 325.229 345.644 324.603 343.752 324.601L343.749 326.445C345.232 326.446 346.687 326.936 347.924 327.861L349.029 326.385ZM352.414 331.044C351.748 329.167 350.573 327.539 349.029 326.385L347.924 327.861C349.163 328.787 350.126 330.109 350.676 331.66L352.414 331.044ZM356.696 326.538C354.739 327.9 352.84 329.257 350.999 330.609L352.091 332.095C353.918 330.753 355.805 329.405 357.749 328.052L356.696 326.538ZM361.013 323.612C359.592 324.555 358.149 325.53 356.697 326.537L357.748 328.052C359.188 327.054 360.62 326.086 362.033 325.148L361.013 323.612ZM363.589 325.95C363.467 324.799 362.619 324.052 362.079 323.645L360.967 325.115C361.456 325.485 361.721 325.818 361.756 326.145L363.589 325.95ZM358.617 331.692C360.43 330.403 361.679 329.424 362.459 328.595C363.249 327.754 363.696 326.919 363.589 325.946L361.756 326.148C361.777 326.342 361.744 326.662 361.115 327.332C360.475 328.012 359.365 328.897 357.549 330.189L358.617 331.692ZM352.34 335.792C354.92 334.246 357.035 332.814 358.616 331.692L357.549 330.188C355.997 331.289 353.923 332.694 351.392 334.211L352.34 335.792ZM352.879 335.684C352.846 335.419 352.813 335.155 352.781 334.891L350.951 335.112C350.983 335.38 351.016 335.647 351.049 335.912L352.879 335.684ZM352.978 336.484C352.945 336.216 352.912 335.949 352.879 335.684L351.049 335.912C351.082 336.178 351.115 336.441 351.147 336.705L352.978 336.484ZM372.553 302.476C372.553 317.364 363.95 330.136 351.678 335.757L352.446 337.433C365.377 331.511 374.397 318.081 374.397 302.476H372.553ZM337.655 266.124C356.89 266.124 372.543 282.357 372.553 302.477L374.397 302.476C374.386 281.408 357.977 264.28 337.655 264.28V266.124ZM326.656 325.726H348.997V323.882H326.656V325.726ZM315.464 320.685C318.417 323.902 322.441 325.726 326.656 325.726V323.882C322.984 323.882 319.444 322.294 316.822 319.438L315.464 320.685ZM310.866 308.613C310.866 313.127 312.512 317.471 315.464 320.685L316.822 319.438C314.197 316.579 312.71 312.687 312.71 308.613H310.866ZM310.866 303.561V308.613H312.71V303.561H310.866ZM316.427 288.955C312.859 292.841 310.866 298.096 310.866 303.561H312.71C312.71 298.537 314.543 293.733 317.786 290.202L316.427 288.955ZM329.946 282.865C324.859 282.865 319.998 285.066 316.427 288.955L317.786 290.202C321.025 286.674 325.401 284.709 329.946 284.709V282.865ZM333.14 282.865H329.946V284.709H333.14V282.865ZM331.634 284.037C332.019 284.456 332.559 284.709 333.14 284.709V282.865C333.101 282.865 333.046 282.849 332.992 282.79L331.634 284.037ZM331.048 282.512C331.048 283.07 331.251 283.62 331.634 284.037L332.992 282.79C332.935 282.729 332.892 282.63 332.892 282.512H331.048ZM331.634 280.987C331.251 281.404 331.048 281.954 331.048 282.512H332.892C332.892 282.394 332.935 282.296 332.992 282.234L331.634 280.987ZM333.14 280.315C332.559 280.315 332.019 280.568 331.634 280.987L332.992 282.234C333.046 282.176 333.101 282.159 333.14 282.159V280.315ZM337.366 280.315H333.14V282.159H337.366V280.315ZM336.444 276.457V281.237H338.288V276.457H336.444ZM333.481 272.886C333.302 275.136 335.028 277.028 337.225 277.368L337.507 275.546C336.135 275.334 335.227 274.195 335.319 273.032L333.481 272.886ZM338.187 269.169C335.826 268.949 333.666 270.544 333.481 272.887L335.319 273.032C335.413 271.846 336.543 270.868 338.015 271.005L338.187 269.169ZM342.233 273.673C342.397 271.352 340.543 269.389 338.187 269.169L338.015 271.005C339.492 271.143 340.479 272.336 340.393 273.543L342.233 273.673ZM338.389 277.398C340.35 277.211 342.071 275.747 342.232 273.68L340.394 273.537C340.312 274.579 339.421 275.447 338.213 275.563L338.389 277.398ZM339.223 281.233V276.48H337.379V281.233H339.223ZM342.53 280.311H338.301V282.155H342.53V280.311ZM344.037 280.983C343.652 280.564 343.111 280.311 342.53 280.311V282.155C342.569 282.155 342.625 282.172 342.679 282.23L344.037 280.983ZM344.622 282.508C344.622 281.95 344.419 281.4 344.037 280.983L342.679 282.23C342.735 282.292 342.779 282.39 342.779 282.508H344.622ZM344.037 284.033C344.419 283.616 344.622 283.067 344.622 282.508H342.779C342.779 282.626 342.735 282.725 342.679 282.786L344.037 284.033ZM342.53 284.705C343.111 284.705 343.652 284.453 344.037 284.033L342.679 282.786C342.625 282.845 342.569 282.861 342.53 282.861V284.705ZM345.72 282.861H342.53V284.705H345.72V282.861ZM359.239 288.951C355.668 285.062 350.807 282.861 345.72 282.861V284.705C350.265 284.705 354.641 286.67 357.881 290.198L359.239 288.951ZM364.801 303.557C364.801 298.092 362.808 292.837 359.239 288.951L357.881 290.198C361.123 293.729 362.957 298.533 362.957 303.557H364.801ZM364.801 308.609V303.557H362.957V308.609H364.801ZM363.609 315.138C364.397 313.066 364.802 310.847 364.801 308.609L362.957 308.609C362.958 310.627 362.593 312.623 361.886 314.483L363.609 315.138ZM360.2 320.691C361.664 319.098 362.821 317.21 363.609 315.138L361.886 314.483C361.178 316.343 360.143 318.028 358.842 319.443L360.2 320.691ZM355.07 324.417C356.994 323.551 358.736 322.284 360.2 320.691L358.842 319.443C357.542 320.858 356.002 321.976 354.314 322.736L355.07 324.417ZM348.995 325.726C351.082 325.728 353.147 325.283 355.07 324.417L354.314 322.736C352.625 323.495 350.819 323.884 348.998 323.882L348.995 325.726ZM324.274 295.902H352.596V294.058H324.274V295.902ZM319.924 297.873C321.092 296.601 322.659 295.902 324.274 295.902L324.273 294.058C322.116 294.059 320.065 294.993 318.566 296.626L319.924 297.873ZM318.083 302.726C318.084 300.892 318.754 299.148 319.924 297.873L318.566 296.626C317.069 298.256 316.24 300.451 316.239 302.725L318.083 302.726ZM319.923 307.578C318.753 306.304 318.083 304.559 318.083 302.725H316.239C316.239 305 317.068 307.195 318.565 308.826L319.923 307.578ZM324.274 309.549C322.658 309.549 321.091 308.851 319.923 307.578L318.565 308.826C320.065 310.459 322.116 311.393 324.274 311.393V309.549ZM336.226 309.549H324.274V311.393H336.226V309.549ZM336.22 308.185L335.381 310.101L337.07 310.84L337.909 308.924L336.22 308.185ZM338.216 307.081C337.506 307.095 336.847 307.415 336.377 307.94L337.751 309.169C337.898 309.005 338.081 308.928 338.253 308.925L338.216 307.081ZM339.286 307.294C338.948 307.145 338.582 307.072 338.212 307.081L338.258 308.924C338.354 308.922 338.451 308.941 338.544 308.982L339.286 307.294ZM340.173 307.934C339.925 307.662 339.624 307.442 339.286 307.294L338.544 308.982C338.638 309.023 338.729 309.087 338.809 309.175L340.173 307.934ZM341.031 310.164C340.807 309.528 340.583 308.888 340.362 308.252L338.62 308.857C338.842 309.496 339.067 310.139 339.293 310.777L341.031 310.164ZM352.596 309.549H340.162V311.393H352.596V309.549ZM356.946 307.578C355.778 308.851 354.211 309.549 352.596 309.549V311.393C354.753 311.393 356.805 310.459 358.304 308.826L356.946 307.578ZM358.787 302.725C358.787 304.559 358.117 306.304 356.946 307.578L358.304 308.826C359.801 307.195 360.63 305 360.63 302.725H358.787ZM356.945 297.873C358.116 299.148 358.786 300.892 358.787 302.726L360.63 302.725C360.629 300.451 359.8 298.256 358.303 296.626L356.945 297.873ZM352.595 295.902C354.21 295.902 355.777 296.601 356.945 297.873L358.303 296.626C356.804 294.993 354.753 294.059 352.596 294.058L352.595 295.902ZM326.96 306.562C327.671 307.078 328.515 307.36 329.386 307.362L329.39 305.519C328.918 305.517 328.45 305.365 328.044 305.07L326.96 306.562ZM325.382 304.478C325.702 305.316 326.247 306.044 326.96 306.562L328.044 305.07C327.634 304.773 327.303 304.341 327.105 303.821L325.382 304.478ZM325.141 301.838C324.98 302.723 325.063 303.641 325.382 304.478L327.105 303.821C326.907 303.301 326.854 302.725 326.955 302.168L325.141 301.838ZM326.302 299.476C325.702 300.129 325.302 300.952 325.141 301.838L326.955 302.168C327.057 301.611 327.306 301.109 327.66 300.723L326.302 299.476ZM328.532 298.18C327.676 298.366 326.902 298.822 326.302 299.476L327.66 300.723C328.014 300.337 328.456 300.084 328.923 299.982L328.532 298.18ZM331.079 298.452C330.277 298.09 329.389 297.994 328.532 298.18L328.923 299.982C329.39 299.881 329.875 299.932 330.321 300.133L331.079 298.452ZM333.017 300.178C332.55 299.418 331.879 298.812 331.079 298.452L330.321 300.133C330.768 300.334 331.162 300.681 331.446 301.143L333.017 300.178ZM333.729 302.725C333.729 301.824 333.484 300.938 333.017 300.178L331.446 301.143C331.729 301.605 331.885 302.156 331.885 302.725H333.729ZM333.408 304.477C333.62 303.92 333.729 303.324 333.729 302.725L331.885 302.725C331.885 303.103 331.816 303.475 331.685 303.821L333.408 304.477ZM332.483 305.979C332.882 305.545 333.195 305.034 333.408 304.477L331.685 303.821C331.553 304.166 331.362 304.474 331.126 304.731L332.483 305.979ZM331.073 307.001C331.605 306.762 332.084 306.413 332.483 305.979L331.126 304.731C330.891 304.987 330.615 305.185 330.318 305.319L331.073 307.001ZM344.658 306.562C345.369 307.078 346.213 307.36 347.083 307.362L347.088 305.519C346.616 305.517 346.148 305.365 345.742 305.07L344.658 306.562ZM343.08 304.478C343.4 305.316 343.945 306.044 344.658 306.562L345.742 305.07C345.332 304.773 345.001 304.341 344.803 303.821L343.08 304.478ZM342.839 301.838C342.678 302.723 342.761 303.641 343.08 304.478L344.803 303.821C344.605 303.301 344.552 302.725 344.653 302.168L342.839 301.838ZM344 299.476C343.4 300.129 343 300.952 342.839 301.838L344.653 302.168C344.754 301.611 345.004 301.109 345.358 300.723L344 299.476ZM346.23 298.18C345.374 298.366 344.6 298.822 344 299.476L345.358 300.723C345.712 300.337 346.154 300.084 346.621 299.982L346.23 298.18ZM348.776 298.452C347.975 298.09 347.087 297.994 346.23 298.18L346.621 299.982C347.088 299.881 347.573 299.932 348.019 300.133L348.776 298.452ZM350.715 300.178C350.248 299.418 349.577 298.812 348.776 298.452L348.019 300.133C348.465 300.334 348.86 300.681 349.143 301.143L350.715 300.178ZM351.426 302.725C351.426 301.824 351.181 300.938 350.715 300.178L349.143 301.143C349.427 301.605 349.583 302.156 349.583 302.725L351.426 302.725ZM351.106 304.477C351.318 303.92 351.426 303.324 351.426 302.725H349.583C349.583 303.103 349.514 303.475 349.383 303.821L351.106 304.477ZM350.181 305.979C350.58 305.545 350.893 305.034 351.106 304.477L349.383 303.821C349.251 304.166 349.06 304.474 348.824 304.731L350.181 305.979ZM348.771 307.001C349.303 306.762 349.782 306.413 350.181 305.979L348.824 304.731C348.588 304.987 348.313 305.185 348.016 305.319L348.771 307.001ZM329.391 305.519H329.388V307.362H329.391V305.519ZM347.089 305.519H347.086V307.362H347.089V305.519ZM337.827 315.966C335.564 315.952 333.875 315.26 332.82 314.826L332.118 316.531C333.205 316.979 335.175 317.794 337.816 317.81L337.827 315.966ZM342.985 314.819C341.917 315.26 340.166 315.98 337.827 315.966L337.816 317.81C340.546 317.826 342.586 316.979 343.69 316.523L342.985 314.819ZM345.212 315.054C345.016 314.616 344.614 314.471 344.344 314.448C344.121 314.428 343.921 314.478 343.808 314.509C343.568 314.576 343.265 314.703 342.985 314.819L343.69 316.523C343.844 316.459 343.971 316.407 344.08 316.364C344.191 316.321 344.261 316.297 344.303 316.285C344.364 316.268 344.304 316.295 344.186 316.285C344.117 316.279 343.992 316.257 343.856 316.175C343.708 316.086 343.595 315.955 343.529 315.807L345.212 315.054ZM337.839 320.414C340.001 320.425 341.896 319.412 343.185 318.384C343.835 317.866 344.363 317.318 344.722 316.843C344.899 316.608 345.054 316.365 345.159 316.132C345.21 316.016 345.263 315.873 345.29 315.715C345.314 315.571 345.335 315.306 345.2 315.027L343.542 315.834C343.438 315.621 343.465 315.443 343.471 315.41C343.479 315.361 343.49 315.347 343.475 315.379C343.448 315.44 343.379 315.56 343.25 315.732C342.995 316.07 342.579 316.509 342.035 316.943C340.935 317.821 339.44 318.578 337.848 318.57L337.839 320.414ZM330.57 315.025C330.436 315.299 330.454 315.562 330.477 315.705C330.502 315.863 330.553 316.006 330.603 316.121C330.704 316.354 330.857 316.596 331.03 316.829C331.381 317.303 331.899 317.848 332.538 318.365C333.808 319.391 335.68 320.403 337.839 320.414L337.848 318.57C336.252 318.562 334.775 317.801 333.697 316.931C333.163 316.499 332.758 316.065 332.511 315.731C332.385 315.561 332.319 315.443 332.293 315.384C332.28 315.354 332.29 315.368 332.298 315.417C332.304 315.452 332.329 315.627 332.226 315.836L330.57 315.025ZM332.82 314.826C332.534 314.708 332.226 314.579 331.979 314.511C331.862 314.478 331.664 314.431 331.446 314.447C331.192 314.466 330.804 314.588 330.586 314.994L332.21 315.867C332.135 316.006 332.021 316.121 331.883 316.195C331.757 316.264 331.644 316.281 331.582 316.286C331.476 316.294 331.424 316.271 331.486 316.288C331.532 316.3 331.605 316.325 331.719 316.369C331.831 316.413 331.96 316.466 332.118 316.531L332.82 314.826Z" fill="#007AEA" fill-opacity="0.5" mask="url(#path-3-inside-1_3675_2121)"/>
<path d="M292.508 334.7H297.834C300.834 334.7 302.827 335.203 303.815 336.21C304.802 337.216 305.296 338.431 305.296 339.855C305.296 340.805 305.087 341.706 304.669 342.561C304.251 343.396 303.587 344.023 302.675 344.441C304.024 344.782 305.011 345.381 305.638 346.235C306.283 347.089 306.606 348.096 306.606 349.254C306.606 350.469 306.416 351.532 306.036 352.444C305.656 353.355 304.869 354.115 303.672 354.722C302.476 355.33 300.748 355.634 298.489 355.634H292.508V334.7ZM298.346 343.586C299.694 343.586 300.653 343.263 301.223 342.618C301.793 341.953 302.077 341.118 302.077 340.112C302.077 338.308 300.786 337.406 298.204 337.406H295.641V343.586H298.346ZM298.916 352.957C300.644 352.957 301.802 352.615 302.391 351.931C302.998 351.229 303.302 350.346 303.302 349.282C303.302 348.276 302.96 347.498 302.277 346.947C301.593 346.396 300.558 346.121 299.172 346.121H295.641V352.957H298.916ZM313.953 355.919C312.605 355.919 311.409 355.615 310.365 355.007C309.32 354.4 308.513 353.574 307.944 352.529C307.374 351.485 307.089 350.327 307.089 349.055C307.089 347.801 307.365 346.653 307.915 345.608C308.485 344.564 309.292 343.738 310.336 343.131C311.381 342.523 312.586 342.219 313.953 342.219C315.32 342.219 316.517 342.523 317.542 343.131C318.586 343.738 319.384 344.564 319.934 345.608C320.504 346.653 320.789 347.801 320.789 349.055C320.789 350.327 320.504 351.485 319.934 352.529C319.365 353.574 318.558 354.4 317.513 355.007C316.488 355.615 315.301 355.919 313.953 355.919ZM314.039 353.412C315.14 353.412 316.004 353.004 316.631 352.188C317.276 351.371 317.599 350.346 317.599 349.112C317.599 347.877 317.257 346.843 316.574 346.007C315.89 345.153 314.988 344.725 313.868 344.725C312.786 344.725 311.912 345.143 311.248 345.979C310.602 346.814 310.279 347.858 310.279 349.112C310.279 350.327 310.631 351.352 311.333 352.188C312.036 353.004 312.938 353.412 314.039 353.412ZM322.934 345.067H320.628V342.561H322.934V337.235L326.039 336.551V342.561H329.058V345.067H326.039V355.634H322.934V345.067Z" fill="black"/>
<path d="M341.131 355.833C338.966 355.833 337.086 355.349 335.491 354.381C333.916 353.412 332.71 352.121 331.874 350.507C331.039 348.874 330.621 347.08 330.621 345.124C330.621 343.055 331.067 341.203 331.96 339.57C332.871 337.937 334.143 336.665 335.776 335.754C337.409 334.824 339.26 334.358 341.33 334.358C342.26 334.358 343.124 334.463 343.922 334.672C344.738 334.861 345.412 335.089 345.944 335.355C346.476 335.602 346.827 335.811 346.998 335.982L345.602 338.83C344.444 337.805 342.935 337.292 341.074 337.292C339.764 337.292 338.577 337.615 337.514 338.26C336.45 338.906 335.615 339.827 335.007 341.023C334.4 342.219 334.096 343.605 334.096 345.181C334.096 346.624 334.362 347.934 334.893 349.112C335.444 350.289 336.241 351.219 337.286 351.903C338.33 352.586 339.574 352.928 341.017 352.928C342.688 352.928 344.302 352.453 345.859 351.504L346.799 354.21C346.381 354.589 345.612 354.96 344.492 355.32C343.39 355.662 342.27 355.833 341.131 355.833ZM355.127 355.919C353.95 355.919 352.858 355.643 351.851 355.093C350.864 354.523 350.067 353.726 349.459 352.7C348.87 351.656 348.576 350.441 348.576 349.055C348.576 347.688 348.832 346.491 349.345 345.466C349.877 344.441 350.627 343.643 351.595 343.074C352.563 342.504 353.703 342.219 355.013 342.219C355.772 342.219 356.484 342.352 357.149 342.618C357.814 342.884 358.374 343.216 358.829 343.615C359.285 343.994 359.589 344.374 359.741 344.754L359.798 342.561H362.731V355.634H359.826L359.769 353.327C359.446 354.01 358.858 354.618 358.003 355.15C357.149 355.662 356.19 355.919 355.127 355.919ZM355.639 353.355C356.722 353.355 357.633 352.985 358.374 352.245C359.114 351.485 359.484 350.498 359.484 349.282V349.083C359.484 348.267 359.314 347.536 358.972 346.89C358.63 346.244 358.165 345.741 357.576 345.381C356.988 345.02 356.342 344.839 355.639 344.839C354.424 344.839 353.484 345.238 352.82 346.036C352.155 346.814 351.823 347.83 351.823 349.083C351.823 350.355 352.146 351.39 352.791 352.188C353.456 352.966 354.405 353.355 355.639 353.355ZM366.213 342.561H369.289V345.124C369.592 344.251 370.086 343.548 370.77 343.017C371.453 342.485 372.232 342.219 373.105 342.219C373.713 342.219 374.13 342.276 374.358 342.39L373.931 345.494C373.76 345.381 373.39 345.324 372.82 345.324C371.928 345.324 371.111 345.608 370.371 346.178C369.649 346.748 369.289 347.659 369.289 348.912V355.634H366.213V342.561ZM377.103 345.067H374.796V342.561H377.103V337.235L380.208 336.551V342.561H383.227V345.067H380.208V355.634H377.103V345.067Z" fill="#007AEA"/>
<path fill-rule="evenodd" clip-rule="evenodd" d="M673.071 313C673.071 484.35 522.974 623.506 337.5 623.506C152.026 623.506 1.92857 484.35 1.92857 313C1.92857 141.649 152.026 2.49302 337.5 2.49302C522.974 2.49302 673.071 141.649 673.071 313ZM675 313C675 485.553 523.896 625.435 337.5 625.435C151.104 625.435 0 485.553 0 313C0 140.446 151.104 0.564453 337.5 0.564453C523.896 0.564453 675 140.446 675 313ZM337.5 564.516C487.737 564.516 609.319 451.797 609.319 313C609.319 174.203 487.737 61.4842 337.5 61.4842C187.263 61.4842 65.6814 174.203 65.6814 313C65.6814 451.797 187.263 564.516 337.5 564.516ZM337.5 566.078C488.484 566.078 610.881 452.771 610.881 313C610.881 173.229 488.484 59.922 337.5 59.922C186.516 59.922 64.1192 173.229 64.1192 313C64.1192 452.771 186.516 566.078 337.5 566.078ZM546.725 312.999C546.725 419.835 453.141 506.597 337.5 506.597C221.859 506.597 128.275 419.835 128.275 312.999C128.275 206.164 221.859 119.402 337.5 119.402C453.141 119.402 546.725 206.164 546.725 312.999ZM547.927 312.999C547.927 420.584 453.716 507.799 337.5 507.799C221.284 507.799 127.073 420.584 127.073 312.999C127.073 205.415 221.284 118.2 337.5 118.2C453.716 118.2 547.927 205.415 547.927 312.999ZM481.813 313C481.813 386.689 417.263 446.534 337.5 446.534C257.737 446.534 193.187 386.689 193.187 313C193.187 239.31 257.737 179.466 337.5 179.466C417.263 179.466 481.813 239.31 481.813 313ZM482.642 313C482.642 387.207 417.66 447.363 337.5 447.363C257.34 447.363 192.358 387.207 192.358 313C192.358 238.793 257.34 178.636 337.5 178.636C417.66 178.636 482.642 238.793 482.642 313Z" fill="url(#paint0_linear_3675_2121)" fill-opacity="0.5"/>
<g filter="url(#filter2_d_3675_2121)">
<circle cx="176.036" cy="181.264" r="46.6321" fill="white"/>
<circle cx="176.036" cy="181.264" r="46.956" stroke="#B5B5B5" stroke-width="0.647668"/>
</g>
<g clip-path="url(#clip0_3675_2121)">
<path d="M176.036 155.357C169.166 155.357 162.572 158.089 157.719 162.945C152.86 167.804 150.13 174.393 150.129 181.264C150.129 188.132 152.861 194.726 157.719 199.583C162.572 204.44 169.166 207.171 176.036 207.171C182.905 207.171 189.499 204.44 194.353 199.583C199.21 194.726 201.942 188.132 201.942 181.264C201.942 174.396 199.21 167.802 194.353 162.945C189.499 158.089 182.905 155.357 176.036 155.357Z" fill="url(#paint1_linear_3675_2121)"/>
<path d="M161.856 180.991C169.409 177.701 174.445 175.531 176.962 174.483C184.16 171.491 185.653 170.971 186.629 170.953C186.843 170.95 187.321 171.003 187.633 171.255C187.892 171.467 187.965 171.755 188.001 171.957C188.034 172.158 188.078 172.618 188.042 172.976C187.653 177.073 185.965 187.014 185.107 191.602C184.747 193.543 184.03 194.194 183.338 194.258C181.832 194.396 180.691 193.264 179.233 192.309C176.954 190.814 175.667 189.884 173.453 188.425C170.895 186.74 172.554 185.813 174.012 184.299C174.392 183.903 181.023 177.873 181.148 177.327C181.164 177.258 181.18 177.003 181.027 176.869C180.877 176.734 180.654 176.78 180.492 176.816C180.262 176.868 176.622 179.276 169.563 184.039C168.531 184.749 167.596 185.095 166.754 185.077C165.831 185.057 164.05 184.554 162.726 184.124C161.107 183.597 159.815 183.318 159.929 182.422C159.985 181.956 160.629 181.478 161.856 180.991Z" fill="white"/>
</g>
<g filter="url(#filter3_d_3675_2121)">
<circle cx="159.715" cy="409.761" r="34.9741" fill="white"/>
<circle cx="159.715" cy="409.761" r="35.217" stroke="#B5B5B5" stroke-width="0.485751"/>
</g>
<g clip-path="url(#clip1_3675_2121)">
<path d="M159.836 390.332C148.891 390.332 140.406 398.349 140.406 409.179C140.406 414.843 142.728 419.738 146.509 423.119C146.826 423.403 147.017 423.801 147.03 424.227L147.136 427.683C147.17 428.786 148.309 429.503 149.318 429.058L153.174 427.355C153.501 427.211 153.868 427.184 154.212 427.279C155.984 427.766 157.87 428.026 159.836 428.026C170.782 428.026 179.266 420.008 179.266 409.179C179.266 398.349 170.782 390.332 159.836 390.332Z" fill="url(#paint2_linear_3675_2121)"/>
<path d="M148.173 414.69L153.88 405.635C154.788 404.195 156.732 403.836 158.094 404.858L162.634 408.262C162.837 408.414 163.083 408.496 163.337 408.496C163.59 408.495 163.836 408.412 164.038 408.258L170.169 403.605C170.987 402.984 172.056 403.964 171.508 404.833L165.8 413.888C164.892 415.328 162.948 415.687 161.586 414.665L157.046 411.261C156.844 411.109 156.597 411.027 156.344 411.028C156.09 411.028 155.844 411.112 155.642 411.265L149.511 415.918C148.693 416.539 147.625 415.559 148.173 414.69Z" fill="white"/>
</g>
<g filter="url(#filter4_d_3675_2121)">
<circle cx="549.092" cy="345.642" r="40.8031" fill="white"/>
<circle cx="549.092" cy="345.642" r="41.0865" stroke="#B5B5B5" stroke-width="0.56671"/>
</g>
<g clip-path="url(#clip2_3675_2121)">
<path d="M561.425 322.974H537.34C531.471 322.974 526.714 327.731 526.714 333.6V357.685C526.714 363.554 531.471 368.311 537.34 368.311H561.425C567.293 368.311 572.051 363.554 572.051 357.685V333.6C572.051 327.731 567.293 322.974 561.425 322.974Z" fill="url(#paint3_radial_3675_2121)"/>
<path d="M561.425 322.974H537.34C531.471 322.974 526.714 327.731 526.714 333.6V357.685C526.714 363.554 531.471 368.311 537.34 368.311H561.425C567.293 368.311 572.051 363.554 572.051 357.685V333.6C572.051 327.731 567.293 322.974 561.425 322.974Z" fill="url(#paint4_radial_3675_2121)"/>
<path d="M549.384 327.933C544.575 327.933 543.971 327.954 542.082 328.04C540.197 328.126 538.91 328.425 537.784 328.863C536.619 329.315 535.631 329.92 534.646 330.905C533.661 331.889 533.056 332.877 532.602 334.042C532.163 335.168 531.864 336.456 531.779 338.34C531.695 340.229 531.673 340.833 531.673 345.643C531.673 350.453 531.694 351.055 531.78 352.943C531.867 354.829 532.165 356.116 532.603 357.242C533.055 358.407 533.66 359.395 534.645 360.379C535.629 361.364 536.617 361.971 537.781 362.423C538.908 362.861 540.195 363.159 542.08 363.246C543.969 363.332 544.573 363.353 549.382 363.353C554.192 363.353 554.794 363.332 556.683 363.246C558.568 363.159 559.857 362.861 560.983 362.423C562.148 361.971 563.134 361.364 564.118 360.379C565.104 359.395 565.709 358.407 566.162 357.242C566.598 356.116 566.897 354.828 566.985 352.944C567.07 351.055 567.092 350.453 567.092 345.643C567.092 340.833 567.07 340.23 566.985 338.341C566.897 336.455 566.598 335.168 566.162 334.042C565.709 332.877 565.104 331.889 564.118 330.905C563.133 329.92 562.148 329.315 560.982 328.863C559.853 328.425 558.566 328.126 556.68 328.04C554.791 327.954 554.19 327.933 549.379 327.933H549.384ZM547.795 331.125C548.267 331.124 548.793 331.125 549.384 331.125C554.113 331.125 554.673 331.142 556.54 331.226C558.267 331.305 559.204 331.594 559.829 331.836C560.655 332.157 561.244 332.541 561.864 333.161C562.484 333.781 562.867 334.371 563.189 335.198C563.431 335.821 563.72 336.758 563.799 338.485C563.884 340.352 563.902 340.913 563.902 345.639C563.902 350.365 563.884 350.926 563.799 352.793C563.72 354.52 563.431 355.457 563.189 356.08C562.868 356.907 562.484 357.495 561.864 358.115C561.244 358.735 560.655 359.118 559.829 359.439C559.205 359.683 558.267 359.971 556.54 360.05C554.673 360.134 554.113 360.153 549.384 360.153C544.655 360.153 544.095 360.134 542.228 360.05C540.501 359.97 539.564 359.681 538.939 359.439C538.113 359.118 537.523 358.734 536.903 358.114C536.283 357.495 535.899 356.906 535.577 356.079C535.335 355.455 535.046 354.518 534.968 352.791C534.883 350.925 534.866 350.364 534.866 345.634C534.866 340.905 534.883 340.347 534.968 338.48C535.047 336.754 535.335 335.817 535.577 335.192C535.899 334.366 536.283 333.776 536.903 333.156C537.523 332.536 538.113 332.152 538.939 331.83C539.564 331.587 540.501 331.299 542.228 331.22C543.862 331.146 544.495 331.124 547.795 331.12V331.125ZM558.838 334.065C557.664 334.065 556.712 335.016 556.712 336.19C556.712 337.363 557.664 338.315 558.838 338.315C560.011 338.315 560.963 337.363 560.963 336.19C560.963 335.016 560.011 334.064 558.838 334.064V334.065ZM549.384 336.548C544.362 336.548 540.289 340.62 540.289 345.643C540.289 350.666 544.362 354.736 549.384 354.736C554.407 354.736 558.478 350.666 558.478 345.643C558.478 340.621 554.406 336.548 549.384 336.548H549.384ZM549.384 339.74C552.644 339.74 555.287 342.382 555.287 345.643C555.287 348.903 552.644 351.546 549.384 351.546C546.124 351.546 543.481 348.903 543.481 345.643C543.481 342.382 546.124 339.74 549.384 339.74Z" fill="white"/>
</g>
<g filter="url(#filter5_d_3675_2121)">
<circle cx="448.835" cy="208.078" r="37.8886" fill="white"/>
<circle cx="448.835" cy="208.078" r="38.1517" stroke="#B5B5B5" stroke-width="0.526231"/>
</g>
<g clip-path="url(#clip3_3675_2121)">
<g filter="url(#filter6_i_3675_2121)">
<path d="M429.005 207.752C429.004 211.29 429.936 214.743 431.707 217.787L428.836 228.188L439.563 225.397C442.53 227 445.854 227.84 449.233 227.84H449.242C460.393 227.84 469.471 218.836 469.476 207.768C469.478 202.405 467.375 197.362 463.555 193.568C459.735 189.774 454.654 187.684 449.241 187.682C438.087 187.682 429.01 196.685 429.005 207.752" fill="#57D163"/>
</g>
<path d="M428.362 207.82C428.361 211.484 429.326 215.062 431.16 218.215L428.187 228.989L439.298 226.098C442.36 227.754 445.807 228.627 449.315 228.629H449.324C460.876 228.629 470.28 219.3 470.285 207.837C470.287 202.281 468.108 197.057 464.151 193.127C460.193 189.197 454.931 187.032 449.324 187.029C437.77 187.029 428.367 196.356 428.362 207.82ZM434.98 217.672L434.565 217.018C432.821 214.267 431.9 211.087 431.902 207.821C431.905 198.293 439.721 190.541 449.33 190.541C453.984 190.543 458.358 192.343 461.648 195.609C464.937 198.875 466.747 203.217 466.746 207.835C466.742 217.364 458.926 225.117 449.324 225.117H449.317C446.19 225.115 443.124 224.282 440.45 222.708L439.813 222.333L433.219 224.049L434.98 217.672V217.672Z" fill="url(#paint5_linear_3675_2121)"/>
<path d="M444.087 199.128C443.694 198.262 443.281 198.245 442.908 198.23C442.603 198.217 442.254 198.218 441.905 198.218C441.555 198.218 440.988 198.348 440.508 198.868C440.028 199.388 438.675 200.645 438.675 203.202C438.675 205.759 440.552 208.23 440.813 208.577C441.075 208.923 444.437 214.338 449.76 216.421C454.184 218.152 455.085 217.808 456.045 217.721C457.005 217.634 459.144 216.464 459.58 215.251C460.017 214.037 460.017 212.997 459.886 212.78C459.755 212.563 459.405 212.433 458.882 212.174C458.358 211.914 455.783 210.656 455.303 210.483C454.823 210.31 454.474 210.223 454.124 210.744C453.775 211.263 452.772 212.433 452.466 212.78C452.161 213.127 451.855 213.171 451.332 212.911C450.808 212.65 449.121 212.102 447.12 210.332C445.563 208.954 444.512 207.253 444.206 206.733C443.9 206.213 444.173 205.931 444.436 205.672C444.671 205.44 444.96 205.066 445.222 204.762C445.483 204.459 445.57 204.242 445.745 203.896C445.92 203.549 445.832 203.245 445.701 202.985C445.57 202.725 444.552 200.155 444.087 199.128Z" fill="white"/>
</g>
<defs>
<filter id="filter0_d_3675_2121" x="233.162" y="227.896" width="207.513" height="216.84" filterUnits="userSpaceOnUse" color-interpolation-filters="sRGB">
<feFlood flood-opacity="0" result="BackgroundImageFix"/>
<feColorMatrix in="SourceAlpha" type="matrix" values="0 0 0 0 0 0 0 0 0 0 0 0 0 0 0 0 0 0 127 0" result="hardAlpha"/>
<feOffset dy="27.9793"/>
<feGaussianBlur stdDeviation="9.32642"/>
<feComposite in2="hardAlpha" operator="out"/>
<feColorMatrix type="matrix" values="0 0 0 0 0.945098 0 0 0 0 0.952941 0 0 0 0 0.956863 0 0 0 0.8 0"/>
<feBlend mode="normal" in2="BackgroundImageFix" result="effect1_dropShadow_3675_2121"/>
<feBlend mode="normal" in="SourceGraphic" in2="effect1_dropShadow_3675_2121" result="shape"/>
</filter>
<filter id="filter1_i_3675_2121" x="296.857" y="265.202" width="76.6183" height="87.4856" filterUnits="userSpaceOnUse" color-interpolation-filters="sRGB">
<feFlood flood-opacity="0" result="BackgroundImageFix"/>
<feBlend mode="normal" in="SourceGraphic" in2="BackgroundImageFix" result="shape"/>
<feColorMatrix in="SourceAlpha" type="matrix" values="0 0 0 0 0 0 0 0 0 0 0 0 0 0 0 0 0 0 127 0" result="hardAlpha"/>
<feOffset dx="-4.66323" dy="7.46117"/>
<feGaussianBlur stdDeviation="5.12955"/>
<feComposite in2="hardAlpha" operator="arithmetic" k2="-1" k3="1"/>
<feColorMatrix type="matrix" values="0 0 0 0 0 0 0 0 0 0 0 0 0 0 0 0 0 0 0.26 0"/>
<feBlend mode="normal" in2="shape" result="effect1_innerShadow_3675_2121"/>
</filter>
<filter id="filter2_d_3675_2121" x="108.031" y="118.44" width="136.01" height="136.01" filterUnits="userSpaceOnUse" color-interpolation-filters="sRGB">
<feFlood flood-opacity="0" result="BackgroundImageFix"/>
<feColorMatrix in="SourceAlpha" type="matrix" values="0 0 0 0 0 0 0 0 0 0 0 0 0 0 0 0 0 0 127 0" result="hardAlpha"/>
<feOffset dy="5.18135"/>
<feGaussianBlur stdDeviation="10.3627"/>
<feComposite in2="hardAlpha" operator="out"/>
<feColorMatrix type="matrix" values="0 0 0 0 0.945098 0 0 0 0 0.952941 0 0 0 0 0.956863 0 0 0 0.8 0"/>
<feBlend mode="normal" in2="BackgroundImageFix" result="effect1_dropShadow_3675_2121"/>
<feBlend mode="normal" in="SourceGraphic" in2="effect1_dropShadow_3675_2121" result="shape"/>
</filter>
<filter id="filter3_d_3675_2121" x="108.712" y="362.643" width="102.007" height="102.008" filterUnits="userSpaceOnUse" color-interpolation-filters="sRGB">
<feFlood flood-opacity="0" result="BackgroundImageFix"/>
<feColorMatrix in="SourceAlpha" type="matrix" values="0 0 0 0 0 0 0 0 0 0 0 0 0 0 0 0 0 0 127 0" result="hardAlpha"/>
<feOffset dy="3.88601"/>
<feGaussianBlur stdDeviation="7.77202"/>
<feComposite in2="hardAlpha" operator="out"/>
<feColorMatrix type="matrix" values="0 0 0 0 0.945098 0 0 0 0 0.952941 0 0 0 0 0.956863 0 0 0 0.8 0"/>
<feBlend mode="normal" in2="BackgroundImageFix" result="effect1_dropShadow_3675_2121"/>
<feBlend mode="normal" in="SourceGraphic" in2="effect1_dropShadow_3675_2121" result="shape"/>
</filter>
<filter id="filter4_d_3675_2121" x="489.588" y="290.671" width="119.009" height="119.009" filterUnits="userSpaceOnUse" color-interpolation-filters="sRGB">
<feFlood flood-opacity="0" result="BackgroundImageFix"/>
<feColorMatrix in="SourceAlpha" type="matrix" values="0 0 0 0 0 0 0 0 0 0 0 0 0 0 0 0 0 0 127 0" result="hardAlpha"/>
<feOffset dy="4.53368"/>
<feGaussianBlur stdDeviation="9.06736"/>
<feComposite in2="hardAlpha" operator="out"/>
<feColorMatrix type="matrix" values="0 0 0 0 0.945098 0 0 0 0 0.952941 0 0 0 0 0.956863 0 0 0 0.8 0"/>
<feBlend mode="normal" in2="BackgroundImageFix" result="effect1_dropShadow_3675_2121"/>
<feBlend mode="normal" in="SourceGraphic" in2="effect1_dropShadow_3675_2121" result="shape"/>
</filter>
<filter id="filter5_d_3675_2121" x="393.581" y="157.034" width="110.509" height="110.509" filterUnits="userSpaceOnUse" color-interpolation-filters="sRGB">
<feFlood flood-opacity="0" result="BackgroundImageFix"/>
<feColorMatrix in="SourceAlpha" type="matrix" values="0 0 0 0 0 0 0 0 0 0 0 0 0 0 0 0 0 0 127 0" result="hardAlpha"/>
<feOffset dy="4.20984"/>
<feGaussianBlur stdDeviation="8.41969"/>
<feComposite in2="hardAlpha" operator="out"/>
<feColorMatrix type="matrix" values="0 0 0 0 0.945098 0 0 0 0 0.952941 0 0 0 0 0.956863 0 0 0 0.8 0"/>
<feBlend mode="normal" in2="BackgroundImageFix" result="effect1_dropShadow_3675_2121"/>
<feBlend mode="normal" in="SourceGraphic" in2="effect1_dropShadow_3675_2121" result="shape"/>
</filter>
<filter id="filter6_i_3675_2121" x="428.836" y="180.013" width="47.1675" height="48.1759" filterUnits="userSpaceOnUse" color-interpolation-filters="sRGB">
<feFlood flood-opacity="0" result="BackgroundImageFix"/>
<feBlend mode="normal" in="SourceGraphic" in2="BackgroundImageFix" result="shape"/>
<feColorMatrix in="SourceAlpha" type="matrix" values="0 0 0 0 0 0 0 0 0 0 0 0 0 0 0 0 0 0 127 0" result="hardAlpha"/>
<feOffset dx="6.52689" dy="-11.0957"/>
<feGaussianBlur stdDeviation="3.83455"/>
<feComposite in2="hardAlpha" operator="arithmetic" k2="-1" k3="1"/>
<feColorMatrix type="matrix" values="0 0 0 0 0.141176 0 0 0 0 0.705882 0 0 0 0 0.231373 0 0 0 1 0"/>
<feBlend mode="normal" in2="shape" result="effect1_innerShadow_3675_2121"/>
</filter>
<linearGradient id="paint0_linear_3675_2121" x1="337.5" y1="0.564453" x2="337.5" y2="625.435" gradientUnits="userSpaceOnUse">
<stop offset="0.2" stop-color="#007AEA" stop-opacity="0"/>
<stop offset="0.5" stop-color="#007AEA"/>
<stop offset="0.8" stop-color="#007AEA" stop-opacity="0"/>
</linearGradient>
<linearGradient id="paint1_linear_3675_2121" x1="187.167" y1="158.292" x2="161.665" y2="185.818" gradientUnits="userSpaceOnUse">
<stop stop-color="#37AEE2"/>
<stop offset="1" stop-color="#09739F"/>
</linearGradient>
<linearGradient id="paint2_linear_3675_2121" x1="167.957" y1="390.332" x2="153.84" y2="412.342" gradientUnits="userSpaceOnUse">
<stop stop-color="#FF6F62"/>
<stop offset="0.276042" stop-color="#F04D93"/>
<stop offset="0.588542" stop-color="#C740CB"/>
<stop offset="1" stop-color="#4D68FF"/>
</linearGradient>
<radialGradient id="paint3_radial_3675_2121" cx="0" cy="0" r="1" gradientUnits="userSpaceOnUse" gradientTransform="translate(538.756 371.803) rotate(-90) scale(44.9321 41.7904)">
<stop stop-color="#FFDD55"/>
<stop offset="0.1" stop-color="#FFDD55"/>
<stop offset="0.5" stop-color="#FF543E"/>
<stop offset="1" stop-color="#C837AB"/>
</radialGradient>
<radialGradient id="paint4_radial_3675_2121" cx="0" cy="0" r="1" gradientUnits="userSpaceOnUse" gradientTransform="translate(519.12 326.24) rotate(78.681) scale(20.0849 82.7906)">
<stop stop-color="#3771C8"/>
<stop offset="0.128" stop-color="#3771C8"/>
<stop offset="1" stop-color="#6600FF" stop-opacity="0"/>
</radialGradient>
<linearGradient id="paint5_linear_3675_2121" x1="2533.11" y1="4382.96" x2="2533.11" y2="187.029" gradientUnits="userSpaceOnUse">
<stop stop-color="#F9F9F9"/>
<stop offset="1" stop-color="white"/>
</linearGradient>
<clipPath id="clip0_3675_2121">
<rect width="51.8135" height="51.8135" fill="white" transform="translate(150.129 155.357)"/>
</clipPath>
<clipPath id="clip1_3675_2121">
<rect width="38.8601" height="38.8601" fill="white" transform="translate(140.406 390.332)"/>
</clipPath>
<clipPath id="clip2_3675_2121">
<rect width="45.3368" height="45.3368" fill="white" transform="translate(526.707 322.974)"/>
</clipPath>
<clipPath id="clip3_3675_2121">
<rect width="42.0984" height="42.0984" fill="white" transform="translate(428.188 187.029)"/>
</clipPath>
</defs>
</svg>
