<svg width="656" height="584" viewBox="0 0 656 584" fill="none" xmlns="http://www.w3.org/2000/svg">
<rect width="656" height="584" fill="white"/>
<g filter="url(#filter0_d_2379_3709)">
<circle cx="115" cy="121" r="32" fill="white"/>
<circle cx="115" cy="121" r="32.2222" stroke="#B5B5B5" stroke-width="0.444444"/>
</g>
<g clip-path="url(#clip0_2379_3709)">
<path d="M114.999 103.223C110.285 103.223 105.76 105.097 102.43 108.43C99.0955 111.764 97.2221 116.285 97.2212 121C97.2212 125.713 99.0962 130.238 102.43 133.571C105.76 136.904 110.285 138.778 114.999 138.778C119.713 138.778 124.238 136.904 127.568 133.571C130.902 130.238 132.777 125.713 132.777 121C132.777 116.287 130.902 111.762 127.568 108.43C124.238 105.097 119.713 103.223 114.999 103.223Z" fill="url(#paint0_linear_2379_3709)"/>
<path d="M105.268 120.813C110.452 118.555 113.907 117.066 115.635 116.347C120.574 114.294 121.599 113.937 122.268 113.925C122.416 113.923 122.743 113.959 122.957 114.132C123.135 114.278 123.185 114.475 123.21 114.613C123.232 114.752 123.263 115.067 123.238 115.313C122.971 118.124 121.813 124.946 121.224 128.094C120.977 129.427 120.485 129.873 120.01 129.917C118.977 130.012 118.193 129.235 117.193 128.579C115.629 127.554 114.746 126.915 113.227 125.914C111.471 124.758 112.61 124.122 113.61 123.083C113.871 122.811 118.421 118.674 118.507 118.298C118.518 118.251 118.529 118.076 118.424 117.984C118.321 117.892 118.168 117.923 118.057 117.948C117.899 117.984 115.402 119.636 110.557 122.905C109.849 123.392 109.207 123.629 108.629 123.617C107.996 123.603 106.774 123.258 105.866 122.963C104.754 122.601 103.868 122.41 103.946 121.795C103.985 121.475 104.427 121.148 105.268 120.813Z" fill="white"/>
</g>
<g filter="url(#filter1_d_2379_3709)">
<circle cx="115" cy="235" r="32" fill="white"/>
<circle cx="115" cy="235" r="32.2222" stroke="#B5B5B5" stroke-width="0.444444"/>
</g>
<g clip-path="url(#clip1_2379_3709)">
<path d="M115.111 217.222C105.097 217.222 97.3335 224.558 97.3335 234.466C97.3335 239.649 99.4575 244.128 102.917 247.221C103.207 247.481 103.382 247.845 103.394 248.235L103.491 251.397C103.522 252.406 104.564 253.062 105.487 252.655L109.016 251.097C109.315 250.965 109.65 250.94 109.965 251.027C111.587 251.473 113.312 251.71 115.111 251.71C125.126 251.71 132.889 244.375 132.889 234.466C132.889 224.557 125.126 217.222 115.111 217.222Z" fill="url(#paint1_linear_2379_3709)"/>
<path d="M104.439 239.509L109.661 231.224C110.492 229.906 112.271 229.578 113.517 230.513L117.671 233.628C117.856 233.767 118.082 233.842 118.314 233.841C118.546 233.841 118.771 233.764 118.956 233.624L124.565 229.367C125.314 228.799 126.291 229.695 125.79 230.49L120.568 238.775C119.737 240.093 117.958 240.421 116.712 239.487L112.558 236.371C112.373 236.232 112.147 236.157 111.915 236.158C111.683 236.159 111.458 236.235 111.273 236.375L105.664 240.632C104.915 241.2 103.938 240.305 104.439 239.509Z" fill="white"/>
</g>
<g filter="url(#filter2_d_2379_3709)">
<circle cx="115" cy="349" r="32" fill="white"/>
<circle cx="115" cy="349" r="32.2222" stroke="#B5B5B5" stroke-width="0.444444"/>
</g>
<g clip-path="url(#clip2_2379_3709)">
<g filter="url(#filter3_i_2379_3709)">
<path d="M98.2524 348.725C98.2516 351.713 99.0383 354.63 100.534 357.201L98.1094 365.985L107.169 363.628C109.675 364.982 112.483 365.691 115.336 365.691H115.344C124.762 365.691 132.429 358.086 132.433 348.739C132.435 344.209 130.659 339.95 127.432 336.746C124.206 333.542 119.915 331.776 115.343 331.774C105.923 331.774 98.2565 339.378 98.2526 348.725" fill="#57D163"/>
</g>
<path d="M97.7092 348.782C97.7082 351.877 98.523 354.898 100.072 357.561L97.5605 366.661L106.945 364.219C109.531 365.618 112.443 366.356 115.405 366.357H115.413C125.169 366.357 133.112 358.478 133.116 348.796C133.118 344.104 131.278 339.692 127.936 336.372C124.593 333.054 120.148 331.225 115.413 331.223C105.654 331.223 97.713 339.1 97.7092 348.782ZM103.298 357.103L102.948 356.551C101.475 354.227 100.697 351.541 100.698 348.783C100.701 340.736 107.302 334.188 115.418 334.188C119.349 334.19 123.043 335.71 125.821 338.469C128.599 341.228 130.128 344.895 130.127 348.795C130.123 356.843 123.523 363.391 115.413 363.391H115.407C112.766 363.389 110.176 362.686 107.918 361.356L107.38 361.04L101.811 362.489L103.298 357.103V357.103Z" fill="url(#paint2_linear_2379_3709)"/>
<path d="M110.99 341.441C110.658 340.71 110.31 340.695 109.995 340.683C109.736 340.672 109.441 340.672 109.147 340.672C108.852 340.672 108.372 340.782 107.967 341.221C107.562 341.661 106.419 342.722 106.419 344.882C106.419 347.041 108.004 349.128 108.225 349.421C108.446 349.714 111.285 354.287 115.781 356.046C119.518 357.508 120.278 357.218 121.089 357.144C121.9 357.071 123.707 356.083 124.075 355.058C124.444 354.033 124.444 353.155 124.333 352.971C124.223 352.788 123.928 352.679 123.485 352.459C123.043 352.24 120.868 351.178 120.463 351.031C120.057 350.885 119.762 350.812 119.467 351.251C119.172 351.69 118.325 352.679 118.067 352.971C117.809 353.265 117.551 353.301 117.109 353.082C116.666 352.861 115.241 352.399 113.551 350.903C112.236 349.74 111.349 348.303 111.09 347.864C110.832 347.425 111.063 347.187 111.285 346.968C111.483 346.772 111.727 346.456 111.949 346.2C112.169 345.943 112.243 345.761 112.39 345.468C112.538 345.175 112.464 344.919 112.354 344.699C112.243 344.479 111.383 342.309 110.99 341.441Z" fill="white"/>
</g>
<g filter="url(#filter4_d_2379_3709)">
<circle cx="115" cy="463" r="32" fill="white"/>
<circle cx="115" cy="463" r="32.2222" stroke="#B5B5B5" stroke-width="0.444444"/>
</g>
<g clip-path="url(#clip3_2379_3709)">
<path d="M124.672 445.222H105.784C101.181 445.222 97.4502 448.953 97.4502 453.556V472.444C97.4502 477.047 101.181 480.778 105.784 480.778H124.672C129.275 480.778 133.006 477.047 133.006 472.444V453.556C133.006 448.953 129.275 445.222 124.672 445.222Z" fill="url(#paint3_radial_2379_3709)"/>
<path d="M124.672 445.222H105.784C101.181 445.222 97.4502 448.953 97.4502 453.556V472.444C97.4502 477.047 101.181 480.778 105.784 480.778H124.672C129.275 480.778 133.006 477.047 133.006 472.444V453.556C133.006 448.953 129.275 445.222 124.672 445.222Z" fill="url(#paint4_radial_2379_3709)"/>
<path d="M115.229 449.111C111.458 449.111 110.984 449.128 109.503 449.195C108.024 449.263 107.015 449.497 106.132 449.84C105.218 450.195 104.443 450.67 103.671 451.442C102.899 452.214 102.424 452.989 102.068 453.902C101.724 454.785 101.489 455.795 101.423 457.273C101.357 458.755 101.339 459.228 101.339 463C101.339 466.772 101.356 467.244 101.423 468.726C101.491 470.204 101.725 471.214 102.069 472.097C102.424 473.01 102.898 473.785 103.67 474.557C104.442 475.33 105.217 475.806 106.13 476.16C107.014 476.504 108.023 476.738 109.501 476.806C110.983 476.873 111.456 476.889 115.228 476.889C119 476.889 119.472 476.873 120.954 476.806C122.432 476.738 123.443 476.504 124.326 476.16C125.239 475.806 126.013 475.33 126.785 474.557C127.558 473.785 128.032 473.01 128.388 472.097C128.729 471.214 128.964 470.204 129.033 468.726C129.1 467.245 129.117 466.772 129.117 463C129.117 459.228 129.1 458.755 129.033 457.273C128.964 455.795 128.729 454.786 128.388 453.903C128.032 452.989 127.558 452.214 126.785 451.442C126.012 450.67 125.24 450.195 124.325 449.841C123.44 449.497 122.43 449.263 120.952 449.195C119.47 449.128 118.998 449.111 115.225 449.111H115.229ZM113.984 451.614C114.353 451.614 114.766 451.614 115.229 451.614C118.938 451.614 119.377 451.628 120.842 451.694C122.196 451.756 122.931 451.982 123.421 452.172C124.069 452.424 124.531 452.725 125.017 453.211C125.503 453.697 125.804 454.16 126.056 454.809C126.246 455.297 126.473 456.032 126.534 457.387C126.601 458.851 126.615 459.29 126.615 462.997C126.615 466.704 126.601 467.144 126.534 468.608C126.472 469.962 126.246 470.697 126.056 471.186C125.804 471.834 125.503 472.296 125.017 472.781C124.531 473.268 124.069 473.568 123.421 473.82C122.932 474.011 122.196 474.237 120.842 474.299C119.378 474.365 118.938 474.38 115.229 474.38C111.521 474.38 111.081 474.365 109.617 474.299C108.263 474.236 107.528 474.01 107.038 473.82C106.39 473.568 105.927 473.267 105.441 472.781C104.955 472.295 104.654 471.833 104.402 471.185C104.211 470.696 103.985 469.961 103.923 468.607C103.857 467.142 103.843 466.703 103.843 462.994C103.843 459.285 103.857 458.847 103.923 457.383C103.985 456.029 104.211 455.294 104.402 454.804C104.653 454.156 104.955 453.693 105.441 453.207C105.927 452.721 106.39 452.42 107.038 452.168C107.528 451.977 108.263 451.751 109.617 451.689C110.899 451.631 111.395 451.614 113.984 451.611V451.614ZM122.643 453.92C121.723 453.92 120.977 454.666 120.977 455.586C120.977 456.507 121.723 457.253 122.643 457.253C123.564 457.253 124.31 456.507 124.31 455.586C124.31 454.666 123.564 453.92 122.643 453.92V453.92ZM115.229 455.868C111.291 455.868 108.097 459.061 108.097 463C108.097 466.939 111.291 470.131 115.229 470.131C119.169 470.131 122.361 466.939 122.361 463C122.361 459.061 119.168 455.868 115.229 455.868H115.229ZM115.229 458.371C117.786 458.371 119.859 460.443 119.859 463C119.859 465.557 117.786 467.63 115.229 467.63C112.673 467.63 110.6 465.557 110.6 463C110.6 460.443 112.673 458.371 115.229 458.371Z" fill="white"/>
</g>
<ellipse cx="395" cy="289" rx="24" ry="22" fill="#E4CCFF"/>
<path d="M367 289H219C205.745 289 195 278.255 195 265L195 145C195 131.745 184.255 121 171 121H151" stroke="#007AEA" stroke-linecap="round" stroke-linejoin="bevel"/>
<path d="M367 289H219C205.745 289 195 278.255 195 265V259C195 245.745 184.255 235 171 235H151" stroke="#007AEA" stroke-linecap="round" stroke-linejoin="bevel"/>
<path d="M367 289H219C205.745 289 195 299.745 195 313L195 325C195 338.255 184.255 349 171 349H151" stroke="#007AEA" stroke-linecap="round" stroke-linejoin="bevel"/>
<path d="M367 289H219C205.745 289 195 299.745 195 313L195 439C195 452.255 184.255 463 171 463H151" stroke="#007AEA" stroke-linecap="round" stroke-linejoin="bevel"/>
<g filter="url(#filter5_d_2379_3709)">
<g clip-path="url(#clip4_2379_3709)">
<rect x="271" y="44" width="276" height="497" rx="20" fill="white"/>
<g clip-path="url(#clip5_2379_3709)">
<rect width="104.267" height="18.4" transform="translate(356.867 522.933)" fill="#F8F8F8"/>
<line x1="356.867" y1="534.433" x2="461.133" y2="534.433" stroke="black" stroke-width="1.53333"/>
</g>
<rect width="276" height="45" transform="translate(271 44)" fill="#007AEA"/>
<path d="M298.11 72.79H300.527C300.462 73.6455 300.225 74.4043 299.815 75.0664C299.405 75.7227 298.833 76.2383 298.101 76.6133C297.369 76.9883 296.481 77.1758 295.438 77.1758C294.635 77.1758 293.912 77.0352 293.267 76.7539C292.628 76.4668 292.081 76.0596 291.624 75.5322C291.172 74.999 290.827 74.3604 290.586 73.6162C290.346 72.8662 290.226 72.0254 290.226 71.0938V70.1182C290.226 69.1865 290.349 68.3457 290.595 67.5957C290.841 66.8457 291.193 66.207 291.65 65.6797C292.113 65.1465 292.667 64.7363 293.311 64.4492C293.961 64.1621 294.688 64.0186 295.491 64.0186C296.534 64.0186 297.416 64.2119 298.136 64.5986C298.857 64.9795 299.417 65.5039 299.815 66.1719C300.213 66.8398 300.454 67.6074 300.536 68.4746H298.119C298.072 67.9355 297.955 67.4785 297.767 67.1035C297.585 66.7285 297.31 66.4443 296.941 66.251C296.578 66.0518 296.094 65.9521 295.491 65.9521C295.022 65.9521 294.609 66.04 294.251 66.2158C293.9 66.3916 293.607 66.6553 293.373 67.0068C293.138 67.3525 292.962 67.7861 292.845 68.3076C292.728 68.8232 292.669 69.4209 292.669 70.1006V71.0938C292.669 71.7441 292.722 72.3271 292.828 72.8428C292.933 73.3584 293.097 73.7949 293.32 74.1523C293.542 74.5098 293.83 74.7822 294.181 74.9697C294.533 75.1572 294.952 75.251 295.438 75.251C296.03 75.251 296.51 75.1572 296.879 74.9697C297.254 74.7822 297.539 74.5068 297.732 74.1436C297.931 73.7803 298.057 73.3291 298.11 72.79ZM304.5 63.5V77H302.17V63.5H304.5ZM304.13 71.9023H303.445C303.445 71.2402 303.533 70.6309 303.708 70.0742C303.884 69.5176 304.133 69.0342 304.456 68.624C304.778 68.208 305.162 67.8857 305.607 67.6572C306.058 67.4287 306.556 67.3145 307.101 67.3145C307.57 67.3145 307.995 67.3818 308.375 67.5166C308.762 67.6455 309.093 67.8535 309.369 68.1406C309.644 68.4277 309.855 68.8027 310.001 69.2656C310.154 69.7227 310.23 70.2793 310.23 70.9355V77H307.892V70.918C307.892 70.4785 307.828 70.1328 307.699 69.8809C307.57 69.623 307.385 69.4385 307.145 69.3271C306.911 69.2158 306.621 69.1602 306.275 69.1602C305.9 69.1602 305.578 69.2334 305.308 69.3799C305.039 69.5205 304.816 69.7168 304.64 69.9688C304.47 70.2207 304.341 70.5107 304.253 70.8389C304.171 71.167 304.13 71.5215 304.13 71.9023ZM317.516 74.9785V70.5928C317.516 70.2705 317.46 69.9922 317.349 69.7578C317.238 69.5234 317.068 69.3418 316.839 69.2129C316.611 69.084 316.321 69.0195 315.969 69.0195C315.659 69.0195 315.386 69.0723 315.152 69.1777C314.923 69.2832 314.748 69.4326 314.625 69.626C314.501 69.8135 314.44 70.0303 314.44 70.2764H312.111C312.111 69.8838 312.205 69.5117 312.392 69.1602C312.58 68.8027 312.846 68.4863 313.192 68.2109C313.543 67.9297 313.962 67.71 314.449 67.5518C314.941 67.3936 315.492 67.3145 316.101 67.3145C316.822 67.3145 317.463 67.4375 318.026 67.6836C318.594 67.9238 319.04 68.2871 319.362 68.7734C319.69 69.2598 319.854 69.8721 319.854 70.6104V74.7588C319.854 75.2334 319.883 75.6406 319.942 75.9805C320.006 76.3145 320.1 76.6045 320.223 76.8506V77H317.859C317.748 76.7598 317.663 76.4551 317.604 76.0859C317.545 75.7109 317.516 75.3418 317.516 74.9785ZM317.841 71.208L317.859 72.5879H316.391C316.028 72.5879 315.708 72.626 315.433 72.7021C315.158 72.7725 314.932 72.8779 314.756 73.0186C314.581 73.1533 314.449 73.3174 314.361 73.5107C314.273 73.6982 314.229 73.9121 314.229 74.1523C314.229 74.3867 314.282 74.5977 314.387 74.7852C314.499 74.9727 314.657 75.1221 314.862 75.2334C315.073 75.3389 315.319 75.3916 315.6 75.3916C316.01 75.3916 316.368 75.3096 316.672 75.1455C316.977 74.9756 317.214 74.7705 317.384 74.5303C317.554 74.29 317.645 74.0615 317.657 73.8447L318.325 74.8467C318.243 75.0869 318.12 75.3418 317.956 75.6113C317.792 75.8809 317.581 76.1328 317.323 76.3672C317.065 76.6016 316.754 76.7949 316.391 76.9473C316.028 77.0996 315.606 77.1758 315.125 77.1758C314.51 77.1758 313.959 77.0527 313.473 76.8066C312.987 76.5605 312.603 76.2236 312.322 75.7959C312.041 75.3682 311.9 74.8818 311.9 74.3369C311.9 73.833 311.994 73.3877 312.181 73.001C312.369 72.6143 312.647 72.2891 313.016 72.0254C313.385 71.7559 313.842 71.5537 314.387 71.4189C314.938 71.2783 315.568 71.208 316.277 71.208H317.841ZM326.446 67.4902V69.1602H320.997V67.4902H326.446ZM322.456 65.1523H324.785V74.2578C324.785 74.5391 324.823 74.7559 324.899 74.9082C324.975 75.0605 325.089 75.1631 325.242 75.2158C325.394 75.2686 325.576 75.2949 325.787 75.2949C325.939 75.2949 326.08 75.2861 326.208 75.2686C326.337 75.251 326.446 75.2334 326.534 75.2158L326.542 76.9561C326.349 77.0205 326.129 77.0732 325.883 77.1143C325.643 77.1553 325.371 77.1758 325.066 77.1758C324.544 77.1758 324.087 77.0879 323.695 76.9121C323.302 76.7305 322.998 76.4404 322.781 76.042C322.564 75.6377 322.456 75.1045 322.456 74.4424V65.1523ZM333.222 74.3984C333.222 74.1992 333.169 74.0205 333.064 73.8623C332.958 73.7041 332.759 73.5605 332.466 73.4316C332.179 73.2969 331.757 73.1709 331.201 73.0537C330.708 72.9482 330.254 72.8164 329.838 72.6582C329.422 72.5 329.065 72.3096 328.766 72.0869C328.467 71.8584 328.233 71.5918 328.063 71.2871C327.899 70.9766 327.817 70.6191 327.817 70.2148C327.817 69.8223 327.902 69.4531 328.072 69.1074C328.242 68.7559 328.488 68.4482 328.81 68.1846C329.132 67.915 329.525 67.7041 329.988 67.5518C330.451 67.3936 330.972 67.3145 331.552 67.3145C332.361 67.3145 333.055 67.4463 333.635 67.71C334.221 67.9736 334.669 68.3369 334.98 68.7998C335.291 69.2568 335.446 69.7725 335.446 70.3467H333.125C333.125 70.0947 333.067 69.8662 332.95 69.6611C332.838 69.4561 332.666 69.292 332.431 69.1689C332.197 69.04 331.901 68.9756 331.543 68.9756C331.221 68.9756 330.949 69.0283 330.726 69.1338C330.509 69.2393 330.345 69.377 330.234 69.5469C330.123 69.7168 330.067 69.9043 330.067 70.1094C330.067 70.2617 330.096 70.3994 330.155 70.5225C330.219 70.6396 330.322 70.748 330.462 70.8477C330.603 70.9473 330.793 71.0381 331.034 71.1201C331.28 71.2021 331.582 71.2812 331.939 71.3574C332.648 71.498 333.266 71.6855 333.793 71.9199C334.327 72.1484 334.743 72.4531 335.042 72.834C335.34 73.2148 335.49 73.7012 335.49 74.293C335.49 74.7148 335.399 75.1016 335.217 75.4531C335.036 75.7988 334.772 76.1006 334.426 76.3584C334.081 76.6162 333.667 76.8184 333.187 76.9648C332.707 77.1055 332.165 77.1758 331.561 77.1758C330.688 77.1758 329.95 77.0205 329.346 76.71C328.743 76.3936 328.286 75.9951 327.975 75.5146C327.665 75.0283 327.509 74.5244 327.509 74.0029H329.733C329.75 74.3721 329.85 74.668 330.032 74.8906C330.213 75.1133 330.442 75.2744 330.717 75.374C330.999 75.4678 331.294 75.5146 331.605 75.5146C331.957 75.5146 332.252 75.4678 332.493 75.374C332.733 75.2744 332.915 75.1426 333.038 74.9785C333.161 74.8086 333.222 74.6152 333.222 74.3984Z" fill="white"/>
<g clip-path="url(#clip6_2379_3709)">
<path d="M519.4 63.5996C518.556 63.5996 517.866 64.2896 517.866 65.1329C517.866 65.9763 518.556 66.6663 519.4 66.6663C520.243 66.6663 520.933 65.9763 520.933 65.1329C520.933 64.2896 520.243 63.5996 519.4 63.5996ZM519.4 74.3329C518.556 74.3329 517.866 75.0229 517.866 75.8663C517.866 76.7096 518.556 77.3996 519.4 77.3996C520.243 77.3996 520.933 76.7096 520.933 75.8663C520.933 75.0229 520.243 74.3329 519.4 74.3329ZM519.4 68.9663C518.556 68.9663 517.866 69.6563 517.866 70.4996C517.866 71.3429 518.556 72.0329 519.4 72.0329C520.243 72.0329 520.933 71.3429 520.933 70.4996C520.933 69.6563 520.243 68.9663 519.4 68.9663Z" fill="white"/>
</g>
<mask id="path-28-inside-1_2379_3709" fill="white">
<path d="M280 89.2305H538V155.384H280V89.2305Z"/>
</mask>
<path d="M538 154.906H280V155.862H538V154.906Z" fill="#D9D9D9" mask="url(#path-28-inside-1_2379_3709)"/>
<circle cx="299.847" cy="122.308" r="20.9093" fill="#D9D9D9" stroke="white" stroke-width="2.12637"/>
<mask id="mask0_2379_3709" style="mask-type:alpha" maskUnits="userSpaceOnUse" x="280" y="102" width="40" height="41">
<circle cx="299.846" cy="122.308" r="19.8462" fill="#F6F6F6"/>
</mask>
<g mask="url(#mask0_2379_3709)">
<path d="M300.241 128.624C304.352 128.624 307.683 125.293 307.683 121.182C307.683 117.071 304.352 113.74 300.241 113.74C296.13 113.74 292.799 117.071 292.799 121.182C292.799 125.293 296.13 128.624 300.241 128.624ZM305.45 130.485H304.479C303.189 131.078 301.753 131.415 300.241 131.415C298.729 131.415 297.299 131.078 296.002 130.485H295.031C290.717 130.485 287.217 133.985 287.217 138.299V140.718C287.217 142.259 288.467 143.509 290.008 143.509H310.474C312.015 143.509 313.265 142.259 313.265 140.718V138.299C313.265 133.985 309.765 130.485 305.45 130.485Z" fill="#FAFAFA"/>
</g>
<rect opacity="0.56" x="326.308" y="114.5" width="85" height="5" rx="2" fill="#D9D9D9" fill-opacity="0.6"/>
<rect opacity="0.56" x="326.308" y="126.115" width="126" height="4" rx="2" fill="#D9D9D9" fill-opacity="0.6"/>
<path d="M527.675 107.06V103.758H528.072V107.06C528.072 107.376 528.009 107.643 527.885 107.861C527.762 108.078 527.594 108.244 527.381 108.358C527.167 108.47 526.924 108.526 526.651 108.526C526.371 108.526 526.123 108.476 525.908 108.377C525.694 108.278 525.529 108.129 525.41 107.928C525.292 107.726 525.233 107.471 525.233 107.163H525.63C525.63 107.389 525.67 107.579 525.749 107.731C525.831 107.882 525.949 107.996 526.101 108.074C526.254 108.149 526.437 108.187 526.651 108.187C526.842 108.187 527.015 108.145 527.167 108.061C527.322 107.975 527.445 107.849 527.536 107.683C527.628 107.515 527.675 107.307 527.675 107.06ZM531.389 107.654V104.966H531.777V108.461H531.405L531.389 107.654ZM531.46 107.008L531.661 107.001C531.661 107.221 531.635 107.423 531.583 107.609C531.531 107.794 531.451 107.955 531.341 108.093C531.231 108.231 531.089 108.338 530.914 108.413C530.74 108.488 530.53 108.526 530.285 108.526C530.114 108.526 529.958 108.502 529.816 108.455C529.676 108.405 529.556 108.328 529.454 108.222C529.353 108.117 529.275 107.98 529.219 107.812C529.165 107.644 529.138 107.441 529.138 107.202V104.966H529.522V107.208C529.522 107.395 529.543 107.552 529.584 107.676C529.627 107.801 529.685 107.902 529.758 107.977C529.833 108.052 529.92 108.106 530.016 108.138C530.113 108.171 530.218 108.187 530.33 108.187C530.614 108.187 530.838 108.132 531.002 108.022C531.167 107.912 531.285 107.768 531.354 107.589C531.425 107.408 531.46 107.215 531.46 107.008ZM534.881 107.57C534.881 107.475 534.857 107.381 534.81 107.289C534.763 107.196 534.671 107.111 534.535 107.034C534.402 106.956 534.205 106.89 533.944 106.837C533.751 106.794 533.577 106.745 533.424 106.691C533.274 106.637 533.146 106.573 533.043 106.497C532.94 106.422 532.861 106.332 532.807 106.226C532.753 106.121 532.727 105.996 532.727 105.851C532.727 105.722 532.755 105.601 532.811 105.486C532.869 105.37 532.951 105.269 533.056 105.183C533.164 105.095 533.293 105.026 533.444 104.976C533.597 104.927 533.768 104.902 533.957 104.902C534.226 104.902 534.457 104.948 534.649 105.041C534.842 105.131 534.99 105.255 535.091 105.412C535.194 105.569 535.246 105.747 535.246 105.945H534.862C534.862 105.825 534.826 105.71 534.755 105.603C534.686 105.495 534.584 105.407 534.448 105.338C534.315 105.269 534.151 105.234 533.957 105.234C533.757 105.234 533.594 105.265 533.47 105.325C533.345 105.385 533.253 105.462 533.195 105.554C533.139 105.647 533.111 105.743 533.111 105.842C533.111 105.919 533.123 105.99 533.146 106.055C533.172 106.117 533.218 106.176 533.282 106.229C533.349 106.283 533.444 106.334 533.566 106.381C533.689 106.429 533.849 106.475 534.044 106.52C534.327 106.583 534.557 106.659 534.736 106.749C534.917 106.838 535.05 106.948 535.136 107.079C535.222 107.208 535.265 107.365 535.265 107.551C535.265 107.695 535.235 107.827 535.175 107.948C535.115 108.066 535.028 108.169 534.913 108.255C534.801 108.341 534.666 108.408 534.506 108.455C534.349 108.502 534.173 108.526 533.977 108.526C533.682 108.526 533.432 108.478 533.227 108.381C533.025 108.282 532.871 108.152 532.765 107.993C532.662 107.832 532.61 107.66 532.61 107.479H532.995C533.008 107.66 533.065 107.804 533.166 107.909C533.267 108.012 533.391 108.086 533.537 108.129C533.686 108.172 533.832 108.193 533.977 108.193C534.175 108.193 534.341 108.164 534.474 108.106C534.608 108.048 534.709 107.972 534.778 107.877C534.847 107.782 534.881 107.68 534.881 107.57ZM537.462 104.966V105.283H535.711V104.966H537.462ZM536.354 104.068H536.738V107.612C536.738 107.773 536.76 107.895 536.803 107.977C536.846 108.059 536.902 108.114 536.971 108.142C537.04 108.17 537.114 108.184 537.194 108.184C537.252 108.184 537.308 108.18 537.362 108.174C537.416 108.165 537.464 108.157 537.507 108.148L537.523 108.474C537.476 108.489 537.415 108.501 537.339 108.51C537.264 108.521 537.189 108.526 537.113 108.526C536.965 108.526 536.833 108.499 536.719 108.445C536.605 108.389 536.516 108.295 536.451 108.161C536.386 108.025 536.354 107.841 536.354 107.609V104.068Z" fill="#636363"/>
<circle cx="531.384" cy="129.75" r="6.61538" fill="#007AEA"/>
<path d="M530.257 127.652V131.199H529.809V128.212L528.905 128.542V128.137L530.187 127.652H530.257ZM533.886 130.831V131.199H531.577V130.877L532.733 129.591C532.875 129.432 532.985 129.298 533.062 129.188C533.141 129.077 533.196 128.978 533.227 128.89C533.259 128.802 533.275 128.711 533.275 128.619C533.275 128.503 533.251 128.398 533.203 128.304C533.156 128.209 533.086 128.133 532.994 128.076C532.902 128.02 532.791 127.992 532.66 127.992C532.503 127.992 532.373 128.022 532.268 128.084C532.164 128.143 532.087 128.227 532.035 128.336C531.983 128.444 531.958 128.568 531.958 128.709H531.509C531.509 128.51 531.553 128.328 531.64 128.164C531.727 127.999 531.857 127.868 532.028 127.771C532.199 127.673 532.41 127.623 532.66 127.623C532.883 127.623 533.074 127.663 533.232 127.742C533.39 127.82 533.511 127.929 533.595 128.072C533.681 128.212 533.724 128.377 533.724 128.566C533.724 128.669 533.706 128.774 533.67 128.881C533.636 128.986 533.589 129.091 533.527 129.196C533.468 129.301 533.397 129.404 533.317 129.506C533.237 129.608 533.153 129.708 533.062 129.806L532.117 130.831H533.886Z" fill="white"/>
<mask id="path-38-inside-2_2379_3709" fill="white">
<path d="M280 162H538V228.153H280V162Z"/>
</mask>
<path d="M538 227.675H280V228.631H538V227.675Z" fill="#D9D9D9" mask="url(#path-38-inside-2_2379_3709)"/>
<circle cx="299.847" cy="195.077" r="20.9093" fill="#D9D9D9" stroke="white" stroke-width="2.12637"/>
<mask id="mask1_2379_3709" style="mask-type:alpha" maskUnits="userSpaceOnUse" x="280" y="175" width="40" height="40">
<circle cx="299.846" cy="195.077" r="19.8462" fill="#F6F6F6"/>
</mask>
<g mask="url(#mask1_2379_3709)">
<path d="M300.241 201.393C304.352 201.393 307.683 198.062 307.683 193.951C307.683 189.84 304.352 186.509 300.241 186.509C296.13 186.509 292.799 189.84 292.799 193.951C292.799 198.062 296.13 201.393 300.241 201.393ZM305.45 203.254H304.479C303.189 203.847 301.753 204.184 300.241 204.184C298.729 204.184 297.299 203.847 296.002 203.254H295.031C290.717 203.254 287.217 206.754 287.217 211.068V213.487C287.217 215.028 288.467 216.278 290.008 216.278H310.474C312.015 216.278 313.265 215.028 313.265 213.487V211.068C313.265 206.754 309.765 203.254 305.45 203.254Z" fill="#FAFAFA"/>
</g>
<rect opacity="0.56" x="326.308" y="187.269" width="85" height="5" rx="2" fill="#D9D9D9" fill-opacity="0.6"/>
<rect opacity="0.56" x="326.308" y="198.884" width="126" height="4" rx="2" fill="#D9D9D9" fill-opacity="0.6"/>
<path d="M527.675 179.829V176.527H528.072V179.829C528.072 180.145 528.009 180.412 527.885 180.63C527.762 180.847 527.594 181.013 527.381 181.127C527.167 181.239 526.924 181.295 526.651 181.295C526.371 181.295 526.123 181.246 525.908 181.146C525.694 181.047 525.529 180.898 525.41 180.697C525.292 180.495 525.233 180.24 525.233 179.932H525.63C525.63 180.158 525.67 180.348 525.749 180.5C525.831 180.651 525.949 180.765 526.101 180.843C526.254 180.918 526.437 180.956 526.651 180.956C526.842 180.956 527.015 180.914 527.167 180.83C527.322 180.744 527.445 180.618 527.536 180.452C527.628 180.284 527.675 180.076 527.675 179.829ZM531.389 180.423V177.735H531.777V181.23H531.405L531.389 180.423ZM531.46 179.777L531.661 179.77C531.661 179.99 531.635 180.193 531.583 180.378C531.531 180.563 531.451 180.724 531.341 180.862C531.231 181 531.089 181.107 530.914 181.182C530.74 181.257 530.53 181.295 530.285 181.295C530.114 181.295 529.958 181.271 529.816 181.224C529.676 181.174 529.556 181.097 529.454 180.991C529.353 180.886 529.275 180.749 529.219 180.581C529.165 180.413 529.138 180.21 529.138 179.971V177.735H529.522V179.977C529.522 180.165 529.543 180.321 529.584 180.446C529.627 180.57 529.685 180.671 529.758 180.746C529.833 180.821 529.92 180.875 530.016 180.907C530.113 180.94 530.218 180.956 530.33 180.956C530.614 180.956 530.838 180.901 531.002 180.791C531.167 180.681 531.285 180.537 531.354 180.358C531.425 180.177 531.46 179.984 531.46 179.777ZM534.881 180.339C534.881 180.244 534.857 180.151 534.81 180.058C534.763 179.965 534.671 179.88 534.535 179.803C534.402 179.725 534.205 179.66 533.944 179.606C533.751 179.563 533.577 179.514 533.424 179.46C533.274 179.407 533.146 179.342 533.043 179.267C532.94 179.191 532.861 179.101 532.807 178.995C532.753 178.89 532.727 178.765 532.727 178.62C532.727 178.491 532.755 178.37 532.811 178.255C532.869 178.139 532.951 178.038 533.056 177.952C533.164 177.864 533.293 177.795 533.444 177.745C533.597 177.696 533.768 177.671 533.957 177.671C534.226 177.671 534.457 177.717 534.649 177.81C534.842 177.9 534.99 178.024 535.091 178.181C535.194 178.338 535.246 178.516 535.246 178.714H534.862C534.862 178.594 534.826 178.479 534.755 178.372C534.686 178.264 534.584 178.176 534.448 178.107C534.315 178.038 534.151 178.004 533.957 178.004C533.757 178.004 533.594 178.034 533.47 178.094C533.345 178.154 533.253 178.231 533.195 178.323C533.139 178.416 533.111 178.512 533.111 178.611C533.111 178.688 533.123 178.759 533.146 178.824C533.172 178.886 533.218 178.945 533.282 178.998C533.349 179.052 533.444 179.103 533.566 179.15C533.689 179.198 533.849 179.244 534.044 179.289C534.327 179.352 534.557 179.428 534.736 179.518C534.917 179.607 535.05 179.717 535.136 179.848C535.222 179.977 535.265 180.134 535.265 180.32C535.265 180.464 535.235 180.596 535.175 180.717C535.115 180.835 535.028 180.938 534.913 181.024C534.801 181.11 534.666 181.177 534.506 181.224C534.349 181.271 534.173 181.295 533.977 181.295C533.682 181.295 533.432 181.247 533.227 181.15C533.025 181.051 532.871 180.921 532.765 180.762C532.662 180.601 532.61 180.429 532.61 180.248H532.995C533.008 180.429 533.065 180.573 533.166 180.678C533.267 180.781 533.391 180.855 533.537 180.898C533.686 180.941 533.832 180.962 533.977 180.962C534.175 180.962 534.341 180.933 534.474 180.875C534.608 180.817 534.709 180.741 534.778 180.646C534.847 180.551 534.881 180.449 534.881 180.339ZM537.462 177.735V178.052H535.711V177.735H537.462ZM536.354 176.837H536.738V180.381C536.738 180.542 536.76 180.664 536.803 180.746C536.846 180.828 536.902 180.883 536.971 180.911C537.04 180.939 537.114 180.953 537.194 180.953C537.252 180.953 537.308 180.949 537.362 180.943C537.416 180.934 537.464 180.926 537.507 180.917L537.523 181.243C537.476 181.258 537.415 181.27 537.339 181.279C537.264 181.29 537.189 181.295 537.113 181.295C536.965 181.295 536.833 181.268 536.719 181.214C536.605 181.158 536.516 181.064 536.451 180.93C536.386 180.794 536.354 180.61 536.354 180.378V176.837Z" fill="#636363"/>
<mask id="path-46-inside-3_2379_3709" fill="white">
<path d="M280 234.769H538V300.923H280V234.769Z"/>
</mask>
<path d="M538 300.445H280V301.401H538V300.445Z" fill="#D9D9D9" mask="url(#path-46-inside-3_2379_3709)"/>
<circle cx="299.847" cy="267.846" r="20.9093" fill="#D9D9D9" stroke="white" stroke-width="2.12637"/>
<mask id="mask2_2379_3709" style="mask-type:alpha" maskUnits="userSpaceOnUse" x="280" y="248" width="40" height="40">
<circle cx="299.846" cy="267.846" r="19.8462" fill="#F6F6F6"/>
</mask>
<g mask="url(#mask2_2379_3709)">
<path d="M300.241 274.163C304.352 274.163 307.683 270.831 307.683 266.721C307.683 262.61 304.352 259.278 300.241 259.278C296.13 259.278 292.799 262.61 292.799 266.721C292.799 270.831 296.13 274.163 300.241 274.163ZM305.45 276.024H304.479C303.189 276.617 301.753 276.954 300.241 276.954C298.729 276.954 297.299 276.617 296.002 276.024H295.031C290.717 276.024 287.217 279.524 287.217 283.838V286.257C287.217 287.797 288.467 289.048 290.008 289.048H310.474C312.015 289.048 313.265 287.797 313.265 286.257V283.838C313.265 279.524 309.765 276.024 305.45 276.024Z" fill="#FAFAFA"/>
</g>
<rect opacity="0.56" x="326.308" y="260.039" width="85" height="5" rx="2" fill="#D9D9D9" fill-opacity="0.6"/>
<rect opacity="0.56" x="326.308" y="271.654" width="126" height="4" rx="2" fill="#D9D9D9" fill-opacity="0.6"/>
<path d="M527.675 252.598V249.297H528.072V252.598C528.072 252.915 528.009 253.182 527.885 253.399C527.762 253.617 527.594 253.783 527.381 253.897C527.167 254.009 526.924 254.065 526.651 254.065C526.371 254.065 526.123 254.015 525.908 253.916C525.694 253.817 525.529 253.667 525.41 253.467C525.292 253.265 525.233 253.009 525.233 252.701H525.63C525.63 252.928 525.67 253.117 525.749 253.27C525.831 253.421 525.949 253.535 526.101 253.612C526.254 253.688 526.437 253.725 526.651 253.725C526.842 253.725 527.015 253.683 527.167 253.599C527.322 253.513 527.445 253.387 527.536 253.222C527.628 253.054 527.675 252.846 527.675 252.598ZM531.389 253.192V250.505H531.777V254H531.405L531.389 253.192ZM531.46 252.546L531.661 252.54C531.661 252.76 531.635 252.962 531.583 253.147C531.531 253.332 531.451 253.494 531.341 253.632C531.231 253.77 531.089 253.876 530.914 253.952C530.74 254.027 530.53 254.065 530.285 254.065C530.114 254.065 529.958 254.041 529.816 253.994C529.676 253.944 529.556 253.866 529.454 253.761C529.353 253.655 529.275 253.519 529.219 253.351C529.165 253.183 529.138 252.979 529.138 252.74V250.505H529.522V252.747C529.522 252.934 529.543 253.09 529.584 253.215C529.627 253.34 529.685 253.44 529.758 253.515C529.833 253.591 529.92 253.645 530.016 253.677C530.113 253.709 530.218 253.725 530.33 253.725C530.614 253.725 530.838 253.671 531.002 253.561C531.167 253.451 531.285 253.307 531.354 253.128C531.425 252.947 531.46 252.753 531.46 252.546ZM534.881 253.108C534.881 253.014 534.857 252.92 534.81 252.827C534.763 252.735 534.671 252.65 534.535 252.572C534.402 252.495 534.205 252.429 533.944 252.375C533.751 252.332 533.577 252.284 533.424 252.23C533.274 252.176 533.146 252.111 533.043 252.036C532.94 251.961 532.861 251.87 532.807 251.765C532.753 251.659 532.727 251.534 532.727 251.39C532.727 251.261 532.755 251.139 532.811 251.025C532.869 250.909 532.951 250.808 533.056 250.721C533.164 250.633 533.293 250.564 533.444 250.515C533.597 250.465 533.768 250.44 533.957 250.44C534.226 250.44 534.457 250.487 534.649 250.579C534.842 250.67 534.99 250.794 535.091 250.951C535.194 251.108 535.246 251.286 535.246 251.484H534.862C534.862 251.363 534.826 251.249 534.755 251.141C534.686 251.034 534.584 250.945 534.448 250.876C534.315 250.808 534.151 250.773 533.957 250.773C533.757 250.773 533.594 250.803 533.47 250.864C533.345 250.924 533.253 251 533.195 251.093C533.139 251.185 533.111 251.281 533.111 251.38C533.111 251.458 533.123 251.529 533.146 251.594C533.172 251.656 533.218 251.714 533.282 251.768C533.349 251.822 533.444 251.872 533.566 251.92C533.689 251.967 533.849 252.013 534.044 252.059C534.327 252.121 534.557 252.198 534.736 252.288C534.917 252.376 535.05 252.486 535.136 252.617C535.222 252.747 535.265 252.904 535.265 253.089C535.265 253.233 535.235 253.366 535.175 253.486C535.115 253.605 535.028 253.707 534.913 253.793C534.801 253.879 534.666 253.946 534.506 253.994C534.349 254.041 534.173 254.065 533.977 254.065C533.682 254.065 533.432 254.016 533.227 253.919C533.025 253.82 532.871 253.691 532.765 253.532C532.662 253.37 532.61 253.199 532.61 253.018H532.995C533.008 253.199 533.065 253.342 533.166 253.448C533.267 253.551 533.391 253.624 533.537 253.667C533.686 253.71 533.832 253.732 533.977 253.732C534.175 253.732 534.341 253.703 534.474 253.645C534.608 253.587 534.709 253.51 534.778 253.415C534.847 253.321 534.881 253.218 534.881 253.108ZM537.462 250.505V250.822H535.711V250.505H537.462ZM536.354 249.607H536.738V253.15C536.738 253.312 536.76 253.434 536.803 253.515C536.846 253.597 536.902 253.652 536.971 253.68C537.04 253.708 537.114 253.722 537.194 253.722C537.252 253.722 537.308 253.719 537.362 253.713C537.416 253.704 537.464 253.695 537.507 253.687L537.523 254.013C537.476 254.028 537.415 254.04 537.339 254.048C537.264 254.059 537.189 254.065 537.113 254.065C536.965 254.065 536.833 254.038 536.719 253.984C536.605 253.928 536.516 253.833 536.451 253.7C536.386 253.564 536.354 253.38 536.354 253.147V249.607Z" fill="#636363"/>
<mask id="path-54-inside-4_2379_3709" fill="white">
<path d="M280 307.538H538V373.692H280V307.538Z"/>
</mask>
<path d="M538 373.214H280V374.17H538V373.214Z" fill="#D9D9D9" mask="url(#path-54-inside-4_2379_3709)"/>
<circle cx="299.847" cy="340.614" r="20.9093" fill="#D9D9D9" stroke="white" stroke-width="2.12637"/>
<mask id="mask3_2379_3709" style="mask-type:alpha" maskUnits="userSpaceOnUse" x="280" y="320" width="40" height="41">
<circle cx="299.846" cy="340.614" r="19.8462" fill="#F6F6F6"/>
</mask>
<g mask="url(#mask3_2379_3709)">
<path d="M300.241 346.931C304.352 346.931 307.683 343.6 307.683 339.489C307.683 335.378 304.352 332.047 300.241 332.047C296.13 332.047 292.799 335.378 292.799 339.489C292.799 343.6 296.13 346.931 300.241 346.931ZM305.45 348.792H304.479C303.189 349.385 301.753 349.722 300.241 349.722C298.729 349.722 297.299 349.385 296.002 348.792H295.031C290.717 348.792 287.217 352.292 287.217 356.606V359.025C287.217 360.566 288.467 361.816 290.008 361.816H310.474C312.015 361.816 313.265 360.566 313.265 359.025V356.606C313.265 352.292 309.765 348.792 305.45 348.792Z" fill="#FAFAFA"/>
</g>
<rect opacity="0.56" x="326.308" y="332.807" width="85" height="5" rx="2" fill="#D9D9D9" fill-opacity="0.6"/>
<rect opacity="0.56" x="326.308" y="344.422" width="126" height="4" rx="2" fill="#D9D9D9" fill-opacity="0.6"/>
<path d="M517.55 325.251V325.58H514.22V325.357L516.394 322.066H516.717L516.258 322.864L514.691 325.251H517.55ZM516.817 322.066V326.769H516.432V322.066H516.817ZM518.076 326.533C518.076 326.458 518.1 326.394 518.148 326.343C518.197 326.289 518.264 326.262 518.348 326.262C518.434 326.262 518.502 326.288 518.551 326.339C518.601 326.391 518.626 326.456 518.626 326.533C518.626 326.606 518.601 326.669 518.551 326.721C518.502 326.772 518.434 326.798 518.348 326.798C518.264 326.798 518.197 326.772 518.148 326.721C518.1 326.669 518.076 326.606 518.076 326.533ZM518.086 323.552C518.086 323.476 518.11 323.413 518.157 323.361C518.207 323.307 518.274 323.28 518.357 323.28C518.444 323.28 518.511 323.306 518.561 323.358C518.611 323.41 518.635 323.474 518.635 323.552C518.635 323.625 518.611 323.687 518.561 323.739C518.511 323.791 518.444 323.817 518.357 323.817C518.274 323.817 518.207 323.791 518.157 323.739C518.11 323.687 518.086 323.625 518.086 323.552ZM522.337 324.014V324.805C522.337 325.15 522.305 325.45 522.24 325.706C522.176 325.96 522.081 326.171 521.956 326.339C521.833 326.505 521.682 326.629 521.504 326.711C521.327 326.793 521.125 326.834 520.896 326.834C520.716 326.834 520.55 326.808 520.399 326.756C520.248 326.704 520.114 326.626 519.995 326.52C519.879 326.413 519.78 326.278 519.698 326.117C519.616 325.955 519.554 325.766 519.511 325.548C519.468 325.328 519.446 325.081 519.446 324.805V324.014C519.446 323.667 519.478 323.368 519.543 323.116C519.61 322.864 519.704 322.655 519.827 322.489C519.952 322.323 520.104 322.201 520.283 322.121C520.461 322.039 520.664 321.998 520.89 321.998C521.071 321.998 521.237 322.025 521.387 322.079C521.54 322.131 521.675 322.208 521.791 322.311C521.91 322.415 522.009 322.547 522.088 322.709C522.17 322.868 522.232 323.057 522.272 323.274C522.316 323.491 522.337 323.738 522.337 324.014ZM521.953 324.85V323.965C521.953 323.752 521.938 323.558 521.907 323.384C521.879 323.209 521.837 323.057 521.781 322.925C521.725 322.794 521.654 322.684 521.568 322.596C521.484 322.507 521.385 322.442 521.271 322.399C521.159 322.353 521.032 322.331 520.89 322.331C520.716 322.331 520.562 322.366 520.428 322.437C520.297 322.506 520.187 322.61 520.099 322.747C520.01 322.883 519.944 323.053 519.898 323.258C519.855 323.462 519.834 323.698 519.834 323.965V324.85C519.834 325.061 519.848 325.254 519.876 325.429C519.904 325.601 519.947 325.754 520.005 325.887C520.063 326.021 520.134 326.134 520.218 326.226C520.304 326.317 520.403 326.386 520.515 326.433C520.629 326.478 520.756 326.501 520.896 326.501C521.075 326.501 521.23 326.465 521.362 326.394C521.493 326.321 521.603 326.215 521.691 326.075C521.779 325.932 521.845 325.759 521.888 325.554C521.931 325.348 521.953 325.113 521.953 324.85ZM525.396 322.03H525.451V322.37H525.396C525.099 322.37 524.834 322.418 524.601 322.515C524.371 322.612 524.176 322.752 524.017 322.935C523.86 323.116 523.74 323.335 523.658 323.594C523.576 323.852 523.535 324.142 523.535 324.463V325.112C523.535 325.329 523.565 325.524 523.623 325.697C523.681 325.867 523.762 326.012 523.865 326.133C523.968 326.253 524.089 326.345 524.227 326.407C524.365 326.47 524.513 326.501 524.672 326.501C524.83 326.501 524.971 326.469 525.096 326.404C525.221 326.339 525.326 326.249 525.412 326.133C525.5 326.016 525.567 325.883 525.612 325.732C525.66 325.579 525.684 325.416 525.684 325.241C525.684 325.075 525.662 324.919 525.619 324.773C525.578 324.624 525.514 324.493 525.428 324.379C525.342 324.265 525.235 324.175 525.105 324.111C524.976 324.046 524.824 324.014 524.65 324.014C524.452 324.014 524.267 324.059 524.094 324.149C523.922 324.24 523.781 324.36 523.671 324.511C523.563 324.662 523.506 324.827 523.5 325.005L523.277 325.002C523.292 324.8 523.338 324.618 523.416 324.456C523.493 324.293 523.596 324.154 523.723 324.04C523.852 323.923 524 323.835 524.165 323.775C524.333 323.712 524.514 323.681 524.708 323.681C524.934 323.681 525.131 323.722 525.299 323.804C525.469 323.886 525.61 323.999 525.722 324.143C525.836 324.285 525.921 324.45 525.977 324.637C526.036 324.822 526.065 325.018 526.065 325.225C526.065 325.451 526.032 325.662 525.968 325.858C525.905 326.052 525.813 326.222 525.69 326.369C525.569 326.515 525.423 326.629 525.251 326.711C525.081 326.793 524.888 326.834 524.672 326.834C524.436 326.834 524.223 326.788 524.036 326.698C523.849 326.608 523.688 326.483 523.555 326.323C523.423 326.164 523.322 325.981 523.251 325.774C523.182 325.565 523.148 325.342 523.148 325.106V324.692C523.148 324.292 523.194 323.929 523.287 323.603C523.379 323.276 523.518 322.995 523.703 322.76C523.891 322.526 524.124 322.346 524.404 322.221C524.686 322.094 525.017 322.03 525.396 322.03ZM530.209 324.854H528.868V324.514H530.209C530.489 324.514 530.716 324.469 530.891 324.379C531.067 324.286 531.195 324.161 531.275 324.004C531.357 323.847 531.398 323.67 531.398 323.474C531.398 323.283 531.357 323.106 531.275 322.945C531.195 322.783 531.067 322.654 530.891 322.557C530.716 322.458 530.489 322.408 530.209 322.408H529.007V326.769H528.61V322.066H530.209C530.554 322.066 530.843 322.125 531.078 322.244C531.315 322.362 531.494 322.527 531.614 322.738C531.735 322.949 531.795 323.192 531.795 323.468C531.795 323.756 531.735 324.005 531.614 324.214C531.494 324.421 531.316 324.579 531.081 324.689C530.846 324.799 530.556 324.854 530.209 324.854ZM532.809 322.066H533.21L534.948 326.207L536.689 322.066H537.086L535.099 326.769H534.796L532.809 322.066ZM532.687 322.066H533.039L533.081 324.715V326.769H532.687V322.066ZM536.863 322.066H537.215V326.769H536.818V324.715L536.863 322.066Z" fill="#636363"/>
<mask id="path-62-inside-5_2379_3709" fill="white">
<path d="M280 380.308H538V446.461H280V380.308Z"/>
</mask>
<path d="M538 445.983H280V446.94H538V445.983Z" fill="#D9D9D9" mask="url(#path-62-inside-5_2379_3709)"/>
<circle cx="299.847" cy="413.384" r="20.9093" fill="#D9D9D9" stroke="white" stroke-width="2.12637"/>
<mask id="mask4_2379_3709" style="mask-type:alpha" maskUnits="userSpaceOnUse" x="280" y="393" width="40" height="41">
<circle cx="299.846" cy="413.384" r="19.8462" fill="#F6F6F6"/>
</mask>
<g mask="url(#mask4_2379_3709)">
<path d="M300.241 419.702C304.352 419.702 307.683 416.37 307.683 412.259C307.683 408.148 304.352 404.817 300.241 404.817C296.13 404.817 292.799 408.148 292.799 412.259C292.799 416.37 296.13 419.702 300.241 419.702ZM305.45 421.562H304.479C303.189 422.155 301.753 422.492 300.241 422.492C298.729 422.492 297.299 422.155 296.002 421.562H295.031C290.717 421.562 287.217 425.062 287.217 429.377V431.795C287.217 433.336 288.467 434.586 290.008 434.586H310.474C312.015 434.586 313.265 433.336 313.265 431.795V429.377C313.265 425.062 309.765 421.562 305.45 421.562Z" fill="#FAFAFA"/>
</g>
<rect opacity="0.56" x="326.308" y="405.577" width="85" height="5" rx="2" fill="#D9D9D9" fill-opacity="0.6"/>
<rect opacity="0.56" x="326.308" y="417.192" width="126" height="4" rx="2" fill="#D9D9D9" fill-opacity="0.6"/>
<path d="M510.388 399.206V399.539H507.446V399.238L508.987 397.491C509.178 397.273 509.331 397.083 509.445 396.919C509.559 396.753 509.641 396.602 509.691 396.467C509.742 396.329 509.768 396.195 509.768 396.066C509.768 395.877 509.731 395.71 509.655 395.565C509.582 395.421 509.472 395.308 509.326 395.226C509.179 395.144 508.998 395.104 508.783 395.104C508.568 395.104 508.38 395.15 508.221 395.242C508.062 395.335 507.939 395.464 507.853 395.63C507.769 395.794 507.727 395.98 507.727 396.189H507.342C507.342 395.93 507.399 395.694 507.514 395.478C507.63 395.263 507.796 395.092 508.011 394.965C508.226 394.835 508.484 394.771 508.783 394.771C509.067 394.771 509.312 394.821 509.516 394.923C509.721 395.022 509.878 395.165 509.988 395.352C510.1 395.54 510.156 395.766 510.156 396.031C510.156 396.173 510.13 396.316 510.078 396.46C510.029 396.605 509.96 396.749 509.872 396.893C509.785 397.035 509.686 397.176 509.574 397.316C509.465 397.456 509.349 397.594 509.229 397.73L507.917 399.206H510.388ZM511.681 397.213L511.377 397.126L511.606 394.835H513.958V395.197H511.936L511.771 396.78C511.853 396.722 511.971 396.665 512.126 396.609C512.283 396.551 512.46 396.522 512.656 396.522C512.865 396.522 513.054 396.557 513.225 396.628C513.397 396.697 513.544 396.798 513.667 396.932C513.79 397.063 513.885 397.223 513.951 397.41C514.018 397.595 514.051 397.805 514.051 398.04C514.051 398.266 514.023 398.474 513.967 398.663C513.911 398.853 513.826 399.019 513.712 399.161C513.598 399.301 513.453 399.409 513.276 399.487C513.1 399.564 512.89 399.603 512.646 399.603C512.459 399.603 512.282 399.577 512.117 399.526C511.953 399.472 511.806 399.391 511.677 399.283C511.548 399.176 511.443 399.04 511.361 398.876C511.281 398.713 511.232 398.521 511.212 398.301H511.584C511.609 398.512 511.667 398.69 511.755 398.834C511.843 398.979 511.962 399.087 512.11 399.161C512.261 399.234 512.44 399.27 512.646 399.27C512.814 399.27 512.961 399.244 513.086 399.19C513.213 399.136 513.318 399.057 513.402 398.954C513.488 398.848 513.553 398.72 513.596 398.57C513.641 398.417 513.664 398.242 513.664 398.046C513.664 397.878 513.64 397.724 513.593 397.584C513.545 397.442 513.475 397.318 513.383 397.213C513.292 397.105 513.18 397.022 513.047 396.964C512.913 396.906 512.76 396.877 512.588 396.877C512.364 396.877 512.185 396.907 512.052 396.967C511.921 397.028 511.797 397.109 511.681 397.213ZM516.752 394.835L514.788 399.942H514.439L516.403 394.835H516.752ZM518.273 396.974H518.667C518.909 396.974 519.11 396.933 519.271 396.851C519.435 396.767 519.558 396.656 519.64 396.518C519.724 396.381 519.766 396.228 519.766 396.06C519.766 395.87 519.73 395.704 519.659 395.562C519.588 395.418 519.479 395.306 519.333 395.226C519.189 395.144 519.003 395.104 518.777 395.104C518.579 395.104 518.402 395.142 518.247 395.22C518.092 395.297 517.97 395.408 517.879 395.553C517.789 395.697 517.744 395.869 517.744 396.069H517.359C517.359 395.813 517.421 395.588 517.543 395.394C517.666 395.198 517.835 395.045 518.05 394.936C518.266 394.826 518.508 394.771 518.777 394.771C519.055 394.771 519.296 394.821 519.501 394.923C519.707 395.024 519.867 395.171 519.979 395.365C520.093 395.559 520.15 395.795 520.15 396.073C520.15 396.215 520.119 396.355 520.056 396.493C519.996 396.63 519.906 396.755 519.785 396.867C519.664 396.977 519.515 397.065 519.336 397.132C519.157 397.199 518.949 397.232 518.713 397.232H518.273V396.974ZM518.273 397.307V397.051H518.713C518.982 397.051 519.212 397.083 519.404 397.145C519.596 397.205 519.753 397.291 519.875 397.403C520 397.513 520.092 397.641 520.15 397.788C520.208 397.934 520.237 398.091 520.237 398.259C520.237 398.475 520.202 398.665 520.131 398.831C520.06 398.997 519.958 399.138 519.827 399.254C519.698 399.368 519.545 399.456 519.368 399.516C519.194 399.574 519.002 399.603 518.793 399.603C518.604 399.603 518.419 399.575 518.238 399.519C518.059 399.463 517.898 399.38 517.753 399.27C517.611 399.158 517.498 399.019 517.414 398.851C517.33 398.68 517.288 398.484 517.288 398.263H517.672C517.672 398.461 517.72 398.636 517.815 398.789C517.909 398.94 518.041 399.058 518.209 399.144C518.379 399.228 518.574 399.27 518.793 399.27C519.015 399.27 519.205 399.233 519.362 399.157C519.521 399.08 519.643 398.967 519.727 398.818C519.811 398.67 519.853 398.488 519.853 398.272C519.853 398.046 519.802 397.862 519.701 397.72C519.602 397.578 519.463 397.473 519.284 397.407C519.108 397.34 518.902 397.307 518.667 397.307H518.273ZM523.051 394.835L521.087 399.942H520.738L522.702 394.835H523.051ZM526.656 399.206V399.539H523.713V399.238L525.254 397.491C525.445 397.273 525.598 397.083 525.712 396.919C525.826 396.753 525.908 396.602 525.958 396.467C526.01 396.329 526.035 396.195 526.035 396.066C526.035 395.877 525.998 395.71 525.922 395.565C525.849 395.421 525.739 395.308 525.593 395.226C525.446 395.144 525.266 395.104 525.05 395.104C524.835 395.104 524.647 395.15 524.488 395.242C524.329 395.335 524.206 395.464 524.12 395.63C524.036 395.794 523.994 395.98 523.994 396.189H523.61C523.61 395.93 523.667 395.694 523.781 395.478C523.897 395.263 524.063 395.092 524.278 394.965C524.494 394.835 524.751 394.771 525.05 394.771C525.334 394.771 525.579 394.821 525.783 394.923C525.988 395.022 526.145 395.165 526.255 395.352C526.367 395.54 526.423 395.766 526.423 396.031C526.423 396.173 526.397 396.316 526.345 396.46C526.296 396.605 526.227 396.749 526.139 396.893C526.053 397.035 525.954 397.176 525.842 397.316C525.732 397.456 525.617 397.594 525.496 397.73L524.184 399.206H526.656ZM530.215 396.783V397.575C530.215 397.919 530.183 398.22 530.118 398.476C530.054 398.73 529.959 398.941 529.834 399.109C529.711 399.275 529.561 399.399 529.382 399.48C529.205 399.562 529.003 399.603 528.775 399.603C528.594 399.603 528.428 399.577 528.277 399.526C528.126 399.474 527.992 399.395 527.873 399.29C527.757 399.182 527.658 399.048 527.576 398.886C527.494 398.725 527.432 398.535 527.389 398.318C527.346 398.098 527.324 397.85 527.324 397.575V396.783C527.324 396.437 527.357 396.137 527.421 395.885C527.488 395.633 527.583 395.424 527.705 395.259C527.83 395.093 527.982 394.97 528.161 394.89C528.34 394.809 528.542 394.768 528.768 394.768C528.949 394.768 529.115 394.795 529.266 394.848C529.418 394.9 529.553 394.978 529.669 395.081C529.788 395.184 529.887 395.317 529.966 395.478C530.048 395.638 530.11 395.826 530.151 396.044C530.194 396.261 530.215 396.508 530.215 396.783ZM529.831 397.62V396.735C529.831 396.522 529.816 396.328 529.786 396.153C529.758 395.979 529.716 395.826 529.66 395.695C529.604 395.563 529.533 395.453 529.446 395.365C529.362 395.277 529.263 395.211 529.149 395.168C529.037 395.123 528.91 395.1 528.768 395.1C528.594 395.1 528.44 395.136 528.306 395.207C528.175 395.276 528.065 395.379 527.977 395.517C527.888 395.653 527.822 395.823 527.776 396.027C527.733 396.232 527.712 396.468 527.712 396.735V397.62C527.712 397.831 527.726 398.024 527.754 398.198C527.782 398.37 527.825 398.523 527.883 398.657C527.941 398.79 528.012 398.903 528.096 398.996C528.182 399.086 528.281 399.155 528.393 399.203C528.508 399.248 528.635 399.27 528.775 399.27C528.953 399.27 529.108 399.235 529.24 399.164C529.371 399.091 529.481 398.984 529.569 398.844C529.657 398.702 529.723 398.529 529.766 398.324C529.809 398.117 529.831 397.883 529.831 397.62ZM533.995 399.206V399.539H531.052V399.238L532.593 397.491C532.784 397.273 532.937 397.083 533.051 396.919C533.165 396.753 533.247 396.602 533.297 396.467C533.348 396.329 533.374 396.195 533.374 396.066C533.374 395.877 533.337 395.71 533.261 395.565C533.188 395.421 533.078 395.308 532.932 395.226C532.785 395.144 532.604 395.104 532.389 395.104C532.174 395.104 531.986 395.15 531.827 395.242C531.668 395.335 531.545 395.464 531.459 395.63C531.375 395.794 531.333 395.98 531.333 396.189H530.948C530.948 395.93 531.006 395.694 531.12 395.478C531.236 395.263 531.402 395.092 531.617 394.965C531.832 394.835 532.09 394.771 532.389 394.771C532.673 394.771 532.918 394.821 533.122 394.923C533.327 395.022 533.484 395.165 533.594 395.352C533.706 395.54 533.762 395.766 533.762 396.031C533.762 396.173 533.736 396.316 533.684 396.46C533.635 396.605 533.566 396.749 533.478 396.893C533.392 397.035 533.292 397.176 533.181 397.316C533.071 397.456 532.955 397.594 532.835 397.73L531.523 399.206H533.995ZM537.825 398.02V398.35H534.495V398.127L536.669 394.835H536.992L536.533 395.633L534.967 398.02H537.825ZM537.092 394.835V399.539H536.708V394.835H537.092Z" fill="#636363"/>
<mask id="path-70-inside-6_2379_3709" fill="white">
<path d="M280 453.077H538V519.231H280V453.077Z"/>
</mask>
<path d="M538 518.752H280V519.709H538V518.752Z" fill="#D9D9D9" mask="url(#path-70-inside-6_2379_3709)"/>
<circle cx="299.847" cy="486.153" r="20.9093" fill="#D9D9D9" stroke="white" stroke-width="2.12637"/>
<mask id="mask5_2379_3709" style="mask-type:alpha" maskUnits="userSpaceOnUse" x="280" y="466" width="40" height="40">
<circle cx="299.846" cy="486.153" r="19.8462" fill="#F6F6F6"/>
</mask>
<g mask="url(#mask5_2379_3709)">
<path d="M300.241 492.471C304.352 492.471 307.683 489.139 307.683 485.028C307.683 480.918 304.352 477.586 300.241 477.586C296.13 477.586 292.799 480.918 292.799 485.028C292.799 489.139 296.13 492.471 300.241 492.471ZM305.45 494.331H304.479C303.189 494.924 301.753 495.261 300.241 495.261C298.729 495.261 297.299 494.924 296.002 494.331H295.031C290.717 494.331 287.217 497.831 287.217 502.146V504.564C287.217 506.105 288.467 507.355 290.008 507.355H310.474C312.015 507.355 313.265 506.105 313.265 504.564V502.146C313.265 497.831 309.765 494.331 305.45 494.331Z" fill="#FAFAFA"/>
</g>
<rect opacity="0.56" x="326.308" y="478.346" width="85" height="5" rx="2" fill="#D9D9D9" fill-opacity="0.6"/>
<rect opacity="0.56" x="326.308" y="489.961" width="126" height="4" rx="2" fill="#D9D9D9" fill-opacity="0.6"/>
<path d="M510.388 471.975V472.308H507.446V472.007L508.987 470.26C509.178 470.042 509.331 469.852 509.445 469.688C509.559 469.522 509.641 469.371 509.691 469.236C509.742 469.098 509.768 468.964 509.768 468.835C509.768 468.646 509.731 468.479 509.655 468.335C509.582 468.19 509.472 468.077 509.326 467.995C509.179 467.914 508.998 467.873 508.783 467.873C508.568 467.873 508.38 467.919 508.221 468.011C508.062 468.104 507.939 468.233 507.853 468.399C507.769 468.563 507.727 468.749 507.727 468.958H507.342C507.342 468.7 507.399 468.463 507.514 468.247C507.63 468.032 507.796 467.861 508.011 467.734C508.226 467.604 508.484 467.54 508.783 467.54C509.067 467.54 509.312 467.59 509.516 467.692C509.721 467.791 509.878 467.934 509.988 468.121C510.1 468.309 510.156 468.535 510.156 468.8C510.156 468.942 510.13 469.085 510.078 469.229C510.029 469.374 509.96 469.518 509.872 469.662C509.785 469.804 509.686 469.945 509.574 470.085C509.465 470.225 509.349 470.363 509.229 470.499L507.917 471.975H510.388ZM511.681 469.982L511.377 469.895L511.606 467.604H513.958V467.966H511.936L511.771 469.549C511.853 469.491 511.971 469.434 512.126 469.378C512.283 469.32 512.46 469.291 512.656 469.291C512.865 469.291 513.054 469.326 513.225 469.397C513.397 469.466 513.544 469.567 513.667 469.701C513.79 469.832 513.885 469.992 513.951 470.179C514.018 470.364 514.051 470.574 514.051 470.809C514.051 471.035 514.023 471.243 513.967 471.432C513.911 471.622 513.826 471.788 513.712 471.93C513.598 472.07 513.453 472.178 513.276 472.256C513.1 472.333 512.89 472.372 512.646 472.372C512.459 472.372 512.282 472.346 512.117 472.295C511.953 472.241 511.806 472.16 511.677 472.052C511.548 471.945 511.443 471.809 511.361 471.645C511.281 471.482 511.232 471.29 511.212 471.07H511.584C511.609 471.282 511.667 471.459 511.755 471.603C511.843 471.748 511.962 471.856 512.11 471.93C512.261 472.003 512.44 472.04 512.646 472.04C512.814 472.04 512.961 472.013 513.086 471.959C513.213 471.905 513.318 471.826 513.402 471.723C513.488 471.617 513.553 471.489 513.596 471.339C513.641 471.186 513.664 471.011 513.664 470.815C513.664 470.647 513.64 470.493 513.593 470.353C513.545 470.211 513.475 470.087 513.383 469.982C513.292 469.874 513.18 469.791 513.047 469.733C512.913 469.675 512.76 469.646 512.588 469.646C512.364 469.646 512.185 469.676 512.052 469.736C511.921 469.797 511.797 469.879 511.681 469.982ZM516.752 467.604L514.788 472.711H514.439L516.403 467.604H516.752ZM518.273 469.743H518.667C518.909 469.743 519.11 469.702 519.271 469.62C519.435 469.536 519.558 469.425 519.64 469.287C519.724 469.15 519.766 468.997 519.766 468.829C519.766 468.639 519.73 468.473 519.659 468.331C519.588 468.187 519.479 468.075 519.333 467.995C519.189 467.914 519.003 467.873 518.777 467.873C518.579 467.873 518.402 467.911 518.247 467.989C518.092 468.066 517.97 468.177 517.879 468.322C517.789 468.466 517.744 468.638 517.744 468.838H517.359C517.359 468.582 517.421 468.357 517.543 468.163C517.666 467.967 517.835 467.814 518.05 467.705C518.266 467.595 518.508 467.54 518.777 467.54C519.055 467.54 519.296 467.59 519.501 467.692C519.707 467.793 519.867 467.94 519.979 468.134C520.093 468.328 520.15 468.564 520.15 468.842C520.15 468.984 520.119 469.124 520.056 469.262C519.996 469.399 519.906 469.524 519.785 469.636C519.664 469.746 519.515 469.834 519.336 469.901C519.157 469.968 518.949 470.001 518.713 470.001H518.273V469.743ZM518.273 470.076V469.82H518.713C518.982 469.82 519.212 469.852 519.404 469.914C519.596 469.974 519.753 470.06 519.875 470.172C520 470.282 520.092 470.41 520.15 470.557C520.208 470.703 520.237 470.861 520.237 471.028C520.237 471.244 520.202 471.434 520.131 471.6C520.06 471.766 519.958 471.907 519.827 472.023C519.698 472.137 519.545 472.225 519.368 472.285C519.194 472.343 519.002 472.372 518.793 472.372C518.604 472.372 518.419 472.344 518.238 472.288C518.059 472.232 517.898 472.149 517.753 472.04C517.611 471.928 517.498 471.788 517.414 471.62C517.33 471.449 517.288 471.254 517.288 471.032H517.672C517.672 471.23 517.72 471.405 517.815 471.558C517.909 471.709 518.041 471.827 518.209 471.914C518.379 471.998 518.574 472.04 518.793 472.04C519.015 472.04 519.205 472.002 519.362 471.926C519.521 471.849 519.643 471.736 519.727 471.587C519.811 471.439 519.853 471.257 519.853 471.041C519.853 470.815 519.802 470.631 519.701 470.489C519.602 470.347 519.463 470.242 519.284 470.176C519.108 470.109 518.902 470.076 518.667 470.076H518.273ZM523.051 467.604L521.087 472.711H520.738L522.702 467.604H523.051ZM526.656 471.975V472.308H523.713V472.007L525.254 470.26C525.445 470.042 525.598 469.852 525.712 469.688C525.826 469.522 525.908 469.371 525.958 469.236C526.01 469.098 526.035 468.964 526.035 468.835C526.035 468.646 525.998 468.479 525.922 468.335C525.849 468.19 525.739 468.077 525.593 467.995C525.446 467.914 525.266 467.873 525.05 467.873C524.835 467.873 524.647 467.919 524.488 468.011C524.329 468.104 524.206 468.233 524.12 468.399C524.036 468.563 523.994 468.749 523.994 468.958H523.61C523.61 468.7 523.667 468.463 523.781 468.247C523.897 468.032 524.063 467.861 524.278 467.734C524.494 467.604 524.751 467.54 525.05 467.54C525.334 467.54 525.579 467.59 525.783 467.692C525.988 467.791 526.145 467.934 526.255 468.121C526.367 468.309 526.423 468.535 526.423 468.8C526.423 468.942 526.397 469.085 526.345 469.229C526.296 469.374 526.227 469.518 526.139 469.662C526.053 469.804 525.954 469.945 525.842 470.085C525.732 470.225 525.617 470.363 525.496 470.499L524.184 471.975H526.656ZM530.215 469.552V470.344C530.215 470.688 530.183 470.989 530.118 471.245C530.054 471.499 529.959 471.71 529.834 471.878C529.711 472.044 529.561 472.168 529.382 472.249C529.205 472.331 529.003 472.372 528.775 472.372C528.594 472.372 528.428 472.346 528.277 472.295C528.126 472.243 527.992 472.164 527.873 472.059C527.757 471.951 527.658 471.817 527.576 471.655C527.494 471.494 527.432 471.304 527.389 471.087C527.346 470.867 527.324 470.619 527.324 470.344V469.552C527.324 469.206 527.357 468.906 527.421 468.654C527.488 468.402 527.583 468.193 527.705 468.028C527.83 467.862 527.982 467.739 528.161 467.659C528.34 467.578 528.542 467.537 528.768 467.537C528.949 467.537 529.115 467.564 529.266 467.617C529.418 467.669 529.553 467.747 529.669 467.85C529.788 467.953 529.887 468.086 529.966 468.247C530.048 468.407 530.11 468.595 530.151 468.813C530.194 469.03 530.215 469.277 530.215 469.552ZM529.831 470.389V469.504C529.831 469.291 529.816 469.097 529.786 468.922C529.758 468.748 529.716 468.595 529.66 468.464C529.604 468.332 529.533 468.223 529.446 468.134C529.362 468.046 529.263 467.98 529.149 467.937C529.037 467.892 528.91 467.869 528.768 467.869C528.594 467.869 528.44 467.905 528.306 467.976C528.175 468.045 528.065 468.148 527.977 468.286C527.888 468.422 527.822 468.592 527.776 468.796C527.733 469.001 527.712 469.237 527.712 469.504V470.389C527.712 470.6 527.726 470.793 527.754 470.967C527.782 471.139 527.825 471.292 527.883 471.426C527.941 471.559 528.012 471.672 528.096 471.765C528.182 471.855 528.281 471.924 528.393 471.972C528.508 472.017 528.635 472.04 528.775 472.04C528.953 472.04 529.108 472.004 529.24 471.933C529.371 471.86 529.481 471.753 529.569 471.613C529.657 471.471 529.723 471.298 529.766 471.093C529.809 470.886 529.831 470.652 529.831 470.389ZM533.995 471.975V472.308H531.052V472.007L532.593 470.26C532.784 470.042 532.937 469.852 533.051 469.688C533.165 469.522 533.247 469.371 533.297 469.236C533.348 469.098 533.374 468.964 533.374 468.835C533.374 468.646 533.337 468.479 533.261 468.335C533.188 468.19 533.078 468.077 532.932 467.995C532.785 467.914 532.604 467.873 532.389 467.873C532.174 467.873 531.986 467.919 531.827 468.011C531.668 468.104 531.545 468.233 531.459 468.399C531.375 468.563 531.333 468.749 531.333 468.958H530.948C530.948 468.7 531.006 468.463 531.12 468.247C531.236 468.032 531.402 467.861 531.617 467.734C531.832 467.604 532.09 467.54 532.389 467.54C532.673 467.54 532.918 467.59 533.122 467.692C533.327 467.791 533.484 467.934 533.594 468.121C533.706 468.309 533.762 468.535 533.762 468.8C533.762 468.942 533.736 469.085 533.684 469.229C533.635 469.374 533.566 469.518 533.478 469.662C533.392 469.804 533.292 469.945 533.181 470.085C533.071 470.225 532.955 470.363 532.835 470.499L531.523 471.975H533.995ZM537.825 470.789V471.119H534.495V470.896L536.669 467.604H536.992L536.533 468.402L534.967 470.789H537.825ZM537.092 467.604V472.308H536.708V467.604H537.092Z" fill="#636363"/>
</g>
</g>
<defs>
<filter id="filter0_d_2379_3709" x="68.3334" y="77.889" width="93.3331" height="93.3331" filterUnits="userSpaceOnUse" color-interpolation-filters="sRGB">
<feFlood flood-opacity="0" result="BackgroundImageFix"/>
<feColorMatrix in="SourceAlpha" type="matrix" values="0 0 0 0 0 0 0 0 0 0 0 0 0 0 0 0 0 0 127 0" result="hardAlpha"/>
<feOffset dy="3.55556"/>
<feGaussianBlur stdDeviation="7.11111"/>
<feComposite in2="hardAlpha" operator="out"/>
<feColorMatrix type="matrix" values="0 0 0 0 0.945098 0 0 0 0 0.952941 0 0 0 0 0.956863 0 0 0 0.8 0"/>
<feBlend mode="normal" in2="BackgroundImageFix" result="effect1_dropShadow_2379_3709"/>
<feBlend mode="normal" in="SourceGraphic" in2="effect1_dropShadow_2379_3709" result="shape"/>
</filter>
<filter id="filter1_d_2379_3709" x="68.3334" y="191.889" width="93.3331" height="93.3331" filterUnits="userSpaceOnUse" color-interpolation-filters="sRGB">
<feFlood flood-opacity="0" result="BackgroundImageFix"/>
<feColorMatrix in="SourceAlpha" type="matrix" values="0 0 0 0 0 0 0 0 0 0 0 0 0 0 0 0 0 0 127 0" result="hardAlpha"/>
<feOffset dy="3.55556"/>
<feGaussianBlur stdDeviation="7.11111"/>
<feComposite in2="hardAlpha" operator="out"/>
<feColorMatrix type="matrix" values="0 0 0 0 0.945098 0 0 0 0 0.952941 0 0 0 0 0.956863 0 0 0 0.8 0"/>
<feBlend mode="normal" in2="BackgroundImageFix" result="effect1_dropShadow_2379_3709"/>
<feBlend mode="normal" in="SourceGraphic" in2="effect1_dropShadow_2379_3709" result="shape"/>
</filter>
<filter id="filter2_d_2379_3709" x="68.3334" y="305.889" width="93.3331" height="93.3331" filterUnits="userSpaceOnUse" color-interpolation-filters="sRGB">
<feFlood flood-opacity="0" result="BackgroundImageFix"/>
<feColorMatrix in="SourceAlpha" type="matrix" values="0 0 0 0 0 0 0 0 0 0 0 0 0 0 0 0 0 0 127 0" result="hardAlpha"/>
<feOffset dy="3.55556"/>
<feGaussianBlur stdDeviation="7.11111"/>
<feComposite in2="hardAlpha" operator="out"/>
<feColorMatrix type="matrix" values="0 0 0 0 0.945098 0 0 0 0 0.952941 0 0 0 0 0.956863 0 0 0 0.8 0"/>
<feBlend mode="normal" in2="BackgroundImageFix" result="effect1_dropShadow_2379_3709"/>
<feBlend mode="normal" in="SourceGraphic" in2="effect1_dropShadow_2379_3709" result="shape"/>
</filter>
<filter id="filter3_i_2379_3709" x="98.1094" y="325.297" width="39.8367" height="40.6886" filterUnits="userSpaceOnUse" color-interpolation-filters="sRGB">
<feFlood flood-opacity="0" result="BackgroundImageFix"/>
<feBlend mode="normal" in="SourceGraphic" in2="BackgroundImageFix" result="shape"/>
<feColorMatrix in="SourceAlpha" type="matrix" values="0 0 0 0 0 0 0 0 0 0 0 0 0 0 0 0 0 0 127 0" result="hardAlpha"/>
<feOffset dx="5.51249" dy="-9.37123"/>
<feGaussianBlur stdDeviation="3.23859"/>
<feComposite in2="hardAlpha" operator="arithmetic" k2="-1" k3="1"/>
<feColorMatrix type="matrix" values="0 0 0 0 0.141176 0 0 0 0 0.705882 0 0 0 0 0.231373 0 0 0 1 0"/>
<feBlend mode="normal" in2="shape" result="effect1_innerShadow_2379_3709"/>
</filter>
<filter id="filter4_d_2379_3709" x="68.3334" y="419.889" width="93.3331" height="93.3331" filterUnits="userSpaceOnUse" color-interpolation-filters="sRGB">
<feFlood flood-opacity="0" result="BackgroundImageFix"/>
<feColorMatrix in="SourceAlpha" type="matrix" values="0 0 0 0 0 0 0 0 0 0 0 0 0 0 0 0 0 0 127 0" result="hardAlpha"/>
<feOffset dy="3.55556"/>
<feGaussianBlur stdDeviation="7.11111"/>
<feComposite in2="hardAlpha" operator="out"/>
<feColorMatrix type="matrix" values="0 0 0 0 0.945098 0 0 0 0 0.952941 0 0 0 0 0.956863 0 0 0 0.8 0"/>
<feBlend mode="normal" in2="BackgroundImageFix" result="effect1_dropShadow_2379_3709"/>
<feBlend mode="normal" in="SourceGraphic" in2="effect1_dropShadow_2379_3709" result="shape"/>
</filter>
<filter id="filter5_d_2379_3709" x="249" y="22" width="332" height="553" filterUnits="userSpaceOnUse" color-interpolation-filters="sRGB">
<feFlood flood-opacity="0" result="BackgroundImageFix"/>
<feColorMatrix in="SourceAlpha" type="matrix" values="0 0 0 0 0 0 0 0 0 0 0 0 0 0 0 0 0 0 127 0" result="hardAlpha"/>
<feOffset dx="6" dy="6"/>
<feGaussianBlur stdDeviation="14"/>
<feComposite in2="hardAlpha" operator="out"/>
<feColorMatrix type="matrix" values="0 0 0 0 0.81345 0 0 0 0 0.818928 0 0 0 0 0.821667 0 0 0 0.4 0"/>
<feBlend mode="normal" in2="BackgroundImageFix" result="effect1_dropShadow_2379_3709"/>
<feBlend mode="normal" in="SourceGraphic" in2="effect1_dropShadow_2379_3709" result="shape"/>
</filter>
<linearGradient id="paint0_linear_2379_3709" x1="122.638" y1="105.237" x2="105.138" y2="124.125" gradientUnits="userSpaceOnUse">
<stop stop-color="#37AEE2"/>
<stop offset="1" stop-color="#09739F"/>
</linearGradient>
<linearGradient id="paint1_linear_2379_3709" x1="122.542" y1="217.222" x2="109.625" y2="237.361" gradientUnits="userSpaceOnUse">
<stop stop-color="#FF6F62"/>
<stop offset="0.276042" stop-color="#F04D93"/>
<stop offset="0.588542" stop-color="#C740CB"/>
<stop offset="1" stop-color="#4D68FF"/>
</linearGradient>
<linearGradient id="paint2_linear_2379_3709" x1="1875.34" y1="3875.02" x2="1875.34" y2="331.223" gradientUnits="userSpaceOnUse">
<stop stop-color="#F9F9F9"/>
<stop offset="1" stop-color="white"/>
</linearGradient>
<radialGradient id="paint3_radial_2379_3709" cx="0" cy="0" r="1" gradientUnits="userSpaceOnUse" gradientTransform="translate(106.895 483.516) rotate(-90) scale(35.2382 32.7743)">
<stop stop-color="#FFDD55"/>
<stop offset="0.1" stop-color="#FFDD55"/>
<stop offset="0.5" stop-color="#FF543E"/>
<stop offset="1" stop-color="#C837AB"/>
</radialGradient>
<radialGradient id="paint4_radial_2379_3709" cx="0" cy="0" r="1" gradientUnits="userSpaceOnUse" gradientTransform="translate(91.4945 447.783) rotate(78.681) scale(15.7517 64.9289)">
<stop stop-color="#3771C8"/>
<stop offset="0.128" stop-color="#3771C8"/>
<stop offset="1" stop-color="#6600FF" stop-opacity="0"/>
</radialGradient>
<clipPath id="clip0_2379_3709">
<rect width="35.5556" height="35.5556" fill="white" transform="translate(97.2217 103.222)"/>
</clipPath>
<clipPath id="clip1_2379_3709">
<rect width="35.5556" height="35.5556" fill="white" transform="translate(97.333 217.222)"/>
</clipPath>
<clipPath id="clip2_2379_3709">
<rect width="35.5555" height="35.5555" fill="white" transform="translate(97.5615 331.223)"/>
</clipPath>
<clipPath id="clip3_2379_3709">
<rect width="35.5556" height="35.5556" fill="white" transform="translate(97.4443 445.222)"/>
</clipPath>
<clipPath id="clip4_2379_3709">
<rect x="271" y="44" width="276" height="497" rx="20" fill="white"/>
</clipPath>
<clipPath id="clip5_2379_3709">
<rect width="104.267" height="18.4" fill="white" transform="translate(356.867 522.933)"/>
</clipPath>
<clipPath id="clip6_2379_3709">
<rect width="18.4" height="18.4" fill="white" transform="translate(510.2 61.2998)"/>
</clipPath>
</defs>
</svg>
