<svg width="777" height="518" viewBox="0 0 777 518" fill="none" xmlns="http://www.w3.org/2000/svg">
<g opacity="0.15" clip-path="url(#clip0_1047_6001)">
<path d="M227.8 126.663L111.56 204.42L226.055 375.581L342.295 297.824L227.8 126.663Z" fill="#F5F5F5"/>
<path d="M282.228 289.728L280.912 297.892L223.124 289.562L224.44 281.398L282.228 289.728Z" fill="#E0E0E0"/>
<path d="M253.125 260.606L261.413 261.797L252.224 318.694L243.926 317.493L253.125 260.606Z" fill="#E0E0E0"/>
<path d="M199.949 188.293C200.032 188.407 188.387 196.353 173.935 206.009C159.483 215.664 147.703 223.413 147.621 223.289C147.538 223.165 159.182 215.229 173.635 205.563C188.087 195.897 199.814 188.169 199.949 188.293Z" fill="#E0E0E0"/>
<path d="M242.653 177.56C242.736 177.685 223.363 190.78 199.39 206.817C175.417 222.854 155.878 235.752 155.816 235.638C155.753 235.524 175.085 222.409 199.089 206.371C223.093 190.334 242.57 177.436 242.653 177.56Z" fill="#E0E0E0"/>
<path d="M251.22 190.365C251.303 190.489 231.93 203.595 207.957 219.632C183.984 235.669 164.445 248.567 164.383 248.443C164.321 248.319 183.673 235.224 207.657 219.176C231.64 203.128 251.138 190.241 251.22 190.365Z" fill="#E0E0E0"/>
<path d="M259.787 203.18C259.87 203.305 240.497 216.41 216.524 232.437C192.551 248.464 173.012 261.383 173.012 261.258C173.012 261.134 192.292 248.029 216.275 231.991C240.258 215.954 259.704 203.056 259.787 203.18Z" fill="#E0E0E0"/>
<path d="M268.323 215.996C268.406 216.12 249.033 229.215 225.06 245.252C201.087 261.289 181.548 274.188 181.496 274.063C181.444 273.939 200.807 260.844 224.811 244.807C248.815 228.769 268.323 215.871 268.323 215.996Z" fill="#E0E0E0"/>
<path d="M616.493 241.352L518.87 306.655L615.025 450.399L712.648 385.095L616.493 241.352Z" fill="#F5F5F5"/>
<path d="M662.212 378.326L661.103 385.185L612.566 378.192L613.685 371.333L662.212 378.326Z" fill="#E0E0E0"/>
<path d="M637.772 353.867L644.734 354.872L637.016 402.652L630.044 401.647L637.772 353.867Z" fill="#E0E0E0"/>
<path d="M593.069 293.188C593.152 293.312 583.383 299.994 571.241 308.106C559.099 316.218 549.195 322.703 549.112 322.61C549.029 322.517 558.809 315.814 570.94 307.692C583.072 299.57 592.986 293.012 593.069 293.188Z" fill="#E0E0E0"/>
<path d="M628.967 284.123C629.05 284.247 612.795 295.27 592.707 308.728C572.619 322.185 556.178 333.022 556.095 332.898C556.012 332.773 572.267 321.75 592.355 308.282C612.443 294.814 628.853 283.998 628.967 284.123Z" fill="#E0E0E0"/>
<path d="M636.168 294.877C636.25 295.001 619.996 306.024 599.908 319.492C579.819 332.96 563.378 343.776 563.295 343.652C563.212 343.527 579.415 332.556 599.555 319.088C619.695 305.62 636.105 294.763 636.168 294.877Z" fill="#E0E0E0"/>
<path d="M643.356 305.62C643.439 305.744 627.174 316.767 607.096 330.235C587.018 343.703 570.567 354.519 570.484 354.395C570.401 354.271 586.656 343.258 606.744 329.78C626.832 316.301 643.283 305.517 643.356 305.62Z" fill="#E0E0E0"/>
<path d="M650.61 316.405C650.693 316.529 634.438 327.542 614.35 341.01C594.262 354.478 577.821 365.293 577.738 365.179C577.655 365.066 593.91 354.032 613.998 340.564C634.086 327.096 650.475 316.28 650.61 316.405Z" fill="#E0E0E0"/>
<path d="M462.047 132.96L355.528 75.9883L271.64 232.834L378.159 289.806L462.047 132.96Z" fill="#F5F5F5"/>
<path d="M359.927 240.735L353.173 243.045L336.017 195.628L342.782 193.307L359.927 240.735Z" fill="#E0E0E0"/>
<path d="M370.287 206.713L372.753 213.52L325.656 229.65L323.19 222.844L370.287 206.713Z" fill="#E0E0E0"/>
<path d="M403.75 136.752C403.667 136.908 392.872 131.293 379.621 124.217C366.371 117.141 355.711 111.267 355.793 111.111C355.876 110.956 366.682 116.571 379.932 123.647C393.183 130.723 403.833 136.587 403.75 136.752Z" fill="#E0E0E0"/>
<path d="M429.317 164.962C429.234 165.118 411.353 155.711 389.379 143.963C367.406 132.214 349.669 122.559 349.752 122.404C349.835 122.248 367.706 131.645 389.68 143.403C411.653 155.162 429.4 164.807 429.317 164.962Z" fill="#E0E0E0"/>
<path d="M423.041 176.7C422.958 176.856 405.076 167.459 383.103 155.7C361.129 143.942 343.393 134.297 343.476 134.141C343.559 133.986 361.43 143.393 383.403 155.141C405.377 166.889 423.124 176.545 423.041 176.7Z" fill="#E0E0E0"/>
<path d="M416.761 188.438C416.678 188.594 398.797 179.197 376.824 167.449C354.85 155.701 337.114 146.076 337.197 145.89C337.279 145.703 355.15 155.131 377.124 166.879C399.098 178.627 416.844 188.283 416.761 188.438Z" fill="#E0E0E0"/>
<path d="M410.485 200.176C410.402 200.331 392.521 190.935 370.547 179.187C348.574 167.438 330.827 157.783 330.92 157.627C331.014 157.472 348.874 166.869 370.848 178.617C392.821 190.365 410.568 200.021 410.485 200.176Z" fill="#E0E0E0"/>
<path opacity="0.2" d="M411.032 0H408.359V45.5633H411.032V0Z" fill="black"/>
<path d="M687.562 455.664C687.562 455.809 553.659 455.933 388.51 455.933C223.361 455.933 89.4375 455.84 89.4375 455.664C89.4375 455.488 223.32 455.395 388.51 455.395C553.7 455.395 687.562 455.508 687.562 455.664Z" fill="#263238"/>
<path d="M309.765 242.983L273.091 431.328L268.325 455.985L512.821 454.804C523.803 454.752 533.541 445.003 537.053 430.52L580.42 252.712C583.103 241.72 577.219 230.282 568.89 230.292L321.368 230.551C315.981 230.541 311.153 235.638 309.765 242.983Z" fill="#007AEA"/>
<g opacity="0.5">
<path d="M309.762 242.983L273.088 431.328L268.322 455.985L512.818 454.804C523.8 454.752 533.538 445.003 537.05 430.52L580.417 252.712C583.1 241.72 577.216 230.282 568.887 230.292L321.365 230.551C315.978 230.541 311.151 235.638 309.762 242.983Z" fill="black"/>
</g>
<path d="M489.395 418.544L463.495 209.883C462.459 201.336 455.632 194.954 447.582 194.985L390.81 195.162C388.7 195.185 386.617 195.639 384.688 196.493C382.759 197.348 381.024 198.587 379.59 200.134L352.654 228.801L194.767 229.65C185.122 229.702 177.704 238.839 178.979 249.096L203.024 441.947C204.06 450.484 210.888 456.855 218.917 456.845L494.13 456.296C524.775 456.928 527.707 447.883 527.707 447.883C492.524 455.664 489.395 418.596 489.395 418.544Z" fill="#007AEA"/>
<g opacity="0.5">
<path d="M370.72 376.814L361.437 386.78L289.953 322.466L299.236 312.499L370.72 376.814Z" fill="white"/>
<path d="M357.553 310.292L367.809 319.523L303.132 388.987L292.865 379.756L357.553 310.292Z" fill="white"/>
</g>
<path d="M528.69 107.516C528.355 107.374 528.067 107.141 527.859 106.842C527.652 106.543 527.534 106.191 527.519 105.827L527.105 96.213C527.09 95.9143 527.146 95.6162 527.266 95.3425C527.387 95.0687 527.569 94.8268 527.799 94.6358C528.029 94.4448 528.301 94.3101 528.592 94.2422C528.884 94.1743 529.187 94.1751 529.477 94.2446C530.28 94.4177 531.109 94.4252 531.914 94.2666C532.719 94.1081 533.484 93.7868 534.16 93.3226C534.783 92.9282 535.319 92.4103 535.734 91.8009C536.149 91.1916 536.435 90.5036 536.574 89.7794C536.668 89.0462 536.614 88.3016 536.414 87.5897C536.215 86.8779 535.875 86.2133 535.414 85.6354C534.928 84.9779 534.318 84.4226 533.617 84.0013C532.917 83.5799 532.14 83.3009 531.332 83.1801C529.702 83.0895 528.089 83.5516 526.754 84.4917C525.419 85.4317 524.44 86.7947 523.976 88.3601C523.822 88.8344 523.49 89.2307 523.05 89.4665C522.61 89.7023 522.097 89.7594 521.616 89.6258C521.135 89.4923 520.725 89.1785 520.47 88.7497C520.215 88.3209 520.135 87.8103 520.247 87.3241C520.952 84.862 522.483 82.7176 524.583 81.2516C526.683 79.7856 529.223 79.0874 531.777 79.2744C533.107 79.4515 534.387 79.894 535.542 80.5756C536.697 81.2573 537.703 82.1641 538.501 83.2423C539.277 84.2415 539.845 85.3863 540.17 86.6088C540.496 87.8313 540.573 89.1068 540.397 90.3596C540.161 91.6106 539.672 92.8002 538.96 93.855C538.247 94.9098 537.326 95.8075 536.253 96.4927C534.699 97.5391 532.883 98.1311 531.011 98.2021L531.332 105.62C531.344 105.946 531.274 106.269 531.127 106.561C530.981 106.852 530.763 107.102 530.495 107.287C530.226 107.472 529.915 107.586 529.59 107.619C529.266 107.652 528.938 107.602 528.638 107.474L528.69 107.516Z" fill="#007AEA"/>
<path d="M531.527 111.453C531.548 111.766 531.477 112.078 531.321 112.35C531.166 112.622 530.933 112.842 530.652 112.982C530.371 113.122 530.055 113.175 529.744 113.135C529.433 113.095 529.141 112.964 528.904 112.758C528.668 112.552 528.498 112.281 528.416 111.978C528.334 111.675 528.343 111.355 528.443 111.058C528.543 110.761 528.729 110.5 528.977 110.308C529.226 110.117 529.525 110.003 529.838 109.982C530.046 109.966 530.254 109.992 530.452 110.058C530.65 110.124 530.832 110.228 530.989 110.365C531.146 110.501 531.275 110.668 531.367 110.855C531.459 111.042 531.514 111.245 531.527 111.453Z" fill="#007AEA"/>
<path d="M495.403 93.9547C495.447 93.7498 495.478 93.5421 495.496 93.3331C495.496 92.8773 495.61 92.2971 495.693 91.4787C495.795 90.4739 495.964 89.477 496.201 88.495C496.335 87.9149 496.408 87.2725 496.615 86.6199C496.822 85.9672 497.029 85.2627 497.257 84.5479C498.457 81.0061 500.205 77.6745 502.437 74.6748C505.363 70.7905 509.073 67.5644 513.326 65.2057C515.746 63.841 518.324 62.7764 521.002 62.0356C523.893 61.2694 526.87 60.8794 529.86 60.8753C531.435 60.85 533.01 60.933 534.574 61.1239C535.372 61.2068 536.159 61.414 536.957 61.5487C537.764 61.6868 538.56 61.8807 539.34 62.1288C542.605 63.0414 545.711 64.4494 548.55 66.3039C554.861 70.3974 559.669 76.434 562.246 83.5015C563.633 87.2873 564.335 91.2902 564.318 95.3223C564.36 99.476 563.626 103.601 562.152 107.485L561.686 108.666L561.624 108.821L561.686 108.977C564.286 114.954 566.866 120.829 569.301 126.516L569.736 126.019L554.196 120.062L554.009 119.989L553.854 120.134C549.743 124.118 544.711 127.022 539.205 128.588C534.501 129.883 529.575 130.166 524.753 129.418C519.932 128.67 515.324 126.907 511.233 124.247C507.883 122.05 504.929 119.3 502.499 116.115C498.978 111.465 496.696 105.996 495.869 100.223C495.745 99.1865 495.641 98.3163 495.548 97.5289C495.455 96.7416 495.548 96.0993 495.496 95.5502C495.444 95.0011 495.496 94.6385 495.496 94.3381C495.548 94.3302 495.595 94.3032 495.627 94.2623C495.66 94.2214 495.676 94.1697 495.672 94.1176C495.668 94.0655 495.644 94.0168 495.606 93.9813C495.568 93.9458 495.517 93.926 495.465 93.926C495.413 93.926 495.362 93.9458 495.324 93.9813C495.286 94.0168 495.262 94.0655 495.258 94.1176C495.254 94.1697 495.27 94.2214 495.303 94.2623C495.335 94.3032 495.382 94.3302 495.434 94.3381C495.434 94.6385 495.434 95.0425 495.434 95.5502C495.434 96.0578 495.434 96.7623 495.434 97.5497C495.434 98.337 495.61 99.2383 495.714 100.264C496.054 102.756 496.648 105.207 497.485 107.578C498.671 110.71 500.267 113.671 502.23 116.384C504.67 119.626 507.644 122.429 511.026 124.672C515.167 127.399 519.84 129.213 524.736 129.995C529.632 130.778 534.638 130.51 539.422 129.21C544.994 127.627 550.09 124.695 554.258 120.673L553.916 120.746L569.456 126.734L570.233 127.034L569.891 126.237C567.426 120.549 564.877 114.685 562.287 108.697V108.997L562.764 107.785C564.275 103.817 565.027 99.5997 564.981 95.3533C565.013 91.2356 564.311 87.1451 562.909 83.2736C560.276 76.0653 555.362 69.9139 548.912 65.7548C546.002 63.8571 542.815 62.4241 539.464 61.5072C538.671 61.2564 537.861 61.0659 537.04 60.9374C536.232 60.7924 535.434 60.5852 534.626 60.5127C533.042 60.316 531.446 60.226 529.85 60.2433C526.812 60.2562 523.789 60.6672 520.857 61.4658C518.144 62.2364 515.532 63.3285 513.077 64.7188C508.782 67.1353 505.049 70.4371 502.126 74.4054C499.901 77.4548 498.176 80.8403 497.019 84.4339C496.801 85.1798 496.594 85.8947 496.408 86.5059C496.243 87.1304 496.112 87.7633 496.014 88.4018C495.792 89.3906 495.646 90.395 495.579 91.4062C495.517 92.2039 495.475 92.8151 495.444 93.271C495.401 93.4961 495.387 93.726 495.403 93.9547Z" fill="#263238"/>
</g>
<defs>
<clipPath id="clip0_1047_6001">
<rect width="777" height="518" fill="white"/>
</clipPath>
</defs>
</svg>
