<svg width="13" height="13" viewBox="0 0 13 13" fill="none" xmlns="http://www.w3.org/2000/svg">
<g clip-path="url(#clip0_3133_3805)">
<path d="M7.87305 7.25049V4.50049C7.87305 3.97006 7.66233 3.46135 7.28726 3.08627C6.91219 2.7112 6.40348 2.50049 5.87305 2.50049C5.34261 2.50049 4.83391 2.7112 4.45883 3.08627C4.08376 3.46135 3.87305 3.97006 3.87305 4.50049V7.25049C3.87305 8.11244 4.21546 8.93909 4.82495 9.54858C5.43444 10.1581 6.26109 10.5005 7.12305 10.5005C7.985 10.5005 8.81165 10.1581 9.42114 9.54858C10.0306 8.93909 10.373 8.11244 10.373 7.25049V2.50049H11.373V7.25049C11.373 8.37766 10.9253 9.45866 10.1283 10.2557C9.33122 11.0527 8.25022 11.5005 7.12305 11.5005C5.99588 11.5005 4.91487 11.0527 4.11784 10.2557C3.32081 9.45866 2.87305 8.37766 2.87305 7.25049V4.50049C2.87305 3.70484 3.18912 2.94178 3.75173 2.37917C4.31434 1.81656 5.0774 1.50049 5.87305 1.50049C6.6687 1.50049 7.43176 1.81656 7.99437 2.37917C8.55698 2.94178 8.87305 3.70484 8.87305 4.50049V7.25049C8.87305 7.71462 8.68867 8.15974 8.36048 8.48793C8.0323 8.81611 7.58718 9.00049 7.12305 9.00049C6.65892 9.00049 6.2138 8.81611 5.88561 8.48793C5.55742 8.15974 5.37305 7.71462 5.37305 7.25049V4.50049H6.37305V7.25049C6.37305 7.4494 6.45206 7.64017 6.59272 7.78082C6.73337 7.92147 6.92413 8.00049 7.12305 8.00049C7.32196 8.00049 7.51272 7.92147 7.65338 7.78082C7.79403 7.64017 7.87305 7.4494 7.87305 7.25049Z" fill="#3C3C3C"/>
</g>
<defs>
<clipPath id="clip0_3133_3805">
<rect width="12" height="12" fill="white" transform="translate(0.875 0.5)"/>
</clipPath>
</defs>
</svg>
