<svg width="24" height="25" viewBox="0 0 24 25" fill="none" xmlns="http://www.w3.org/2000/svg">
<g clip-path="url(#clip0_2673_1801)">
<path d="M7.443 5.8501C8.082 5.8501 8.673 5.9001 9.213 6.0481C9.70301 6.13814 10.1708 6.32293 10.59 6.5921C10.984 6.8391 11.279 7.1861 11.475 7.6311C11.672 8.0761 11.77 8.6211 11.77 9.2141C11.77 9.9071 11.623 10.5001 11.279 10.9451C10.984 11.3911 10.492 11.7861 9.902 12.0831C10.738 12.3311 11.377 12.7761 11.77 13.3691C12.164 13.9631 12.41 14.7051 12.41 15.5461C12.41 16.2391 12.262 16.8321 12.016 17.3271C11.77 17.8221 11.377 18.2671 10.934 18.5641C10.4528 18.8825 9.92084 19.1165 9.361 19.2561C8.771 19.4051 8.181 19.5041 7.591 19.5041H1V5.8501H7.443ZM7.049 11.3901C7.59 11.3901 8.033 11.2421 8.377 10.9951C8.721 10.7481 8.869 10.3021 8.869 9.7581C8.869 9.4611 8.819 9.1641 8.721 8.9671C8.623 8.7691 8.475 8.6201 8.279 8.4721C8.082 8.3731 7.885 8.2741 7.639 8.2251C7.393 8.1751 7.148 8.1751 6.852 8.1751H4V11.3911H7.05L7.049 11.3901ZM7.197 17.2281C7.492 17.2281 7.787 17.1781 8.033 17.1291C8.28137 17.0819 8.51628 16.9805 8.721 16.8321C8.92138 16.6873 9.08903 16.502 9.213 16.2881C9.311 16.0411 9.41 15.7441 9.41 15.3981C9.41 14.7051 9.213 14.2101 8.82 13.8641C8.426 13.5671 7.885 13.4191 7.246 13.4191H4V17.2291H7.197V17.2281ZM16.689 17.1781C17.082 17.5741 17.672 17.7721 18.459 17.7721C19 17.7721 19.492 17.6241 19.885 17.3771C20.279 17.0801 20.525 16.7831 20.623 16.4861H23.033C22.639 17.6731 22.049 18.5141 21.263 19.0581C20.475 19.5531 19.541 19.8501 18.41 19.8501C17.6864 19.8523 16.9688 19.7179 16.295 19.4541C15.6887 19.2266 15.148 18.8529 14.721 18.3661C14.2643 17.9107 13.9267 17.3498 13.738 16.7331C13.492 16.0901 13.393 15.3981 13.393 14.6061C13.393 13.8641 13.492 13.1721 13.738 12.5281C13.9745 11.9082 14.3245 11.3378 14.77 10.8461C15.213 10.4011 15.754 10.0061 16.344 9.7581C17.0007 9.49416 17.7022 9.35969 18.41 9.3621C19.246 9.3621 19.984 9.5111 20.623 9.8571C21.263 10.2031 21.754 10.5991 22.148 11.1931C22.5499 11.7636 22.8494 12.3998 23.033 13.0731C23.131 13.7651 23.18 14.4581 23.131 15.2491H16C16 16.0411 16.295 16.7831 16.689 17.1791V17.1781ZM19.787 11.9841C19.443 11.6381 18.902 11.4401 18.262 11.4401C17.82 11.4401 17.475 11.5391 17.18 11.6871C16.885 11.8361 16.689 12.0341 16.492 12.2321C16.311 12.4234 16.1912 12.6643 16.148 12.9241C16.098 13.1721 16.049 13.3691 16.049 13.5671H20.475C20.377 12.8251 20.131 12.3311 19.787 11.9841ZM15.459 6.7901H20.967V8.1261H15.46V6.7901H15.459Z" fill="#747474"/>
</g>
<defs>
<clipPath id="clip0_2673_1801">
<rect width="24" height="24" fill="white" transform="translate(0 0.5)"/>
</clipPath>
</defs>
</svg>
