<svg width="32" height="33" viewBox="0 0 32 33" fill="none" xmlns="http://www.w3.org/2000/svg">
<g id="chat-icon">
<g id="Union">
<path d="M9.4974 16.8126C9.4974 16.4862 9.59809 16.2119 9.79948 15.9897C10.0078 15.7605 10.3064 15.6459 10.6953 15.6459C11.0842 15.6459 11.3793 15.7605 11.5807 15.9897C11.7891 16.2119 11.8932 16.4862 11.8932 16.8126C11.8932 17.132 11.7891 17.4029 11.5807 17.6251C11.3793 17.8473 11.0842 17.9584 10.6953 17.9584C10.3064 17.9584 10.0078 17.8473 9.79948 17.6251C9.59809 17.4029 9.4974 17.132 9.4974 16.8126Z" fill="#B5B5B5"/>
<path d="M15.1224 16.8126C15.1224 16.4862 15.2231 16.2119 15.4245 15.9897C15.6328 15.7605 15.9314 15.6459 16.3203 15.6459C16.7092 15.6459 17.0043 15.7605 17.2057 15.9897C17.4141 16.2119 17.5182 16.4862 17.5182 16.8126C17.5182 17.132 17.4141 17.4029 17.2057 17.6251C17.0043 17.8473 16.7092 17.9584 16.3203 17.9584C15.9314 17.9584 15.6328 17.8473 15.4245 17.6251C15.2231 17.4029 15.1224 17.132 15.1224 16.8126Z" fill="#B5B5B5"/>
<path d="M21.0495 15.9897C20.8481 16.2119 20.7474 16.4862 20.7474 16.8126C20.7474 17.132 20.8481 17.4029 21.0495 17.6251C21.2578 17.8473 21.5564 17.9584 21.9453 17.9584C22.3342 17.9584 22.6293 17.8473 22.8307 17.6251C23.0391 17.4029 23.1432 17.132 23.1432 16.8126C23.1432 16.4862 23.0391 16.2119 22.8307 15.9897C22.6293 15.7605 22.3342 15.6459 21.9453 15.6459C21.5564 15.6459 21.2578 15.7605 21.0495 15.9897Z" fill="#B5B5B5"/>
<path fill-rule="evenodd" clip-rule="evenodd" d="M2.66408 29.8334L9.71874 28.2654C11.6502 29.298 13.8072 29.8367 15.9974 29.8334C23.3614 29.8334 29.3307 23.8641 29.3307 16.5001C29.3307 9.13608 23.3614 3.16675 15.9974 3.16675C8.63341 3.16675 2.66408 9.13608 2.66408 16.5001C2.66078 18.6903 3.19945 20.8473 4.23208 22.7787L2.66408 29.8334ZM10.9761 25.9147L10.1054 25.4481L6.17608 26.3214L7.04941 22.3921L6.58408 21.5214C5.76408 19.9907 5.33074 18.2787 5.33074 16.5001C5.33074 14.3904 5.95633 12.3281 7.1284 10.574C8.30047 8.81987 9.96638 7.4527 11.9155 6.64537C13.8645 5.83803 16.0092 5.6268 18.0784 6.03837C20.1475 6.44995 22.0481 7.46585 23.5399 8.95761C25.0316 10.4494 26.0475 12.35 26.4591 14.4191C26.8707 16.4882 26.6595 18.633 25.8521 20.582C25.0448 22.5311 23.6776 24.197 21.9235 25.3691C20.1694 26.5412 18.1071 27.1667 15.9974 27.1667C14.2459 27.1704 12.5208 26.7403 10.9761 25.9147Z" fill="#B5B5B5"/>
</g>
</g>
</svg>
