<svg width="248" height="248" viewBox="0 0 248 248" fill="none" xmlns="http://www.w3.org/2000/svg">
<path d="M67 127.551L109.354 159.323C111.978 161.291 115.249 162.194 118.511 161.852C121.773 161.509 124.785 159.947 126.943 157.477L210 62.5508" stroke="#21AE47" stroke-width="13" stroke-linecap="round"/>
<path d="M241 123.551C241 147.997 233.343 171.83 219.103 191.702C204.864 211.574 184.757 226.486 161.608 234.344C138.458 242.202 113.429 242.611 90.0349 235.514C66.6409 228.417 46.0575 214.171 31.1757 194.775C16.294 175.38 7.86146 151.81 7.06252 127.376C6.26358 102.943 13.1384 78.8723 26.7213 58.5462C40.3042 38.2201 59.913 22.6592 82.7934 14.0492C105.674 5.43925 130.677 4.21261 154.29 10.5416" stroke="#21AE47" stroke-width="13" stroke-linecap="round"/>
</svg>
