<?xml version="1.0" encoding="UTF-8" standalone="no"?>
<svg
   version="1.1"
   width="256"
   height="256"
   viewBox="0 0 256 256"
   xml:space="preserve"
   id="svg2"
   sodipodi:docname="clock.svg"
   inkscape:version="1.4.2 (ebf0e940d0, 2025-05-08)"
   xmlns:inkscape="http://www.inkscape.org/namespaces/inkscape"
   xmlns:sodipodi="http://sodipodi.sourceforge.net/DTD/sodipodi-0.dtd"
   xmlns="http://www.w3.org/2000/svg"
   xmlns:svg="http://www.w3.org/2000/svg"><defs
   id="defs2" /><sodipodi:namedview
   id="namedview2"
   pagecolor="#ffffff"
   bordercolor="#000000"
   borderopacity="0.25"
   inkscape:showpageshadow="2"
   inkscape:pageopacity="0.0"
   inkscape:pagecheckerboard="0"
   inkscape:deskcolor="#d1d1d1"
   inkscape:zoom="1.390625"
   inkscape:cx="118.65169"
   inkscape:cy="117.57303"
   inkscape:window-width="1366"
   inkscape:window-height="768"
   inkscape:window-x="0"
   inkscape:window-y="0"
   inkscape:window-maximized="1"
   inkscape:current-layer="svg2" />
<g
   style="stroke: none; stroke-width: 0; stroke-dasharray: none; stroke-linecap: butt; stroke-linejoin: miter; stroke-miterlimit: 10; fill: none; fill-rule: nonzero; opacity: 1;"
   transform="translate(1.4065934065934016 1.4065934065934016) scale(2.81 2.81)"
   id="g2">
	<path
   d="M 45 90 C 20.187 90 0 69.813 0 45 C 0 20.187 20.187 0 45 0 c 24.813 0 45 20.187 45 45 C 90 69.813 69.813 90 45 90 z M 45 6 C 23.495 6 6 23.495 6 45 s 17.495 39 39 39 s 39 -17.495 39 -39 S 66.505 6 45 6 z"
   style="stroke: none; stroke-width: 1; stroke-dasharray: none; stroke-linecap: butt; stroke-linejoin: miter; stroke-miterlimit: 10; fill: rgb(0,0,0); fill-rule: nonzero; opacity: 1;"
   transform=" matrix(1 0 0 1 0 0) "
   stroke-linecap="round"
   id="path1" />
	<path
   d="M 70.794 42 H 48 V 19.206 c 0 -1.657 -1.343 -3 -3 -3 c -1.657 0 -3 1.343 -3 3 V 45 c 0 1.657 1.343 3 3 3 h 25.794 c 1.657 0 3 -1.343 3 -3 C 73.794 43.343 72.451 42 70.794 42 z"
   style="stroke: none; stroke-width: 1; stroke-dasharray: none; stroke-linecap: butt; stroke-linejoin: miter; stroke-miterlimit: 10; fill: rgb(0,0,0); fill-rule: nonzero; opacity: 1;"
   transform=" matrix(1 0 0 1 0 0) "
   stroke-linecap="round"
   id="path2" />
</g>
<path
   style="fill:#ffffff;stroke-width:0.719101"
   d="M 116.85393,236.52091 C 89.867419,233.74776 63.548136,220.05137 45.771726,199.53017 33.151282,184.96105 25.0096,168.56399 20.730854,149.09874 18.617197,139.48309 18.433897,117.95967 20.382982,108.25081 24.954901,85.476988 34.637271,67.379532 51.008401,51.008401 c 16.371131,-16.37113 34.468587,-26.0535 57.242409,-30.625419 9.70886,-1.949085 31.23228,-1.765785 40.84793,0.347872 33.36571,7.334268 60.48118,27.771931 75.52661,56.92644 15.95757,30.922016 16.52678,66.239806 1.56984,97.403126 -19.75094,41.15178 -64.14392,66.10498 -109.34126,61.46049 z m 89.57234,-102.58278 c 1.14558,-1.28234 2.2939,-3.17233 2.55182,-4.19998 0.76713,-3.05646 -0.93699,-7.3773 -3.53411,-8.96087 -2.19002,-1.33533 -3.85952,-1.40124 -35.55634,-1.4038 l -33.25843,-0.003 V 86.256424 c 0,-28.192756 -0.16212,-33.427873 -1.09082,-35.223783 -2.54253,-4.91671 -10.3636,-5.730475 -14.16675,-1.474017 l -2.00085,2.239347 v 39.586493 c 0,26.599096 0.25097,40.055446 0.76499,41.015896 0.42075,0.78618 1.79603,2.06264 3.05618,2.83659 2.21137,1.35816 3.66485,1.40066 41.72131,1.21995 l 39.43013,-0.18724 z"
   id="path3" /><path
   style="fill:#ffffff;stroke-width:0.719101"
   d="M 116.85393,236.52091 C 74.774058,232.19677 37.872523,202.6967 24.458058,162.6572 20.077832,149.5831 19.136383,143.4521 19.136258,128 19.136129,112.13449 20.216606,105.33799 24.859468,91.999382 30.499515,75.795947 38.032204,63.986484 51.008401,51.004079 67.415095,34.589537 85.395168,24.971327 108.25081,20.382982 c 9.73275,-1.953881 31.27297,-1.788157 40.78902,0.31382 33.44609,7.387828 60.53976,27.805353 75.58552,56.960492 16.2922,31.570456 16.56834,67.197376 0.76641,98.882036 -20.13271,40.36838 -63.91975,64.56655 -108.53783,59.98158 z m 87.3492,-100.81165 c 2.29549,-1.16153 5.0553,-5.27078 5.0553,-7.52715 0,-2.7815 -2.16348,-6.62028 -4.37587,-7.76435 -1.68645,-0.8721 -7.55575,-1.04697 -35.13898,-1.04697 H 136.62921 V 86.628589 c 0,-35.956087 -0.0717,-36.61427 -4.22224,-38.760603 -2.74275,-1.418333 -6.0333,-1.43792 -8.71364,-0.05187 -4.50554,2.329908 -4.32254,0.498346 -4.32254,43.263368 0,23.584776 0.27697,39.712696 0.70117,40.828426 0.38565,1.01433 1.76094,2.49037 3.05618,3.28008 2.2767,1.3881 3.63435,1.43559 40.82692,1.42793 29.33471,-0.006 38.89375,-0.22136 40.24807,-0.90666 z"
   id="path4" /><path
   style="fill:#ffffff;stroke-width:0.719101"
   d="m 119.73034,236.86975 c -8.37192,-0.84852 -18.16366,-2.8803 -25.548141,-5.30122 C 56.250819,219.13312 28.356484,187.42624 20.367122,147.66455 18.421387,137.98096 18.605352,116.49052 20.71796,106.68026 25.562243,84.184999 34.787826,67.228977 51.008401,51.008401 67.225587,34.791216 84.151974,25.580179 106.68026,20.712773 c 10.52412,-2.273815 32.14668,-2.284618 42.35957,-0.02116 27.25602,6.040681 49.93951,20.379228 65.92876,41.674467 25.10464,33.435558 29.05759,76.75494 10.41846,114.17325 -15.43099,30.97792 -44.96511,52.95007 -79.22129,58.93732 -6.46609,1.13014 -21.31123,1.91245 -26.43542,1.3931 z m 86.67248,-102.90537 c 2.70847,-3.03184 3.34442,-6.51469 1.7883,-9.79396 -2.28459,-4.81441 -2.16528,-4.79963 -38.74478,-4.79963 h -32.76327 l -0.2067,-33.617981 c -0.22384,-36.404555 -0.1151,-35.427772 -4.2136,-37.84882 -4.05691,-2.396475 -10.65941,-0.468997 -12.19081,3.558885 -0.42377,1.114611 -0.70117,17.060269 -0.70117,40.305043 0,33.487903 0.14548,38.742143 1.12518,40.636683 2.18433,4.22402 1.95012,4.20295 44.77686,4.02626 l 39.07058,-0.1612 z"
   id="path5" /></svg>
