<svg width="20" height="21" viewBox="0 0 20 21" fill="none" xmlns="http://www.w3.org/2000/svg">
<g clip-path="url(#clip0_192_5439)">
<path d="M3.33268 7.16675H16.666V18.0001C16.666 18.2211 16.5782 18.4331 16.4219 18.5893C16.2657 18.7456 16.0537 18.8334 15.8327 18.8334H4.16602C3.945 18.8334 3.73304 18.7456 3.57676 18.5893C3.42048 18.4331 3.33268 18.2211 3.33268 18.0001V7.16675ZM4.99935 8.83342V17.1667H14.9993V8.83342H4.99935ZM7.49935 10.5001H9.16602V15.5001H7.49935V10.5001ZM10.8327 10.5001H12.4993V15.5001H10.8327V10.5001ZM5.83268 4.66675V3.00008C5.83268 2.77907 5.92048 2.56711 6.07676 2.41083C6.23304 2.25455 6.445 2.16675 6.66602 2.16675H13.3327C13.5537 2.16675 13.7657 2.25455 13.9219 2.41083C14.0782 2.56711 14.166 2.77907 14.166 3.00008V4.66675H18.3327V6.33342H1.66602V4.66675H5.83268ZM7.49935 3.83341V4.66675H12.4993V3.83341H7.49935Z" fill="#C01717"/>
</g>
<defs>
<clipPath id="clip0_192_5439">
<rect width="20" height="20" fill="white" transform="translate(0 0.5)"/>
</clipPath>
</defs>
</svg>
