<svg width="42" height="42" viewBox="0 0 42 42" fill="none" xmlns="http://www.w3.org/2000/svg">
<path d="M12.1111 21L19.3511 26.4311C19.7996 26.7675 20.3588 26.9219 20.9164 26.8634C21.474 26.8049 21.9889 26.5377 22.3578 26.1156L36.5556 9.88889M41 20.9996C41.0001 25.1786 39.6911 29.2526 37.257 32.6494C34.8229 36.0463 31.3859 38.5954 27.4287 39.9386C23.4715 41.2819 19.193 41.3519 15.194 40.1387C11.195 38.9256 7.6765 36.4903 5.13261 33.1748C2.58872 29.8594 1.14726 25.8303 1.01069 21.6536C0.874117 17.4769 2.04929 13.3623 4.37116 9.88777C6.69303 6.41322 10.045 3.75325 13.9561 2.28146C17.8673 0.80966 22.1413 0.599978 26.1778 1.68186" stroke="#007AEA" stroke-width="2" stroke-linecap="round"/>
</svg>
