<svg width="24" height="25" viewBox="0 0 24 25" fill="none" xmlns="http://www.w3.org/2000/svg">
<g clip-path="url(#clip0_568_2115)">
<path d="M17.8822 19.5598C16.1234 20.6753 14.0829 21.2661 12.0002 21.2628C6.60815 21.2628 2.12215 17.3828 1.18115 12.2628C1.61118 9.93348 2.78278 7.80566 4.52115 6.19676L1.39215 3.07076L2.80715 1.65576L22.6062 21.4558L21.1912 22.8698L17.8812 19.5598H17.8822ZM5.93515 7.61276C4.57616 8.84835 3.62947 10.4715 3.22315 12.2628C3.53545 13.6292 4.16242 14.9039 5.05416 15.9854C5.94589 17.0668 7.07778 17.9252 8.3597 18.4921C9.64163 19.059 11.0382 19.3188 12.4382 19.2509C13.8383 19.183 15.2031 18.7891 16.4242 18.1008L14.3962 16.0728C13.5328 16.6166 12.5104 16.8509 11.4964 16.7372C10.4824 16.6235 9.53719 16.1687 8.81572 15.4472C8.09425 14.7257 7.63938 13.7805 7.52571 12.7665C7.41205 11.7526 7.64634 10.7301 8.19015 9.86676L5.93515 7.61276ZM12.9142 14.5908L9.67215 11.3488C9.49422 11.8017 9.45234 12.2967 9.55166 12.7731C9.65098 13.2495 9.88717 13.6865 10.2313 14.0306C10.5754 14.3747 11.0124 14.6109 11.4888 14.7103C11.9652 14.8096 12.4602 14.7677 12.9132 14.5898L12.9142 14.5908ZM20.8072 16.8548L19.3762 15.4248C20.0446 14.4721 20.5205 13.3979 20.7772 12.2628C20.5054 11.0725 19.9944 9.94991 19.2753 8.96326C18.5562 7.9766 17.6439 7.14649 16.594 6.52337C15.5441 5.90024 14.3784 5.49713 13.1679 5.33853C11.9573 5.17992 10.7272 5.26914 9.55215 5.60076L7.97415 4.02276C9.22115 3.53276 10.5802 3.26276 12.0002 3.26276C17.3922 3.26276 21.8782 7.14276 22.8192 12.2628C22.5127 13.9285 21.824 15.5003 20.8072 16.8548ZM11.7232 7.77076C12.3597 7.73143 12.9973 7.82783 13.5937 8.05358C14.1901 8.27933 14.7318 8.62927 15.1827 9.08021C15.6336 9.53115 15.9836 10.0728 16.2093 10.6692C16.4351 11.2656 16.5315 11.9033 16.4922 12.5398L11.7222 7.77076H11.7232Z" fill="#B5B5B5"/>
</g>
<defs>
<clipPath id="clip0_568_2115">
<rect width="24" height="24" fill="white" transform="translate(0 0.262695)"/>
</clipPath>
</defs>
</svg>
