<svg width="24" height="25" viewBox="0 0 24 25" fill="none" xmlns="http://www.w3.org/2000/svg">
<g clip-path="url(#clip0_568_2178)">
<path d="M12.0002 3.2627C17.3922 3.2627 21.8782 7.1427 22.8192 12.2627C21.8792 17.3827 17.3922 21.2627 12.0002 21.2627C6.60815 21.2627 2.12215 17.3827 1.18115 12.2627C2.12115 7.1427 6.60815 3.2627 12.0002 3.2627ZM12.0002 19.2627C14.0396 19.2623 16.0185 18.5695 17.613 17.2979C19.2075 16.0262 20.3231 14.251 20.7772 12.2627C20.3214 10.276 19.2051 8.5027 17.6108 7.23272C16.0165 5.96274 14.0385 5.27122 12.0002 5.27122C9.96185 5.27122 7.98384 5.96274 6.38953 7.23272C4.79521 8.5027 3.67892 10.276 3.22315 12.2627C3.67725 14.251 4.79283 16.0262 6.3873 17.2979C7.98177 18.5695 9.96068 19.2623 12.0002 19.2627ZM12.0002 16.7627C10.8067 16.7627 9.66209 16.2886 8.81817 15.4447C7.97426 14.6008 7.50015 13.4562 7.50015 12.2627C7.50015 11.0692 7.97426 9.92463 8.81817 9.08072C9.66209 8.2368 10.8067 7.7627 12.0002 7.7627C13.1936 7.7627 14.3382 8.2368 15.1821 9.08072C16.026 9.92463 16.5002 11.0692 16.5002 12.2627C16.5002 13.4562 16.026 14.6008 15.1821 15.4447C14.3382 16.2886 13.1936 16.7627 12.0002 16.7627ZM12.0002 14.7627C12.6632 14.7627 13.2991 14.4993 13.7679 14.0305C14.2368 13.5616 14.5002 12.9257 14.5002 12.2627C14.5002 11.5997 14.2368 10.9638 13.7679 10.4949C13.2991 10.0261 12.6632 9.7627 12.0002 9.7627C11.3371 9.7627 10.7012 10.0261 10.2324 10.4949C9.76355 10.9638 9.50015 11.5997 9.50015 12.2627C9.50015 12.9257 9.76355 13.5616 10.2324 14.0305C10.7012 14.4993 11.3371 14.7627 12.0002 14.7627Z" fill="#B5B5B5"/>
</g>
<defs>
<clipPath id="clip0_568_2178">
<rect width="24" height="24" fill="white" transform="translate(0 0.262695)"/>
</clipPath>
</defs>
</svg>
