<svg width="32" height="32" viewBox="0 0 32 32" fill="none" xmlns="http://www.w3.org/2000/svg">
<g clip-path="url(#clip0_192_6405)">
<path d="M15.9998 2.66663C8.63584 2.66663 2.6665 8.63596 2.6665 16C2.6665 22.6546 7.5425 28.1706 13.9172 29.172V19.8533H10.5305V16H13.9172V13.0626C13.9172 9.72129 15.9065 7.87596 18.9532 7.87596C20.4118 7.87596 21.9372 8.13596 21.9372 8.13596V11.416H20.2572C18.5998 11.416 18.0838 12.444 18.0838 13.4986V16H21.7812L21.1905 19.8533H18.0838V29.172C24.4572 28.172 29.3332 22.6533 29.3332 16C29.3332 8.63596 23.3638 2.66663 15.9998 2.66663Z" fill="white"/>
</g>
<defs>
<clipPath id="clip0_192_6405">
<rect width="32" height="32" fill="white"/>
</clipPath>
</defs>
</svg>
