<svg width="24" height="24" viewBox="0 0 24 24" fill="none" xmlns="http://www.w3.org/2000/svg">
<path d="M12.0015 7.1999C10.7284 7.1999 9.50751 7.70562 8.60734 8.60579C7.70716 9.50596 7.20145 10.7269 7.20145 11.9999C7.20145 13.2729 7.70716 14.4938 8.60734 15.394C9.50751 16.2942 10.7284 16.7999 12.0015 16.7999C13.2745 16.7999 14.4954 16.2942 15.3956 15.394C16.2957 14.4938 16.8015 13.2729 16.8015 11.9999C16.8015 10.7269 16.2957 9.50596 15.3956 8.60579C14.4954 7.70562 13.2745 7.1999 12.0015 7.1999ZM8.40145 11.9999C8.40145 11.0451 8.78074 10.1294 9.45587 9.45432C10.131 8.77919 11.0467 8.3999 12.0015 8.3999C12.9562 8.3999 13.8719 8.77919 14.547 9.45432C15.2222 10.1294 15.6015 11.0451 15.6015 11.9999C15.6015 12.9547 15.2222 13.8704 14.547 14.5455C13.8719 15.2206 12.9562 15.5999 12.0015 15.5999C11.0467 15.5999 10.131 15.2206 9.45587 14.5455C8.78074 13.8704 8.40145 12.9547 8.40145 11.9999ZM9.75025 2.3999C9.4167 2.39991 9.08972 2.4926 8.80578 2.66762C8.52185 2.84265 8.29212 3.09312 8.14225 3.3911L7.43425 4.7999H5.40625C4.6106 4.7999 3.84754 5.11597 3.28493 5.67858C2.72232 6.24119 2.40625 7.00425 2.40625 7.7999V17.3999C2.40625 18.1956 2.72232 18.9586 3.28493 19.5212C3.84754 20.0838 4.6106 20.3999 5.40625 20.3999H18.6063C19.4019 20.3999 20.165 20.0838 20.7276 19.5212C21.2902 18.9586 21.6063 18.1956 21.6063 17.3999V7.7999C21.6063 7.00425 21.2902 6.24119 20.7276 5.67858C20.165 5.11597 19.4019 4.7999 18.6063 4.7999H16.5783L15.8775 3.3959C15.7281 3.09666 15.4983 2.84496 15.2138 2.66904C14.9293 2.49311 14.6015 2.39991 14.2671 2.3999H9.75025ZM9.21385 3.9299C9.2639 3.83059 9.34056 3.74714 9.43527 3.68887C9.52999 3.6306 9.63904 3.59979 9.75025 3.5999H14.2671C14.3786 3.59968 14.488 3.63056 14.5829 3.68906C14.6779 3.74757 14.7547 3.83138 14.8047 3.9311L15.6723 5.6675C15.7221 5.76704 15.7987 5.85073 15.8934 5.90923C15.9882 5.96772 16.0973 5.9987 16.2087 5.9987H18.6075C19.0848 5.9987 19.5427 6.18834 19.8802 6.52591C20.2178 6.86348 20.4075 7.32131 20.4075 7.7987V17.3999C20.4075 17.8773 20.2178 18.3351 19.8802 18.6727C19.5427 19.0103 19.0848 19.1999 18.6075 19.1999H5.40745C4.93006 19.1999 4.47222 19.0103 4.13466 18.6727C3.79709 18.3351 3.60745 17.8773 3.60745 17.3999V7.7999C3.60745 7.32251 3.79709 6.86468 4.13466 6.52711C4.47222 6.18954 4.93006 5.9999 5.40745 5.9999H7.80505C7.91618 5.99968 8.02506 5.96859 8.11956 5.91011C8.21406 5.85163 8.29046 5.76806 8.34025 5.6687L9.21385 3.9299Z" fill="#636363"/>
</svg>
