<svg width="57" height="56" viewBox="0 0 57 56" fill="none" xmlns="http://www.w3.org/2000/svg">
<g id="fluent:hand-wave-24-filled">
<path id="Vector" d="M19.0262 6.20655C18.9284 5.9103 18.7722 5.63666 18.5668 5.40182C18.3615 5.16697 18.1111 4.9757 17.8305 4.83931C17.5499 4.70291 17.2449 4.62417 16.9333 4.60773C16.6218 4.5913 16.3101 4.6375 16.0167 4.74361C15.7234 4.84973 15.4543 5.01359 15.2253 5.22552C14.9964 5.43745 14.8123 5.69314 14.6839 5.97746C14.5555 6.26178 14.4854 6.56897 14.4778 6.88085C14.4701 7.19273 14.5251 7.50297 14.6395 7.79322L19.8895 22.3369C20.0287 22.7288 20.0085 23.1597 19.8332 23.5369C19.6579 23.914 19.3415 24.2073 18.9522 24.3535C18.5628 24.4997 18.1316 24.4872 17.7513 24.3186C17.3711 24.15 17.0723 23.8389 16.9192 23.4522L12.0075 10.8219C11.8964 10.5363 11.7302 10.2754 11.5183 10.0541C11.3064 9.83273 11.0529 9.6553 10.7725 9.5319C10.492 9.40851 10.1899 9.34157 9.8836 9.3349C9.57725 9.32824 9.27258 9.38198 8.987 9.49305C8.41024 9.71738 7.94622 10.1616 7.69702 10.7281C7.57362 11.0086 7.50668 11.3106 7.50002 11.617C7.49335 11.9233 7.54709 12.228 7.65817 12.5136L15.0292 31.4649C11.0578 31.0356 8.22283 32.0482 6.5125 33.0236C6.05004 33.2797 5.67634 33.6704 5.44091 34.1438C5.20548 34.6171 5.11943 35.1509 5.19417 35.6742C5.33183 36.6472 5.98517 37.4639 6.8905 37.8606C10.0078 39.2256 17.1245 42.7326 23.2192 48.5472C25.6132 50.8292 29.1038 51.9796 32.4662 50.9739L38.9972 49.0186C40.9338 48.4375 42.5532 46.9512 43.1388 44.9072C43.8388 42.4642 44.8328 38.3272 44.8328 34.4166C44.8328 31.7332 43.8925 28.3849 43.0362 25.8532C41.3375 20.8482 39.4382 15.9016 37.7045 10.9036C37.5018 10.3188 37.0752 9.83841 36.5183 9.5682C35.9615 9.29799 35.3201 9.26005 34.7353 9.46272C34.1505 9.66539 33.6702 10.0921 33.4 10.6489C33.1298 11.2057 33.0918 11.8471 33.2945 12.4319L35.6138 19.1146C35.758 19.5239 35.7337 19.9738 35.5462 20.3652C35.3587 20.7566 35.0234 21.0575 34.614 21.2017C34.2046 21.3459 33.7548 21.3216 33.3634 21.1341C32.9719 20.9466 32.671 20.6112 32.5268 20.2019L28.3642 8.54922C28.1478 7.97748 27.7156 7.51351 27.1607 7.25708C26.6057 7.00066 25.9723 6.97227 25.3966 7.17802C24.821 7.38376 24.349 7.80721 24.0823 8.3573C23.8157 8.90738 23.7755 9.54016 23.9705 10.1196L27.7458 20.6896C27.8823 21.0963 27.8539 21.5404 27.6668 21.9265C27.4797 22.3126 27.1487 22.61 26.7449 22.755C26.3411 22.8999 25.8966 22.8809 25.5066 22.702C25.1167 22.5231 24.8123 22.1985 24.6588 21.7979L19.0262 6.20655ZM43.9788 5.42022C44.1098 5.23126 44.2767 5.06995 44.47 4.94552C44.6633 4.82108 44.8792 4.73595 45.1055 4.695C45.3317 4.65405 45.5638 4.65807 45.7884 4.70684C46.0131 4.7556 46.226 4.84816 46.4148 4.97922C48.3002 6.28822 49.8635 8.58189 50.8435 11.1089C51.8328 13.6616 52.3135 16.6716 51.8072 19.5532C51.7267 20.0105 51.4679 20.4172 51.0876 20.6837C50.7074 20.9502 50.2368 21.0547 49.7795 20.9742C49.3222 20.8938 48.9156 20.6349 48.6491 20.2547C48.3826 19.8744 48.2781 19.4039 48.3585 18.9466C48.7318 16.8186 48.3888 14.4596 47.5792 12.3736C46.7625 10.2596 45.5515 8.64022 44.4175 7.85389C44.0369 7.58909 43.777 7.18409 43.6947 6.7278C43.6125 6.27151 43.7147 5.80123 43.9788 5.42022ZM43.1972 9.89089C42.8806 9.55084 42.442 9.35046 41.9777 9.33383C41.5134 9.3172 41.0616 9.48569 40.7215 9.80222C40.3815 10.1188 40.1811 10.5574 40.1644 11.0217C40.1478 11.486 40.3163 11.9378 40.6328 12.2779C41.6082 13.3232 42.4972 14.5879 42.4972 16.9166C42.4972 17.3807 42.6815 17.8258 43.0097 18.154C43.3379 18.4822 43.7831 18.6666 44.2472 18.6666C44.7113 18.6666 45.1564 18.4822 45.4846 18.154C45.8128 17.8258 45.9972 17.3807 45.9972 16.9166C45.9972 13.4166 44.5458 11.3399 43.1972 9.89089Z" fill="#FFC700"/>
</g>
</svg>
