<svg width="33" height="32" viewBox="0 0 33 32" fill="none" xmlns="http://www.w3.org/2000/svg">
<g clip-path="url(#clip0_192_6406)">
<path d="M5.47851 2.4187L19.0558 16L5.47984 29.5814C5.23843 29.4799 5.03241 29.3093 4.88769 29.091C4.74298 28.8728 4.66602 28.6166 4.66651 28.3547V3.64537C4.66661 3.3838 4.74365 3.12803 4.88803 2.90992C5.03241 2.6918 5.23776 2.52098 5.47851 2.4187ZM19.9985 16.9427L23.0678 20.012L8.48517 28.456L19.9985 16.9427ZM24.2638 12.6787L28.0065 14.8467C28.2086 14.9639 28.3763 15.1321 28.4929 15.3346C28.6094 15.537 28.6708 15.7664 28.6708 16C28.6708 16.2336 28.6094 16.4631 28.4929 16.6655C28.3763 16.8679 28.2086 17.0362 28.0065 17.1534L24.2625 19.3214L20.9412 16L24.2638 12.6787ZM8.48517 3.54403L23.0692 11.9867L19.9985 15.0574L8.48517 3.54403Z" fill="white"/>
</g>
<defs>
<clipPath id="clip0_192_6406">
<rect width="32" height="32" fill="white" transform="translate(0.666504)"/>
</clipPath>
</defs>
</svg>
