<svg width="49" height="51" viewBox="0 0 49 51" fill="none" xmlns="http://www.w3.org/2000/svg">
<path d="M36.0579 33.4C42.106 30.0979 46.6908 27.5817 47.086 27.386C48.3502 26.7176 49.6557 24.9482 47.086 23.5739C46.2563 23.1416 41.7892 20.7038 36.0579 17.5599L28.1128 25.5387L36.0579 33.3998V33.4Z" fill="#FFD900"/>
<path d="M28.1132 25.5385L2.81494 50.8916C3.40875 50.9698 4.07914 50.8133 4.86952 50.3812C6.5289 49.478 24.12 39.9256 36.0584 33.4016L28.1132 25.5385Z" fill="#F43249"/>
<path d="M28.113 25.5384L36.0581 17.5989C36.0581 17.5989 6.64866 1.63941 4.86928 0.6973C4.19889 0.302485 3.44764 0.185207 2.77539 0.302485L28.113 25.5384Z" fill="#00EE76"/>
<path d="M28.1128 25.538L2.77525 0.302124C1.74694 0.538531 0.87793 1.44192 0.87793 3.28945V47.9039C0.87793 49.5949 1.55037 50.8129 2.81456 50.9303L28.1128 25.538Z" fill="#00D3FF"/>
</svg>
