<svg width="13" height="13" viewBox="0 0 13 13" fill="none" xmlns="http://www.w3.org/2000/svg">
<g clip-path="url(#clip0_3133_3794)">
<path d="M3.29095 11L3.28095 11.01L3.27045 11H2.37295C2.24136 10.9999 2.1152 10.9475 2.0222 10.8544C1.92919 10.7613 1.87695 10.6351 1.87695 10.5035V2.4965C1.87787 2.36519 1.9304 2.23951 2.02321 2.14661C2.11602 2.05371 2.24164 2.00105 2.37295 2H11.381C11.655 2 11.877 2.2225 11.877 2.4965V10.5035C11.876 10.6348 11.8235 10.7605 11.7307 10.8534C11.6379 10.9463 11.5123 10.999 11.381 11H3.29095ZM10.877 8V3H2.87695V10L7.87695 5L10.877 8ZM10.877 9.414L7.87695 6.414L4.29095 10H10.877V9.414ZM4.87695 6C4.61174 6 4.35738 5.89464 4.16985 5.70711C3.98231 5.51957 3.87695 5.26522 3.87695 5C3.87695 4.73478 3.98231 4.48043 4.16985 4.29289C4.35738 4.10536 4.61174 4 4.87695 4C5.14217 4 5.39652 4.10536 5.58406 4.29289C5.7716 4.48043 5.87695 4.73478 5.87695 5C5.87695 5.26522 5.7716 5.51957 5.58406 5.70711C5.39652 5.89464 5.14217 6 4.87695 6Z" fill="#3C3C3C"/>
</g>
<defs>
<clipPath id="clip0_3133_3794">
<rect width="12" height="12" fill="white" transform="translate(0.875 0.5)"/>
</clipPath>
</defs>
</svg>
