<svg width="16" height="17" viewBox="0 0 16 17" fill="none" xmlns="http://www.w3.org/2000/svg">
<g clip-path="url(#clip0_2398_1326)">
<path d="M7.99967 15.1668C4.31767 15.1668 1.33301 12.1822 1.33301 8.50016C1.33301 4.81816 4.31767 1.8335 7.99967 1.8335C11.6817 1.8335 14.6663 4.81816 14.6663 8.50016C14.6663 12.1822 11.6817 15.1668 7.99967 15.1668ZM7.99967 13.8335C9.41416 13.8335 10.7707 13.2716 11.7709 12.2714C12.7711 11.2712 13.333 9.91465 13.333 8.50016C13.333 7.08567 12.7711 5.72912 11.7709 4.72893C10.7707 3.72873 9.41416 3.16683 7.99967 3.16683C6.58519 3.16683 5.22863 3.72873 4.22844 4.72893C3.22824 5.72912 2.66634 7.08567 2.66634 8.50016C2.66634 9.91465 3.22824 11.2712 4.22844 12.2714C5.22863 13.2716 6.58519 13.8335 7.99967 13.8335ZM7.33301 5.16683H8.66634V6.50016H7.33301V5.16683ZM7.33301 7.8335H8.66634V11.8335H7.33301V7.8335Z" fill="#636363"/>
</g>
<defs>
<clipPath id="clip0_2398_1326">
<rect width="16" height="16" fill="white" transform="translate(0 0.5)"/>
</clipPath>
</defs>
</svg>
