<?xml version="1.0" encoding="UTF-8" standalone="no"?>
<svg
   version="1.1"
   width="256"
   height="256"
   viewBox="0 0 256 256"
   xml:space="preserve"
   id="svg1"
   sodipodi:docname="leaf-green.svg"
   inkscape:version="1.4.2 (ebf0e940d0, 2025-05-08)"
   xmlns:inkscape="http://www.inkscape.org/namespaces/inkscape"
   xmlns:sodipodi="http://sodipodi.sourceforge.net/DTD/sodipodi-0.dtd"
   xmlns="http://www.w3.org/2000/svg"
   xmlns:svg="http://www.w3.org/2000/svg"><defs
   id="defs1"><linearGradient
     id="swatch8"><stop
       style="stop-color:#38857c;stop-opacity:1;"
       offset="0.14874038"
       id="stop8" /></linearGradient></defs><sodipodi:namedview
   id="namedview1"
   pagecolor="#ffffff"
   bordercolor="#000000"
   borderopacity="0.25"
   inkscape:showpageshadow="2"
   inkscape:pageopacity="0.0"
   inkscape:pagecheckerboard="0"
   inkscape:deskcolor="#d1d1d1"
   inkscape:zoom="1.390625"
   inkscape:cx="46.741573"
   inkscape:cy="177.97753"
   inkscape:window-width="1366"
   inkscape:window-height="768"
   inkscape:window-x="0"
   inkscape:window-y="0"
   inkscape:window-maximized="1"
   inkscape:current-layer="svg1" />
<g
   style="stroke: none; stroke-width: 0; stroke-dasharray: none; stroke-linecap: butt; stroke-linejoin: miter; stroke-miterlimit: 10; fill: none; fill-rule: nonzero; opacity: 1;"
   transform="translate(1.4065934065934016 1.4065934065934016) scale(2.81 2.81)"
   id="g1">
	<path
   d="M 30.648 90 h -4.666 c -0.276 0 -0.54 -0.114 -0.729 -0.315 c -0.189 -0.202 -0.287 -0.473 -0.269 -0.748 c 1.473 -23.129 7.78 -37.706 23.516 -52.984 c -11.987 6.803 -23.657 18.781 -25.661 35.247 c -0.051 0.42 -0.361 0.763 -0.774 0.854 c -0.414 0.094 -0.84 -0.086 -1.065 -0.443 c -8.808 -14.02 -8.505 -26.712 0.952 -39.944 c 5.454 -7.272 13.28 -11.279 20.185 -14.815 c 8.346 -4.273 15.554 -7.964 17.098 -16.04 c 0.078 -0.407 0.398 -0.723 0.807 -0.796 c 0.407 -0.073 0.818 0.113 1.032 0.467 c 10.854 17.977 19.798 35.828 10.159 56.542 c -7.694 13.752 -20.459 20.112 -37.994 18.96 c -1.01 4.324 -1.531 8.595 -1.59 13.028 C 31.641 89.561 31.195 90 30.648 90 z M 27.052 88 h 2.617 c 0.129 -4.515 0.728 -8.881 1.825 -13.313 c 0.118 -0.475 0.554 -0.793 1.049 -0.757 c 17.367 1.366 29.437 -4.464 36.911 -17.814 c 8.859 -19.047 1.472 -35.189 -8.879 -52.575 c -2.563 7.429 -9.851 11.161 -17.526 15.091 c -7.04 3.604 -14.319 7.332 -19.483 14.216 c -8.376 11.72 -9.128 23.011 -2.278 35.324 c 3.534 -18.634 18.924 -31.329 32.625 -37.12 c 0.452 -0.192 0.977 -0.027 1.237 0.39 c 0.261 0.416 0.181 0.959 -0.188 1.283 C 36.16 49.192 28.777 63.753 27.052 88 z"
   style="stroke: none; stroke-width: 1; stroke-dasharray: none; stroke-linecap: butt; stroke-linejoin: miter; stroke-miterlimit: 10; fill: rgb(0,0,0); fill-rule: nonzero; opacity: 1;"
   transform=" matrix(1 0 0 1 0 0) "
   stroke-linecap="round"
   id="path1" />
</g>
<path
   style="fill:#ffffff;stroke-width:0.508481"
   d="m 77.797636,247.38079 c 0,-0.69661 0.354575,-4.75811 0.787944,-9.02555 5.900598,-58.10394 25.0141,-96.0963 68.90934,-136.97268 9.43342,-8.784646 10.3771,-9.978631 9.23665,-11.686614 -0.20547,-0.307713 -0.87616,-0.82404 -1.49042,-1.147399 -1.36942,-0.720868 -3.4098,0.02297 -12.45236,4.539625 -34.74068,17.352568 -62.131851,45.350198 -74.833468,76.490338 -2.430445,5.95864 -5.574576,15.88128 -6.161984,19.44674 -0.195575,1.18711 -0.53283,2.26792 -0.749455,2.4018 -0.216625,0.13389 -1.449279,-2.00036 -2.739232,-4.74277 -13.053365,-27.75115 -13.058716,-51.26943 -0.01751,-76.93883 9.722899,-19.137859 21.679642,-31.501489 42.392149,-43.834749 3.49581,-2.081575 13.39915,-7.47086 22.00742,-11.976185 23.39061,-12.241987 30.63099,-16.978491 38.28996,-25.048494 4.3989,-4.634976 6.23655,-7.260169 8.81602,-12.594198 l 1.98633,-4.107458 4.06343,7.009884 c 18.42764,31.78974 27.41584,54.540839 30.68541,77.671434 0.95514,6.757086 0.82482,22.693976 -0.24064,29.427486 -2.16694,13.69482 -7.15154,28.24573 -12.80898,37.39165 -12.46709,20.15453 -30.07284,34.09005 -51.37638,40.66604 -12.16241,3.7543 -20.24947,4.80932 -37.20213,4.8533 -9.825713,0.0255 -14.002642,0.20786 -14.424593,0.62978 -1.738157,1.73804 -4.489151,18.17615 -5.836105,34.87268 l -0.31791,3.94073 h -3.261744 c -3.13702,0 -3.261745,-0.0484 -3.261745,-1.26656 z"
   id="path2" /><path
   style="fill:#ffffff;stroke-width:0.508481"
   d="m 77.797636,247.36168 c 0,-2.03134 1.458678,-15.7019 2.331468,-21.85023 7.136239,-50.27096 26.957536,-86.75272 67.541616,-124.31259 5.47123,-5.063528 9.08394,-8.791448 9.28112,-9.577098 0.41752,-1.663532 -1.8837,-3.852193 -3.56742,-3.392938 -2.37455,0.647673 -19.7121,9.567523 -24.91476,12.818176 -33.842558,21.14503 -58.017009,52.33052 -65.934838,85.05715 -0.642786,2.65681 -1.323374,5.00983 -1.512418,5.22892 -0.189044,0.21909 -1.405583,-1.85915 -2.703419,-4.61832 -13.049394,-27.7427 -13.061264,-51.28344 -0.0388,-76.94769 9.731039,-19.177616 21.640052,-31.49588 42.399105,-43.85614 3.49581,-2.081453 12.9917,-7.262747 21.10198,-11.51398 17.38944,-9.11517 20.15594,-10.686603 27.14177,-15.417128 9.70565,-6.572271 16.7984,-14.269141 20.82818,-22.602229 l 2.0278,-4.193217 4.11966,7.106876 c 18.04258,31.125479 26.89923,53.236891 30.35933,75.794758 1.2251,7.98693 1.24518,23.58907 0.0402,31.2716 -1.62224,10.3432 -5.68224,23.62206 -9.74206,31.86296 -3.82938,7.77311 -13.12741,20.08725 -19.72485,26.12325 -14.20999,13.0007 -30.11703,20.40181 -50.98222,23.72063 -5.3514,0.8512 -9.31146,1.07176 -20.79427,1.1582 -12.57368,0.0947 -14.254372,0.20298 -14.803675,0.9542 -1.244984,1.70261 -4.407391,19.23166 -5.059881,28.04664 -0.165607,2.23732 -0.427834,5.49795 -0.582725,7.24586 l -0.281619,3.17801 h -3.264657 c -3.153105,0 -3.264656,-0.0439 -3.264656,-1.28567 z"
   id="path3" /><path
   style="fill:#ffffff;stroke-width:0.508481"
   d="m 77.802089,246.99478 c 0.0063,-2.35033 1.888234,-18.98042 2.801549,-24.75691 6.722362,-42.51723 21.891152,-73.63573 51.458682,-105.5666 3.63834,-3.92915 10.65676,-10.89322 15.59648,-15.47571 5.03411,-4.670035 9.11342,-8.858105 9.28188,-9.529331 0.41286,-1.644957 -1.07801,-3.190644 -3.07678,-3.189906 -1.92744,7.12e-4 -15.57029,6.67614 -23.56139,11.528557 -11.80263,7.16689 -20.32209,13.77964 -30.323253,23.53672 -19.079708,18.61406 -31.603381,39.41853 -37.097171,61.62624 -0.88555,3.57968 -1.745914,6.51327 -1.911919,6.51906 -0.166005,0.006 -1.468053,-2.44924 -2.893438,-5.45563 -12.803233,-27.00432 -12.740665,-50.99377 0.199428,-76.46421 9.660714,-19.015518 21.351664,-31.178324 41.893333,-43.584174 3.21687,-1.942785 12.71335,-7.129495 21.1033,-11.526022 24.13475,-12.647182 30.20521,-16.511726 37.93182,-24.147987 5.27008,-5.208447 8.16259,-9.142056 10.85751,-14.765412 l 1.71074,-3.569716 4.04291,7.006519 c 18.43925,31.955984 27.03858,53.390603 30.45252,75.905732 1.21379,8.00493 1.22875,23.62825 0.03,31.2716 -1.62511,10.36151 -5.51039,23.16316 -9.53311,31.41074 -4.42042,9.06295 -13.64907,20.99123 -21.77872,28.14956 -13.69204,12.05614 -29.22093,19.05388 -49.1373,22.14262 -5.67891,0.88072 -9.74128,1.1276 -20.08501,1.22062 -7.131453,0.0641 -13.473063,0.13834 -14.092469,0.16488 -0.619406,0.0265 -1.358717,0.48274 -1.642913,1.01377 -1.49831,2.79962 -4.140655,19.77219 -5.410818,34.75531 l -0.290961,3.43225 h -3.264657 -3.264656 z"
   id="path4" /><path
   style="fill:#19a219;stroke-width:0.508481;fill-opacity:0.99215686"
   d="m 77.797637,247.18765 c 0,-2.54862 1.5325,-16.33647 2.607087,-23.45588 7.455486,-49.39445 26.605476,-84.58251 66.124576,-121.50373 4.56678,-4.266577 8.85902,-8.450926 9.53829,-9.298544 1.14132,-1.424174 1.1787,-1.641992 0.49262,-2.87032 -1.17824,-2.109455 -3.12777,-1.962296 -8.7843,0.663074 -11.93476,5.539304 -24.173,13.0138 -34.8203,21.26649 -7.72666,5.98891 -22.266549,20.66921 -27.829105,28.09786 -7.932356,10.59345 -13.666663,20.69074 -18.026306,31.74176 -2.073133,5.25507 -5.573963,17.14993 -5.573963,18.9388 0,2.02335 -0.98557,0.67384 -3.683992,-5.04437 C 45.47393,159.51314 45.430436,135.41865 57.707027,110.81522 68.5189,89.147209 82.439624,75.568293 108.16718,61.594056 c 3.01311,-1.636612 10.59323,-5.654975 16.84469,-8.929697 19.94023,-10.445333 27.54264,-15.421958 34.92793,-22.864219 4.6065,-4.642038 7.60912,-8.812501 10.12613,-14.064611 l 1.71454,-3.577651 2.75159,4.726288 c 21.27379,36.541015 30.12534,59.755766 32.45311,85.113954 1.89997,20.69787 -3.57981,45.63834 -13.57909,61.80337 -15.98339,25.83905 -38.96526,40.44286 -70.35361,44.70613 -2.37715,0.32288 -10.61454,0.68927 -18.30532,0.81419 -7.690784,0.12494 -14.168077,0.41113 -14.39399,0.63599 -0.652604,0.64957 -1.741461,5.30661 -3.101587,13.26549 -1.130672,6.61621 -1.609567,10.63691 -2.619385,21.99181 l -0.305238,3.43225 h -3.264656 c -3.255734,0 -3.264657,-0.004 -3.264657,-1.4597 z"
   id="path5" /></svg>
