<svg width="33" height="32" viewBox="0 0 33 32" fill="none" xmlns="http://www.w3.org/2000/svg">
<g clip-path="url(#clip0_192_6407)">
<path d="M24.7802 24.452H21.2268V18.8827C21.2268 17.5547 21.2002 15.8453 19.3735 15.8453C17.5215 15.8453 17.2388 17.2907 17.2388 18.7853V24.452H13.6842V13H17.0975V14.56H17.1442C17.6215 13.6613 18.7815 12.7107 20.5148 12.7107C24.1148 12.7107 24.7815 15.0813 24.7815 18.1653V24.452H24.7802ZM9.67083 11.4333C9.39957 11.4337 9.13091 11.3805 8.88025 11.2768C8.62959 11.1731 8.40185 11.021 8.21011 10.8291C8.01836 10.6372 7.86637 10.4094 7.76284 10.1587C7.65932 9.90795 7.6063 9.63926 7.60683 9.368C7.60709 8.95978 7.7284 8.5608 7.95542 8.22153C8.18243 7.88225 8.50496 7.61791 8.8822 7.46194C9.25945 7.30596 9.67448 7.26536 10.0748 7.34525C10.4751 7.42515 10.8428 7.62197 11.1312 7.91081C11.4197 8.19965 11.616 8.56755 11.6954 8.96798C11.7748 9.3684 11.7337 9.78338 11.5772 10.1604C11.4207 10.5375 11.156 10.8597 10.8164 11.0862C10.4768 11.3128 10.0777 11.4336 9.6695 11.4333H9.67083ZM11.4522 24.452H7.88816V13H11.4535V24.452H11.4522ZM26.5602 4H6.1055C5.12416 4 4.3335 4.77333 4.3335 5.72933V26.2707C4.3335 27.2267 5.1255 28 6.10416 28H26.5548C27.5335 28 28.3335 27.2267 28.3335 26.2707V5.72933C28.3335 4.77333 27.5335 4 26.5548 4H26.5588H26.5602Z" fill="white"/>
</g>
<defs>
<clipPath id="clip0_192_6407">
<rect width="32" height="32" fill="white" transform="translate(0.333496)"/>
</clipPath>
</defs>
</svg>
