<svg width="16" height="16" viewBox="0 0 16 16" fill="none" xmlns="http://www.w3.org/2000/svg">
<g clip-path="url(#clip0_1698_2613)">
<path d="M4.66667 6.66656H13.3333C13.5101 6.66656 13.6797 6.7368 13.8047 6.86183C13.9298 6.98685 14 7.15642 14 7.33323V13.9999C14 14.1767 13.9298 14.3463 13.8047 14.4713C13.6797 14.5963 13.5101 14.6666 13.3333 14.6666H2.66667C2.48986 14.6666 2.32029 14.5963 2.19526 14.4713C2.07024 14.3463 2 14.1767 2 13.9999V7.33323C2 7.15642 2.07024 6.98685 2.19526 6.86183C2.32029 6.7368 2.48986 6.66656 2.66667 6.66656H3.33333V5.9999C3.33295 4.94837 3.68772 3.92753 4.34013 3.10285C4.99253 2.27818 5.90434 1.69802 6.92773 1.45641C7.95113 1.21479 9.02613 1.3259 9.97848 1.7717C10.9308 2.21751 11.7047 2.97189 12.1747 3.91256L10.982 4.50856C10.6463 3.83658 10.0935 3.29766 9.41322 2.9792C8.73291 2.66073 7.96497 2.58138 7.23392 2.75402C6.50287 2.92665 5.85155 3.34115 5.38557 3.9303C4.91959 4.51946 4.66627 5.24874 4.66667 5.9999V6.66656ZM3.33333 7.9999V13.3332H12.6667V7.9999H3.33333ZM6.66667 9.9999H9.33333V11.3332H6.66667V9.9999Z" fill="#007AEA"/>
</g>
<defs>
<clipPath id="clip0_1698_2613">
<rect width="16" height="16" fill="white"/>
</clipPath>
</defs>
</svg>
