<svg width="129" height="128" viewBox="0 0 129 128" fill="none" xmlns="http://www.w3.org/2000/svg">
<g clip-path="url(#clip0_2708_3388)">
<path d="M98.25 0H30.25C13.6815 0 0.25 13.4315 0.25 30V98C0.25 114.569 13.6815 128 30.25 128H98.25C114.819 128 128.25 114.569 128.25 98V30C128.25 13.4315 114.819 0 98.25 0Z" fill="url(#paint0_radial_2708_3388)"/>
<path d="M98.25 0H30.25C13.6815 0 0.25 13.4315 0.25 30V98C0.25 114.569 13.6815 128 30.25 128H98.25C114.819 128 128.25 114.569 128.25 98V30C128.25 13.4315 114.819 0 98.25 0Z" fill="url(#paint1_radial_2708_3388)"/>
<path d="M64.2545 14C50.6755 14 48.971 14.0595 43.638 14.302C38.315 14.546 34.6815 15.3885 31.5025 16.625C28.2135 17.902 25.424 19.6105 22.645 22.3905C19.8635 25.17 18.155 27.9595 16.874 31.247C15.634 34.427 14.7905 38.062 14.551 43.3825C14.3125 48.716 14.25 50.421 14.25 64.0005C14.25 77.58 14.31 79.279 14.552 84.612C14.797 89.935 15.6395 93.5685 16.875 96.7475C18.153 100.036 19.8615 102.826 22.6415 105.605C25.42 108.387 28.2095 110.099 31.496 111.376C34.6775 112.613 38.3115 113.455 43.6335 113.699C48.967 113.941 50.67 114.001 64.2485 114.001C77.829 114.001 79.528 113.941 84.861 113.699C90.184 113.455 93.8215 112.613 97.003 111.376C100.29 110.099 103.076 108.387 105.854 105.605C108.635 102.826 110.343 100.036 111.625 96.749C112.854 93.5685 113.698 89.934 113.948 84.613C114.188 79.28 114.25 77.58 114.25 64.0005C114.25 50.421 114.188 48.717 113.948 43.3835C113.698 38.0605 112.854 34.4275 111.625 31.2485C110.343 27.9595 108.635 25.17 105.854 22.3905C103.073 19.6095 100.292 17.901 97 16.6255C93.8125 15.3885 90.177 14.5455 84.854 14.302C79.5205 14.0595 77.8225 14 64.239 14H64.2545ZM59.769 23.0105C61.1005 23.0085 62.586 23.0105 64.2545 23.0105C77.605 23.0105 79.187 23.0585 84.459 23.298C89.334 23.521 91.98 24.3355 93.7425 25.02C96.076 25.926 97.7395 27.0095 99.4885 28.76C101.239 30.51 102.322 32.1765 103.23 34.51C103.915 36.27 104.73 38.916 104.952 43.791C105.192 49.062 105.243 50.645 105.243 63.989C105.243 77.333 105.192 78.9165 104.952 84.187C104.729 89.062 103.915 91.708 103.23 93.4685C102.324 95.802 101.239 97.4635 99.4885 99.2125C97.7385 100.963 96.077 102.046 93.7425 102.952C91.982 103.64 89.334 104.452 84.459 104.675C79.188 104.915 77.605 104.966 64.2545 104.966C50.9035 104.966 49.321 104.915 44.0505 104.675C39.1755 104.45 36.5295 103.635 34.7655 102.951C32.4325 102.044 30.7655 100.962 29.0155 99.2115C27.2655 97.4615 26.1825 95.799 25.274 93.4645C24.5895 91.704 23.774 89.058 23.552 84.183C23.3125 78.912 23.2645 77.329 23.2645 63.9765C23.2645 50.6245 23.3125 49.0495 23.552 43.7785C23.775 38.9035 24.5895 36.2575 25.274 34.495C26.1805 32.1615 27.2655 30.495 29.016 28.745C30.766 26.995 32.4325 25.9115 34.766 25.0035C36.5285 24.316 39.1755 23.5035 44.0505 23.2795C48.663 23.071 50.4505 23.0085 59.769 22.998V23.0105ZM90.9445 31.3125C87.632 31.3125 84.9445 33.9975 84.9445 37.3105C84.9445 40.623 87.632 43.3105 90.9445 43.3105C94.257 43.3105 96.9445 40.623 96.9445 37.3105C96.9445 33.998 94.257 31.3105 90.9445 31.3105V31.3125ZM64.2545 38.323C50.0745 38.323 38.5775 49.82 38.5775 64.0005C38.5775 78.181 50.0745 89.6725 64.2545 89.6725C78.435 89.6725 89.928 78.181 89.928 64.0005C89.928 49.8205 78.434 38.323 64.2535 38.323H64.2545ZM64.2545 47.3335C73.459 47.3335 80.9215 54.795 80.9215 64.0005C80.9215 73.205 73.459 80.6675 64.2545 80.6675C55.0495 80.6675 47.588 73.205 47.588 64.0005C47.588 54.795 55.0495 47.3335 64.2545 47.3335Z" fill="white"/>
</g>
<defs>
<radialGradient id="paint0_radial_2708_3388" cx="0" cy="0" r="1" gradientUnits="userSpaceOnUse" gradientTransform="translate(34.25 137.858) rotate(-90) scale(126.858 117.988)">
<stop stop-color="#FFDD55"/>
<stop offset="0.1" stop-color="#FFDD55"/>
<stop offset="0.5" stop-color="#FF543E"/>
<stop offset="1" stop-color="#C837AB"/>
</radialGradient>
<radialGradient id="paint1_radial_2708_3388" cx="0" cy="0" r="1" gradientUnits="userSpaceOnUse" gradientTransform="translate(-21.1905 9.2205) rotate(78.681) scale(56.706 233.744)">
<stop stop-color="#3771C8"/>
<stop offset="0.128" stop-color="#3771C8"/>
<stop offset="1" stop-color="#6600FF" stop-opacity="0"/>
</radialGradient>
<clipPath id="clip0_2708_3388">
<rect width="128" height="128" fill="white" transform="translate(0.25)"/>
</clipPath>
</defs>
</svg>
