<svg width="128" height="128" viewBox="0 0 128 128" fill="none" xmlns="http://www.w3.org/2000/svg">
<g id="logos:telegram" clip-path="url(#clip0_192_4942)">
<path id="Vector" d="M64 0C47.03 0 30.74 6.747 18.75 18.745C6.74763 30.7478 0.0033247 47.0258 0 64C0 80.967 6.75 97.257 18.75 109.255C30.74 121.253 47.03 128 64 128C80.97 128 97.26 121.253 109.25 109.255C121.25 97.257 128 80.967 128 64C128 47.033 121.25 30.743 109.25 18.745C97.26 6.747 80.97 0 64 0Z" fill="url(#paint0_linear_192_4942)"/>
<path id="Vector_2" d="M28.9705 63.324C47.6305 55.196 60.0705 49.837 66.2905 47.248C84.0705 39.855 87.7605 38.571 90.1705 38.5275C90.7005 38.519 91.8805 38.65 92.6505 39.2725C93.2905 39.7975 93.4705 40.5075 93.5605 41.006C93.6405 41.504 93.7505 42.639 93.6605 43.525C92.7005 53.645 88.5305 78.203 86.4105 89.538C85.5205 94.334 83.7505 95.942 82.0405 96.099C78.3205 96.441 75.5005 93.643 71.9005 91.284C66.2705 87.591 63.0905 85.293 57.6205 81.69C51.3005 77.526 55.4005 75.237 59.0005 71.497C59.9405 70.518 76.3205 55.623 76.6305 54.272C76.6705 54.103 76.7105 53.473 76.3305 53.141C75.9605 52.808 75.4105 52.922 75.0105 53.012C74.4405 53.14 65.4505 59.088 48.0105 70.855C45.4605 72.609 43.1505 73.464 41.0705 73.419C38.7905 73.37 34.3905 72.127 31.1205 71.065C27.1205 69.762 23.9305 69.073 24.2105 66.86C24.3505 65.708 25.9405 64.529 28.9705 63.324Z" fill="white"/>
</g>
<defs>
<linearGradient id="paint0_linear_192_4942" x1="91.5" y1="7.25" x2="28.5" y2="75.25" gradientUnits="userSpaceOnUse">
<stop stop-color="#37AEE2"/>
<stop offset="1" stop-color="#09739F"/>
</linearGradient>
<clipPath id="clip0_192_4942">
<rect width="128" height="128" fill="white"/>
</clipPath>
</defs>
</svg>
