<svg width="128" height="128" viewBox="0 0 128 128" fill="none" xmlns="http://www.w3.org/2000/svg">
<g id="logos:whatsapp-icon" clip-path="url(#clip0_192_4936)">
<g id="Vector" filter="url(#filter0_i_192_4936)">
<path d="M2.99148 63.0096C2.9885 73.7641 5.79855 84.2651 11.1418 93.5208L2.48047 125.145L34.8436 116.659C43.7948 121.532 53.824 124.085 64.0157 124.086H64.0425C97.6872 124.086 125.075 96.7083 125.089 63.0577C125.096 46.7516 118.751 31.4184 107.224 19.8825C95.6992 8.34766 80.3715 1.99182 64.04 1.98438C30.3914 1.98438 3.00586 29.3605 2.99197 63.0096" fill="#57D163"/>
</g>
<path id="Vector_2" d="M1.02695 63.2141C1.02347 74.3556 3.93423 85.2321 9.468 94.8192L0.496094 127.577L34.0197 118.787C43.2565 123.823 53.6563 126.478 64.2386 126.482H64.2659C99.1176 126.482 127.489 98.1199 127.504 63.2647C127.51 46.3727 120.937 30.4883 108.998 18.5392C97.0582 6.5915 81.1822 0.00694574 64.2659 0C29.4082 0 1.04084 28.3585 1.02695 63.2141ZM20.991 93.1681L19.7393 91.1811C14.4774 82.8145 11.7001 73.146 11.704 63.2181C11.7154 34.2469 35.2932 10.6766 64.2857 10.6766C78.326 10.6825 91.521 16.1558 101.445 26.0862C111.369 36.0176 116.83 49.2195 116.827 63.2608C116.814 92.2319 93.2356 115.805 64.2659 115.805H64.2451C54.8122 115.8 45.561 113.267 37.4931 108.48L35.5731 107.341L15.6795 112.557L20.991 93.1676V93.1681Z" fill="url(#paint0_linear_192_4936)"/>
<path id="Vector_3" d="M48.4603 36.7865C47.2765 34.1555 46.0307 34.1024 44.905 34.0563C43.9832 34.0166 42.9295 34.0196 41.8767 34.0196C40.8229 34.0196 39.1108 34.416 37.6636 35.9961C36.2149 37.5778 32.1328 41.3999 32.1328 49.1737C32.1328 56.948 37.7951 64.4608 38.5844 65.516C39.3747 66.5693 49.5155 83.0327 65.576 89.3662C78.9238 94.6296 81.64 93.5827 84.5369 93.3188C87.4343 93.0559 93.8859 89.4977 95.2021 85.808C96.5193 82.1188 96.5193 78.9565 96.1244 78.2957C95.7295 77.6373 94.6757 77.2419 93.0955 76.4521C91.5149 75.6618 83.7466 71.8391 82.2984 71.3117C80.8497 70.7849 79.7964 70.5219 78.7427 72.104C77.6889 73.6837 74.663 77.2419 73.7407 78.2957C72.8194 79.3519 71.8971 79.4834 70.3175 78.6931C68.7363 77.9003 63.6476 76.2338 57.6103 70.8513C52.913 66.6631 49.7417 61.491 48.8199 59.9088C47.8981 58.3292 48.7212 57.4729 49.5135 56.6855C50.2235 55.9775 51.0942 54.8404 51.885 53.9181C52.6728 52.9953 52.9358 52.337 53.4627 51.2832C53.9901 50.2284 53.7261 49.3057 53.3317 48.5153C52.9358 47.725 49.8653 39.9106 48.4603 36.7865Z" fill="white"/>
</g>
<defs>
<filter id="filter0_i_192_4936" x="2.48047" y="-21.3335" width="142.453" height="146.478" filterUnits="userSpaceOnUse" color-interpolation-filters="sRGB">
<feFlood flood-opacity="0" result="BackgroundImageFix"/>
<feBlend mode="normal" in="SourceGraphic" in2="BackgroundImageFix" result="shape"/>
<feColorMatrix in="SourceAlpha" type="matrix" values="0 0 0 0 0 0 0 0 0 0 0 0 0 0 0 0 0 0 127 0" result="hardAlpha"/>
<feOffset dx="19.845" dy="-33.7364"/>
<feGaussianBlur stdDeviation="11.6589"/>
<feComposite in2="hardAlpha" operator="arithmetic" k2="-1" k3="1"/>
<feColorMatrix type="matrix" values="0 0 0 0 0.141176 0 0 0 0 0.705882 0 0 0 0 0.231373 0 0 0 1 0"/>
<feBlend mode="normal" in2="shape" result="effect1_innerShadow_192_4936"/>
</filter>
<linearGradient id="paint0_linear_192_4936" x1="6350.88" y1="12757.7" x2="6350.88" y2="0" gradientUnits="userSpaceOnUse">
<stop stop-color="#F9F9F9"/>
<stop offset="1" stop-color="white"/>
</linearGradient>
<clipPath id="clip0_192_4936">
<rect width="127.008" height="128" fill="white" transform="translate(0.496094)"/>
</clipPath>
</defs>
</svg>
