<svg width="32" height="32" viewBox="0 0 32 32" fill="none" xmlns="http://www.w3.org/2000/svg">
<g clip-path="url(#clip0_1047_5631)">
<g filter="url(#filter0_i_1047_5631)">
<path d="M0.621893 15.7527C0.621148 18.4413 1.32366 21.0666 2.65947 23.3805L0.494141 31.2865L8.58493 29.1651C10.8227 30.3834 13.33 31.0217 15.878 31.0219H15.8847C24.2958 31.0219 31.1427 24.1774 31.1463 15.7647C31.1479 11.6882 29.5618 7.85488 26.6801 4.9709C23.7988 2.08717 19.9669 0.498198 15.884 0.496338C7.47188 0.496338 0.625489 7.3404 0.622017 15.7527" fill="#57D163"/>
</g>
<path d="M0.131737 15.8038C0.130868 18.5892 0.858558 21.3084 2.242 23.7052L-0.000976562 31.8946L8.37992 29.6971C10.6891 30.9562 13.2891 31.62 15.9347 31.621H15.9415C24.6544 31.621 31.7472 24.5303 31.751 15.8165C31.7524 11.5935 30.1093 7.62235 27.1246 4.63505C24.1395 1.64813 20.1706 0.00198058 15.9415 0.000244141C7.22705 0.000244141 0.135209 7.08989 0.131737 15.8038ZM5.12274 23.2924L4.80981 22.7956C3.49434 20.704 2.80002 18.2868 2.80101 15.8048C2.80386 8.56202 8.69831 2.6694 15.9464 2.6694C19.4565 2.67089 22.7552 4.03921 25.2364 6.52182C27.7173 9.00469 29.0826 12.3052 29.0817 15.8155C29.0785 23.0583 23.1839 28.9517 15.9415 28.9517H15.9363C13.5781 28.9504 11.2653 28.3171 9.24826 27.1204L8.76826 26.8357L3.79487 28.1397L5.12274 23.2922V23.2924Z" fill="url(#paint0_linear_1047_5631)"/>
<path d="M11.9901 9.19686C11.6941 8.53912 11.3827 8.52585 11.1013 8.51432C10.8708 8.5044 10.6074 8.50514 10.3442 8.50514C10.0807 8.50514 9.6527 8.60424 9.2909 8.99928C8.92873 9.39469 7.9082 10.3502 7.9082 12.2937C7.9082 14.2373 9.32377 16.1155 9.5211 16.3793C9.71868 16.6426 12.2539 20.7585 16.269 22.3418C19.6059 23.6577 20.285 23.396 21.0092 23.33C21.7336 23.2643 23.3465 22.3747 23.6755 21.4523C24.0048 20.53 24.0048 19.7394 23.9061 19.5742C23.8074 19.4096 23.5439 19.3108 23.1489 19.1133C22.7537 18.9157 20.8116 17.9601 20.4496 17.8282C20.0874 17.6965 19.8241 17.6308 19.5607 18.0263C19.2972 18.4212 18.5408 19.3108 18.3102 19.5742C18.0799 19.8383 17.8493 19.8711 17.4544 19.6736C17.0591 19.4754 15.7869 19.0587 14.2776 17.7131C13.1032 16.666 12.3104 15.373 12.08 14.9775C11.8495 14.5826 12.0553 14.3685 12.2534 14.1716C12.4309 13.9946 12.6485 13.7104 12.8462 13.4798C13.0432 13.2491 13.1089 13.0845 13.2407 12.8211C13.3725 12.5574 13.3065 12.3267 13.2079 12.1291C13.1089 11.9315 12.3413 9.97789 11.9901 9.19686Z" fill="white"/>
</g>
<defs>
<filter id="filter0_i_1047_5631" x="0.494141" y="-5.33313" width="35.6136" height="36.6198" filterUnits="userSpaceOnUse" color-interpolation-filters="sRGB">
<feFlood flood-opacity="0" result="BackgroundImageFix"/>
<feBlend mode="normal" in="SourceGraphic" in2="BackgroundImageFix" result="shape"/>
<feColorMatrix in="SourceAlpha" type="matrix" values="0 0 0 0 0 0 0 0 0 0 0 0 0 0 0 0 0 0 127 0" result="hardAlpha"/>
<feOffset dx="4.96125" dy="-8.43413"/>
<feGaussianBlur stdDeviation="2.91473"/>
<feComposite in2="hardAlpha" operator="arithmetic" k2="-1" k3="1"/>
<feColorMatrix type="matrix" values="0 0 0 0 0.141176 0 0 0 0 0.705882 0 0 0 0 0.231373 0 0 0 1 0"/>
<feBlend mode="normal" in2="shape" result="effect1_innerShadow_1047_5631"/>
</filter>
<linearGradient id="paint0_linear_1047_5631" x1="1587.6" y1="3189.43" x2="1587.6" y2="0.000244141" gradientUnits="userSpaceOnUse">
<stop stop-color="#F9F9F9"/>
<stop offset="1" stop-color="white"/>
</linearGradient>
<clipPath id="clip0_1047_5631">
<rect width="31.7519" height="32.0001" fill="white" transform="translate(0 0.000244141)"/>
</clipPath>
</defs>
</svg>
