<svg width="128" height="128" viewBox="0 0 128 128" fill="none" xmlns="http://www.w3.org/2000/svg">
<g id="logos:messenger" clip-path="url(#clip0_192_4947)">
<path id="Vector" d="M64 0C27.947 0 0 26.409 0 62.08C0 80.7385 7.6465 96.861 20.1 107.997C21.145 108.933 21.776 110.244 21.819 111.646L22.1675 123.032C22.279 126.662 26.0295 129.025 29.3525 127.559L42.0555 121.95C43.1322 121.475 44.3397 121.387 45.474 121.7C51.3115 123.305 57.524 124.16 64 124.16C100.053 124.16 128 97.7505 128 62.0795C128 26.4085 100.053 0 64 0Z" fill="url(#paint0_linear_192_4947)"/>
<path id="Vector_2" d="M25.5685 80.2351L44.3685 50.4086C47.3585 45.6636 53.7625 44.4821 58.2495 47.8471L73.202 59.0621C73.8697 59.5629 74.6825 59.8325 75.5172 59.8301C76.3519 59.8276 77.1631 59.5533 77.828 59.0486L98.022 43.7226C100.717 41.6771 104.236 44.9026 102.432 47.7651L83.632 77.5921C80.6415 82.3366 74.237 83.5181 69.7505 80.1531L54.7975 68.9381C54.1298 68.4375 53.3172 68.168 52.4827 68.1704C51.6482 68.1728 50.8372 68.4471 50.1725 68.9516L29.9775 84.2775C27.2825 86.3225 23.764 83.0976 25.5685 80.2351Z" fill="white"/>
</g>
<defs>
<linearGradient id="paint0_linear_192_4947" x1="90.75" y1="-2.01643e-06" x2="44.25" y2="72.5" gradientUnits="userSpaceOnUse">
<stop stop-color="#FF6F62"/>
<stop offset="0.276042" stop-color="#F04D93"/>
<stop offset="0.588542" stop-color="#C740CB"/>
<stop offset="1" stop-color="#4D68FF"/>
</linearGradient>
<clipPath id="clip0_192_4947">
<rect width="128" height="128" fill="white"/>
</clipPath>
</defs>
</svg>
