<svg width="171" height="187" viewBox="0 0 171 187" fill="none" xmlns="http://www.w3.org/2000/svg">
<path fill-rule="evenodd" clip-rule="evenodd" d="M103.823 81.8684C104.868 83.9236 105.803 86.0669 106.621 88.2783C112.709 104.763 112.313 125.116 101.329 144.197C97.8226 150.289 93.7073 155.87 88.876 160.775C84.0716 165.653 78.5856 169.848 72.6342 173.531C72.1444 173.853 71.4871 173.716 71.1639 173.227C70.8424 172.736 70.9791 172.081 71.467 171.757C77.0467 167.879 82.0362 163.431 86.5575 158.56C91.0621 153.708 95.0979 148.425 98.434 142.544C108.719 124.407 108.994 105.147 103.154 89.5665C102.558 87.9796 101.901 86.4306 101.179 84.9289C99.0478 87.2462 96.7543 89.3658 94.3407 91.2598C79.1724 103.172 59.3505 106.152 44.3558 92.7185C35.1012 84.5515 34.751 74.6463 39.3881 66.9118C43.7949 59.5558 52.8976 54.1882 63.1966 54.1318C79.2198 54.0466 93.6954 64.0422 102.309 79.0501C109.62 69.5667 114.207 57.4326 113.745 44.5469C113.385 34.5926 109.814 25.9414 104.633 18.8752C100.679 13.4842 95.6583 9.1922 90.5009 5.63236C88.1108 3.98093 85.799 2.38073 83.3416 1.11825C83.1388 1.03636 83.0403 0.806104 83.1211 0.603806C83.2019 0.401509 83.4323 0.302139 83.6368 0.382111C86.3739 1.18095 89.1361 2.13284 91.774 3.55543C97.583 6.68852 102.794 11.4652 107.037 17.0844C112.662 24.5349 116.349 33.8357 116.725 44.4393C117.223 58.5171 112.002 71.7162 103.823 81.8684ZM99.7505 82.1339C97.5207 84.6452 95.0928 86.924 92.5182 88.9306C78.5487 99.8182 60.2907 102.659 46.6178 90.2185C39.1709 83.3385 38.9143 75.2908 42.7848 68.973C46.628 62.6987 54.3868 58.0985 63.2251 58.0219C78.3597 57.8884 91.8791 67.703 99.7505 82.1339Z" fill="#007AEA"/>
<path fill-rule="evenodd" clip-rule="evenodd" d="M71.9937 173.163C75.4677 172.042 80.6982 170.333 81.2575 170.146L91.2708 167.046L107.836 162.903C108.203 162.791 108.593 162.998 108.704 163.367C108.817 163.735 108.608 164.125 108.238 164.235L92.3239 170.201L82.5348 173.876C81.8601 174.111 74.4121 176.683 71.3981 177.659C69.5808 178.247 68.3021 177.722 68.2684 177.696C67.7499 177.287 67.183 176.411 67.4358 175.056C67.7644 173.303 70.0398 169.186 70.2465 168.75L80.0224 147.805C83.4504 140.642 84.0142 138.044 85.835 138.774C86.2189 138.902 86.4523 139.236 86.5752 140.331C86.6132 140.664 86.4471 141.041 86.3218 141.46C85.5099 144.167 83.2127 148.466 82.9742 149.077L73.8325 170.407C73.7446 170.593 72.7588 171.89 71.9937 173.163Z" fill="#007AEA"/>
</svg>
