<svg width="116" height="125" viewBox="0 0 116 125" fill="none" xmlns="http://www.w3.org/2000/svg">
<path fill-rule="evenodd" clip-rule="evenodd" d="M48.1685 59.4373C47.4599 60.8298 46.8269 62.282 46.2722 63.7804C42.1474 74.95 42.4155 88.74 49.8581 101.668C52.2338 105.796 55.0221 109.577 58.2956 112.901C61.5508 116.206 65.2679 119.048 69.3003 121.544C69.6322 121.762 70.0776 121.669 70.2966 121.338C70.5144 121.005 70.4218 120.561 70.0912 120.342C66.3106 117.714 62.9299 114.701 59.8665 111.4C56.8144 108.112 54.0799 104.533 51.8195 100.549C44.851 88.2596 44.6645 75.2102 48.6218 64.6533C49.0253 63.578 49.4701 62.5285 49.9594 61.511C51.4037 63.0811 52.9576 64.5172 54.593 65.8006C64.8704 73.8718 78.3008 75.891 88.4606 66.7889C94.7311 61.2553 94.9683 54.544 91.8264 49.3034C88.8406 44.3193 82.673 40.6824 75.6948 40.6442C64.8382 40.5865 55.0302 47.3591 49.1941 57.5278C44.2405 51.1022 41.1322 42.8807 41.4455 34.1499C41.6895 27.4053 44.1087 21.5437 47.6197 16.7559C50.2986 13.1032 53.7002 10.1951 57.1947 7.78313C58.8141 6.66419 60.3804 5.57997 62.0455 4.72457C62.1829 4.66908 62.2497 4.51307 62.1949 4.376C62.1401 4.23894 61.984 4.17161 61.8455 4.22579C59.9909 4.76705 58.1194 5.41201 56.332 6.3759C52.3962 8.49874 48.8657 11.7352 45.9903 15.5425C42.1795 20.5906 39.6811 26.8925 39.4266 34.077C39.0888 43.6155 42.6263 52.5586 48.1685 59.4373ZM50.9276 59.6173C52.4383 61.3188 54.0834 62.8628 55.8278 64.2224C65.293 71.5993 77.6638 73.5243 86.9279 65.095C91.9736 60.4334 92.1475 54.9806 89.525 50.7C86.921 46.4488 81.664 43.3319 75.6755 43.28C65.421 43.1895 56.2608 49.8395 50.9276 59.6173Z" fill="#007AEA"/>
<path fill-rule="evenodd" clip-rule="evenodd" d="M69.7342 121.295C67.3805 120.535 63.8365 119.377 63.4575 119.25L56.6729 117.15L45.4492 114.343C45.2003 114.267 44.9365 114.408 44.8611 114.658C44.7845 114.907 44.9262 115.171 45.1764 115.245L55.9594 119.288L62.5921 121.778C63.0492 121.937 68.0957 123.68 70.1378 124.341C71.3691 124.74 72.2355 124.384 72.2584 124.366C72.6097 124.089 72.9938 123.495 72.8225 122.577C72.5999 121.389 71.0582 118.6 70.9181 118.304L64.2944 104.113C61.9717 99.2602 61.5897 97.4994 60.356 97.994C60.0959 98.0808 59.9378 98.307 59.8545 99.0495C59.8287 99.2747 59.9413 99.5303 60.0262 99.8144C60.5763 101.648 62.1327 104.561 62.2944 104.975L68.4884 119.427C68.5479 119.553 69.2159 120.432 69.7342 121.295Z" fill="#007AEA"/>
</svg>
