<svg width="172" height="184" viewBox="0 0 172 184" fill="none" xmlns="http://www.w3.org/2000/svg">
<path fill-rule="evenodd" clip-rule="evenodd" d="M73.1369 73.3232C71.4438 74.8887 69.8248 76.5756 68.2904 78.3662C56.8677 91.7207 50.1866 110.95 53.8791 132.654C55.0571 139.584 56.9837 146.245 59.8162 152.52C62.6327 158.761 66.3252 164.597 70.6315 170.114C70.9796 170.586 71.6436 170.685 72.1163 170.338C72.5881 169.989 72.6868 169.327 72.3412 168.855C68.4509 163.283 65.3117 157.382 62.7585 151.246C60.2142 145.133 58.259 138.779 57.1672 132.107C53.8041 111.53 60.2195 93.3682 71.097 80.7763C72.2056 79.4941 73.3581 78.2685 74.5559 77.11C75.7524 80.0224 77.1694 82.8053 78.7772 85.4184C88.8781 101.849 106.439 111.512 125.16 104.107C136.671 99.6524 140.432 90.4822 138.762 81.62C137.177 73.1927 130.498 65.0036 120.857 61.382C105.856 55.75 88.8135 60.1105 75.5334 71.2041C71.9614 59.7748 71.8625 46.8029 76.7612 34.8756C80.5482 25.6628 86.8951 18.7848 94.2045 13.9519C99.7813 10.2648 105.978 7.97837 112.049 6.42615C114.864 5.7052 117.587 5.00516 120.329 4.67241C120.548 4.66586 120.72 4.48402 120.714 4.26624C120.709 4.04846 120.527 3.87541 120.307 3.87959C117.463 3.68053 114.542 3.61634 111.575 4.03674C105.04 4.96291 98.4971 7.63817 92.5692 11.4388C84.7117 16.4788 78.03 23.9258 74.0034 33.7423C68.6578 46.7752 68.9818 60.9657 73.1369 73.3232ZM76.8647 74.9833C78.0861 78.1117 79.5741 81.0905 81.2939 83.8649C90.6253 98.9185 106.768 107.91 123.904 100.978C133.274 97.1043 136.303 89.6441 134.862 82.3765C133.43 75.1593 127.746 68.1556 119.482 65.0212C105.331 59.6518 89.2488 64.1739 76.8647 74.9833Z" fill="black"/>
<path fill-rule="evenodd" clip-rule="evenodd" d="M71.3594 169.991C68.4892 167.735 64.1749 164.32 63.7151 163.951L55.3963 157.573L41.2929 147.947C40.987 147.715 40.5502 147.774 40.3178 148.082C40.0846 148.387 40.1454 148.826 40.4538 149.057L53.3153 160.167L61.2246 167.007C61.776 167.461 67.8714 172.455 70.3604 174.414C71.8612 175.596 73.2426 175.547 73.2832 175.534C73.9116 175.329 74.7469 174.704 74.9791 173.346C75.2785 171.587 74.5705 166.937 74.5278 166.456L72.6148 143.422C71.8812 135.515 72.2527 132.882 70.2918 132.936C69.8873 132.923 69.5527 133.155 69.0576 134.141C68.9068 134.439 68.932 134.851 68.9042 135.287C68.728 138.107 69.3931 142.937 69.4053 143.592L70.5897 166.768C70.6077 166.973 71.0829 168.531 71.3594 169.991Z" fill="black"/>
</svg>
