<svg width="16" height="16" viewBox="0 0 16 16" fill="none" xmlns="http://www.w3.org/2000/svg">
<path d="M8.0027 10.166V6.79933M14.166 5.00399V9.40866C14.1662 9.75578 14.098 10.0995 13.9652 10.4203C13.8325 10.741 13.6379 11.0325 13.3924 11.2779C13.147 11.5234 12.8556 11.7181 12.5349 11.8509C12.2142 11.9838 11.8705 12.0521 11.5234 12.052H9.76136L8.30803 13.5053C8.2684 13.5473 8.22061 13.5808 8.16759 13.6036C8.11457 13.6265 8.05744 13.6383 7.9997 13.6383C7.94196 13.6383 7.88483 13.6265 7.83181 13.6036C7.77879 13.5808 7.731 13.5473 7.69136 13.5053L6.23803 12.052H4.4747C4.1276 12.052 3.78391 11.9836 3.46324 11.8508C3.14257 11.7179 2.85122 11.5232 2.60581 11.2777C2.36041 11.0323 2.16577 10.7409 2.033 10.4202C1.90023 10.0995 1.83194 9.75576 1.83203 9.40866V5.00399C1.83203 4.30312 2.11045 3.63094 2.60605 3.13535C3.10165 2.63975 3.77382 2.36133 4.4747 2.36133H11.5227C12.2236 2.36133 12.8957 2.63975 13.3913 3.13535C13.8869 3.63094 14.166 4.30312 14.166 5.00399Z" stroke="#636363" stroke-linecap="round" stroke-linejoin="round"/>
<path d="M7.93164 4.6626H7.93564" stroke="#636363" stroke-width="1.33333" stroke-linecap="round" stroke-linejoin="round"/>
</svg>
