<svg width="24" height="24" viewBox="0 0 24 24" fill="none" xmlns="http://www.w3.org/2000/svg">
<path d="M8.29942 12L10.0247 13.7253L10.0249 13.7255C10.149 13.8503 10.2185 13.993 10.216 14.1516M8.29942 12L10.116 14.15M8.29942 12L10.0247 10.2747C10.1391 10.1603 10.2013 10.022 10.2069 9.86353L10.207 9.86303C10.2119 9.69989 10.1475 9.5535 10.0262 9.42683L10.0262 9.42681L10.0245 9.42508C9.89985 9.30118 9.75734 9.23051 9.59857 9.22801C9.43842 9.2255 9.29469 9.29464 9.1695 9.41908L9.16927 9.41931L7.22529 11.3643C7.04644 11.5431 6.954 11.7564 6.954 12C6.954 12.2436 7.04644 12.4569 7.22529 12.6357M8.29942 12L7.296 12.565M10.216 14.1516L10.116 14.15M10.216 14.1516C10.216 14.1514 10.216 14.1512 10.216 14.1511L10.116 14.15M10.216 14.1516C10.2142 14.3078 10.146 14.4487 10.0258 14.5726L10.0247 14.5737L10.0247 14.5737C9.89823 14.7002 9.75068 14.7679 9.585 14.763L9.58452 14.7629C9.42451 14.7574 9.28481 14.6955 9.16953 14.581L9.16927 14.5807L7.22529 12.6357M10.116 14.15C10.1147 14.2753 10.0607 14.393 9.954 14.503C9.84333 14.6137 9.72133 14.667 9.588 14.663C9.454 14.6583 9.338 14.6073 9.24 14.51L7.296 12.565M7.22529 12.6357L7.296 12.565M7.22529 12.6357L7.22527 12.6357L7.296 12.565M14.4162 9.23805C14.5758 9.24289 14.7152 9.30459 14.8305 9.41905L14.8307 9.41931L16.7747 11.3643C16.9536 11.5431 17.046 11.7564 17.046 12C17.046 12.2436 16.9536 12.4569 16.7747 12.6357L14.8307 14.5807L14.8305 14.5809C14.7053 14.7054 14.5616 14.7745 14.4014 14.772C14.2427 14.7695 14.1002 14.6988 13.9755 14.5749L13.9738 14.5732L13.9738 14.5732C13.8525 14.4465 13.7881 14.3001 13.793 14.137L13.7931 14.1365C13.7987 13.978 13.8609 13.8397 13.9753 13.7253L15.7006 12L13.9753 10.2747L13.9751 10.2745C13.8511 10.1498 13.7816 10.0072 13.784 9.8488M14.4162 9.23805C14.4163 9.23805 14.4164 9.23806 14.4165 9.23806L14.413 9.338L14.416 9.23805C14.4161 9.23805 14.4161 9.23805 14.4162 9.23805ZM14.4162 9.23805C14.2501 9.23234 14.1022 9.29915 13.9755 9.42508L13.9755 9.42506L13.974 9.4266C13.8539 9.55123 13.7857 9.69251 13.784 9.8488M13.784 9.8488C13.784 9.84867 13.784 9.84854 13.784 9.8484L13.884 9.85L13.784 9.84894C13.784 9.84889 13.784 9.84885 13.784 9.8488ZM4.40129 19.5987L4.40136 19.5988C4.7355 19.9322 5.14193 20.1 5.615 20.1H18.385C18.8587 20.1 19.2652 19.9322 19.5987 19.5987L19.5988 19.5986C19.9322 19.2645 20.1 18.8581 20.1 18.385V5.615C20.1 5.1413 19.9322 4.73482 19.5987 4.40129L19.5986 4.40121C19.2645 4.06778 18.8581 3.9 18.385 3.9H13.8036C13.8727 3.40701 13.7424 2.95623 13.4156 2.55395L13.4155 2.55381C13.0601 2.1179 12.585 1.9 12 1.9C11.4274 1.9 10.9593 2.11855 10.6045 2.55381L10.6044 2.55387C10.2771 2.95606 10.1409 3.40667 10.1991 3.9H5.615C5.1413 3.9 4.73482 4.06776 4.40129 4.40129L4.40121 4.40136C4.06778 4.7355 3.9 5.14193 3.9 5.615V18.385C3.9 18.8587 4.06776 19.2652 4.40129 19.5987ZM12 4.442C12.2167 4.442 12.396 4.37133 12.538 4.23C12.68 4.08867 12.7507 3.90933 12.75 3.692C12.75 3.47533 12.679 3.29633 12.537 3.155C12.395 3.01367 12.216 2.94267 12 2.942C11.7833 2.942 11.6043 3.013 11.463 3.155C11.3217 3.297 11.2507 3.476 11.25 3.692L12 4.442ZM11.5337 4.15929C11.4121 4.03765 11.35 3.88454 11.35 3.69215C11.3506 3.50029 11.4127 3.3473 11.5339 3.22554C11.6548 3.10406 11.8075 3.04203 11.9998 3.042C12.1917 3.04263 12.3447 3.10469 12.4665 3.22588C12.588 3.34682 12.65 3.49954 12.65 3.692L12.65 3.69231C12.6506 3.88543 12.5888 4.03833 12.4675 4.15912C12.3458 4.28019 12.1926 4.342 12 4.342L11.9997 4.342C11.8081 4.34259 11.6554 4.28094 11.5337 4.15929ZM18.7374 18.7372C18.6238 18.8502 18.5071 18.9 18.385 18.9H5.615C5.49292 18.9 5.37621 18.8502 5.26262 18.7372C5.14978 18.6237 5.1 18.507 5.1 18.385V5.615C5.1 5.49295 5.14981 5.37627 5.26272 5.2627C5.37628 5.1498 5.49296 5.1 5.615 5.1H18.385C18.5071 5.1 18.6237 5.14981 18.7373 5.26273C18.8502 5.37629 18.9 5.49296 18.9 5.615V18.385C18.9 18.507 18.8502 18.6237 18.7374 18.7372Z" fill="#636363" stroke="#636363" stroke-width="0.2"/>
</svg>
