<svg width="24" height="24" viewBox="0 0 24 24" fill="none" xmlns="http://www.w3.org/2000/svg">
<g clip-path="url(#clip0_1050_6147)">
<path d="M13 3.00049C13.2549 3.00077 13.5 3.09837 13.6854 3.27334C13.8707 3.44831 13.9822 3.68744 13.9972 3.94188C14.0121 4.19632 13.9293 4.44687 13.7657 4.64232C13.6021 4.83777 13.3701 4.96338 13.117 4.99349L13 5.00049H5V19.0005H19V11.0005C19.0003 10.7456 19.0979 10.5005 19.2728 10.3151C19.4478 10.1298 19.687 10.0183 19.9414 10.0033C20.1958 9.98838 20.4464 10.0712 20.6418 10.2348C20.8373 10.3983 20.9629 10.6304 20.993 10.8835L21 11.0005V19.0005C21.0002 19.5051 20.8096 19.9911 20.4665 20.361C20.1234 20.731 19.6532 20.9576 19.15 20.9955L19 21.0005H5C4.49542 21.0006 4.00943 20.8101 3.63945 20.467C3.26947 20.1239 3.04284 19.6536 3.005 19.1505L3 19.0005V5.00049C2.99984 4.49591 3.19041 4.00992 3.5335 3.63994C3.87659 3.26996 4.34684 3.04333 4.85 3.00549L5 3.00049H13ZM19.243 3.34349C19.423 3.16414 19.6644 3.06001 19.9184 3.05226C20.1723 3.04451 20.4197 3.1337 20.6103 3.30174C20.8008 3.46977 20.9203 3.70404 20.9444 3.95696C20.9685 4.20989 20.8954 4.4625 20.74 4.66349L20.657 4.75849L10.757 14.6575C10.577 14.8368 10.3356 14.941 10.0816 14.9487C9.82767 14.9565 9.58029 14.8673 9.38972 14.6992C9.19916 14.5312 9.07969 14.2969 9.0556 14.044C9.03151 13.7911 9.10459 13.5385 9.26 13.3375L9.343 13.2435L19.243 3.34349Z" fill="black"/>
</g>
<defs>
<clipPath id="clip0_1050_6147">
<rect width="24" height="24" fill="white" transform="translate(0 0.000488281)"/>
</clipPath>
</defs>
</svg>
