<svg width="44" height="44" viewBox="0 0 44 44" fill="none" xmlns="http://www.w3.org/2000/svg">
<path fill-rule="evenodd" clip-rule="evenodd" d="M17.3278 41.4466C21.9792 42.5641 26.877 41.9774 31.1328 39.793L30.2195 38.0137C26.3893 39.9797 21.9812 40.5077 17.7951 39.5019C13.6089 38.4962 9.92184 36.0233 7.40279 32.5319C4.88373 29.0405 3.69953 24.7618 4.065 20.472C4.43047 16.1823 6.3214 12.1656 9.39476 9.1506C12.4681 6.13563 16.5204 4.32209 20.8163 4.03898C25.1123 3.75587 29.3675 5.02193 32.8099 7.6075C36.2524 10.1931 38.6541 13.9269 39.5794 18.1316C40.5046 22.3363 39.8922 26.7333 37.8531 30.5252L39.6146 31.4724C41.8802 27.2593 42.5607 22.3736 41.5326 17.7017C40.5046 13.0298 37.836 8.88118 34.0111 6.00833C30.1861 3.13548 25.4581 1.72874 20.6848 2.04331C15.9115 2.35788 11.409 4.37292 7.99418 7.72288C4.57933 11.0729 2.4783 15.5358 2.07222 20.3022C1.66615 25.0686 2.98193 29.8227 5.78088 33.7021C8.57983 37.5814 12.6765 40.3291 17.3278 41.4466ZM22.3658 28.3661C21.6806 28.3661 21.1199 27.9584 21.1199 27.4601V11.8299C21.1199 11.3316 21.6806 10.9239 22.3658 10.9239C23.051 10.9239 23.6117 11.3316 23.6117 11.8299V27.4601C23.6117 27.9584 23.051 28.3661 22.3658 28.3661ZM21.1199 30.8578C21.1199 31.1882 21.2512 31.5051 21.4848 31.7388C21.7185 31.9724 22.0354 32.1037 22.3658 32.1037C22.6962 32.1037 23.0131 31.9724 23.2468 31.7388C23.4804 31.5051 23.6117 31.1882 23.6117 30.8578C23.6117 30.5274 23.4804 30.2105 23.2468 29.9768C23.0131 29.7432 22.6962 29.6119 22.3658 29.6119C22.0354 29.6119 21.7185 29.7432 21.4848 29.9768C21.2512 30.2105 21.1199 30.5274 21.1199 30.8578Z" fill="#C01717"/>
</svg>
