<svg width="16" height="16" viewBox="0 0 16 16" fill="none" xmlns="http://www.w3.org/2000/svg">
<g clip-path="url(#clip0_1673_8647)">
<path fill-rule="evenodd" clip-rule="evenodd" d="M11.6016 13.5588C11.7747 13.8258 11.6994 14.1847 11.4195 14.3358C10.0625 15.0686 8.50077 15.3486 6.96455 15.1256C5.23765 14.875 3.66055 14.0057 2.52653 12.6794C1.3925 11.3531 0.778723 9.66015 0.799331 7.91528C0.819938 6.17041 1.47353 4.49239 2.63856 3.19328C3.80359 1.89416 5.40078 1.06236 7.13311 0.852545C8.86545 0.642731 10.615 1.06919 12.0565 2.05261C13.498 3.03603 14.5333 4.5095 14.9699 6.199C15.3582 7.70195 15.2493 9.28487 14.6681 10.7134C14.5482 11.008 14.1996 11.1217 13.9154 10.9787C13.6313 10.8357 13.5197 10.4901 13.6351 10.1937C14.0933 9.01629 14.173 7.71974 13.8545 6.48721C13.4878 5.06803 12.6181 3.83032 11.4073 3.00424C10.1964 2.17817 8.72679 1.81994 7.27163 1.99619C5.81647 2.17243 4.47483 2.87115 3.4962 3.9624C2.51757 5.05366 1.96856 6.46319 1.95125 7.92888C1.93394 9.39458 2.44951 10.8167 3.4021 11.9307C4.35468 13.0448 5.67944 13.775 7.13003 13.9856C8.38984 14.1684 9.6701 13.9486 10.7908 13.3653C11.073 13.2185 11.4286 13.2919 11.6016 13.5588ZM8.00008 10.4004C7.73608 10.4004 7.52008 10.2433 7.52008 10.0513V4.02945C7.52008 3.83745 7.73608 3.68036 8.00008 3.68036C8.26408 3.68036 8.48008 3.83745 8.48008 4.02945V10.0513C8.48008 10.2433 8.26408 10.4004 8.00008 10.4004ZM7.66067 11.6998C7.57065 11.6097 7.52008 11.4877 7.52008 11.3603C7.52008 11.233 7.57065 11.111 7.66067 11.0209C7.75069 10.9309 7.87278 10.8803 8.00008 10.8803C8.12738 10.8803 8.24947 10.9309 8.33949 11.0209C8.42951 11.111 8.48008 11.233 8.48008 11.3603C8.48008 11.4877 8.42951 11.6097 8.33949 11.6998C8.24947 11.7898 8.12738 11.8403 8.00008 11.8403C7.87278 11.8403 7.75069 11.7898 7.66067 11.6998Z" fill="#636363"/>
</g>
<defs>
<clipPath id="clip0_1673_8647">
<rect width="16" height="16" fill="white"/>
</clipPath>
</defs>
</svg>
