<svg width="44" height="44" viewBox="0 0 44 44" fill="none" xmlns="http://www.w3.org/2000/svg">
<path fill-rule="evenodd" clip-rule="evenodd" d="M17.9062 4.52678C21.6981 3.67986 25.6588 4.12871 29.1742 5.8037C32.5543 7.41426 35.341 10.0719 37.1378 13.3895L31.5289 12.384C30.9646 12.2829 30.4267 12.6659 30.3271 13.2395C30.2277 13.8131 30.6045 14.36 31.1686 14.4612L39.3412 15.9262C39.9055 16.0273 40.4434 15.6443 40.543 15.0707L41.9841 6.76227C42.0835 6.18871 41.7067 5.64174 41.1426 5.54058C40.5783 5.43945 40.0403 5.82245 39.941 6.39602L38.9167 12.3012C36.9072 8.62637 33.8084 5.68245 30.0547 3.8939C26.1256 2.02186 21.6989 1.52021 17.461 2.46674C13.223 3.41329 9.41069 5.75513 6.61543 9.129C3.82017 12.5029 2.19819 16.7202 2.00109 21.1269C1.97505 21.7086 2.41792 22.2017 2.99024 22.2283C3.56254 22.2547 4.0476 21.8043 4.07362 21.2226C4.07808 21.1233 4.08332 21.024 4.08938 20.9248C4.10341 20.8694 4.11266 20.8118 4.11666 20.7529C4.12054 20.6958 4.11934 20.639 4.11345 20.5838C4.41023 16.8734 5.83666 13.343 8.20225 10.4877C10.7033 7.46901 14.1143 5.37369 17.9062 4.52678ZM2.53005 26.6027C2.60092 26.907 2.67885 27.2099 2.76383 27.5111C2.84881 27.8123 2.94063 28.1112 3.0392 28.4075C3.22275 28.9592 3.82878 29.2225 4.36106 29.0071C4.89336 28.7918 5.15002 28.1793 4.96984 27.6265C4.89469 27.3959 4.82409 27.1635 4.75811 26.9296C4.69214 26.6957 4.6309 26.4607 4.57444 26.2247C4.43903 25.6588 3.90208 25.2777 3.33841 25.3819C2.77474 25.4861 2.3981 26.036 2.53005 26.6027ZM39.6461 30.2931C39.8835 29.763 39.6187 29.1495 39.0858 28.9363C38.5526 28.723 37.9532 28.9911 37.7125 29.5197C37.6121 29.7401 37.5071 29.9586 37.3978 30.175C37.2887 30.3914 37.175 30.6054 37.0574 30.8168C36.7752 31.3236 36.9103 31.9751 37.3916 32.2913C37.8727 32.6075 38.5173 32.4685 38.8026 31.9633C38.9557 31.6921 39.1028 31.417 39.2437 31.1382C39.3843 30.8594 39.5185 30.5776 39.6461 30.2931ZM5.78871 33.7989C5.97006 34.0516 6.15736 34.3003 6.35056 34.5443C6.54373 34.7885 6.74232 35.0279 6.94612 35.2623C7.32568 35.6984 7.98472 35.7024 8.39329 35.2941C8.80188 34.8858 8.80497 34.2201 8.42808 33.7814C8.27092 33.5986 8.11729 33.4123 7.96729 33.2227C7.81729 33.0331 7.67126 32.8405 7.52925 32.6452C7.18864 32.1768 6.5484 32.0371 6.06848 32.3552C5.58859 32.6733 5.451 33.3286 5.78871 33.7989ZM35.0777 36.7112C35.4986 36.3162 35.4885 35.6463 35.0783 35.2397C34.6681 34.833 34.0134 34.844 33.5899 35.2363C33.4134 35.4 33.2335 35.5601 33.0501 35.7166C32.8669 35.8731 32.6806 36.0256 32.4916 36.174C32.0383 36.5301 31.9144 37.1839 32.2374 37.6648C32.5605 38.1459 33.2078 38.2718 33.6634 37.9185C33.908 37.7289 34.1482 37.5332 34.3843 37.3318C34.6204 37.1301 34.8515 36.9232 35.0777 36.7112ZM11.5362 39.149C11.7997 39.3104 12.0671 39.4656 12.3383 39.6147C12.6095 39.7636 12.8838 39.906 13.161 40.0416C13.6772 40.2943 14.2862 40.0382 14.5072 39.5008C14.7282 38.9636 14.4773 38.3486 13.9626 38.0927C13.748 37.986 13.5353 37.8749 13.3248 37.7591C13.1142 37.6435 12.9062 37.5235 12.7008 37.3995C12.2083 37.1019 11.5648 37.2255 11.2437 37.7078C10.9226 38.19 11.0456 38.8482 11.5362 39.149ZM28.4194 40.8277C28.958 40.6294 29.2043 40.0079 28.981 39.4713C28.758 38.9349 28.1501 38.6871 27.6103 38.882C27.3852 38.9632 27.1582 39.0398 26.9296 39.1119C26.701 39.1838 26.4713 39.2511 26.2404 39.3135C25.6866 39.4631 25.3232 40.0169 25.4377 40.5877C25.552 41.1584 26.1008 41.5296 26.6553 41.3835C26.953 41.305 27.2493 41.2194 27.5437 41.1266C27.8383 41.0338 28.1302 40.934 28.4194 40.8277ZM18.8742 41.816C19.1786 41.861 19.4844 41.8987 19.791 41.9293C20.0979 41.9599 20.4049 41.9829 20.7122 41.9987C21.2844 42.0282 21.7483 41.5522 21.747 40.9698C21.746 40.3875 21.2802 39.9195 20.7082 39.8864C20.4697 39.8727 20.2313 39.8539 19.9931 39.8303C19.7549 39.8064 19.5174 39.778 19.2807 39.7444C18.7132 39.6643 18.1672 40.0315 18.0549 40.6029C17.9429 41.174 18.3072 41.7323 18.8742 41.816ZM21.5613 14.6056V21.9876H28.8246C29.3976 21.9876 29.8619 22.4599 29.8619 23.0422C29.8619 23.6248 29.3976 24.0968 28.8246 24.0968H19.4867V14.6056C19.4867 14.0232 19.951 13.551 20.524 13.551C21.0968 13.551 21.5613 14.0232 21.5613 14.6056Z" fill="#F19E0C"/>
</svg>
