<svg width="16" height="16" viewBox="0 0 16 16" fill="none" xmlns="http://www.w3.org/2000/svg">
<g clip-path="url(#clip0_1657_8522)">
<path d="M8.00065 14.6668C4.31865 14.6668 1.33398 11.6822 1.33398 8.00016C1.33398 4.31816 4.31865 1.3335 8.00065 1.3335C11.6827 1.3335 14.6673 4.31816 14.6673 8.00016C14.6673 11.6822 11.6827 14.6668 8.00065 14.6668ZM8.00065 13.3335C9.41514 13.3335 10.7717 12.7716 11.7719 11.7714C12.7721 10.7712 13.334 9.41465 13.334 8.00016C13.334 6.58567 12.7721 5.22912 11.7719 4.22893C10.7717 3.22873 9.41514 2.66683 8.00065 2.66683C6.58616 2.66683 5.22961 3.22873 4.22941 4.22893C3.22922 5.22912 2.66732 6.58567 2.66732 8.00016C2.66732 9.41465 3.22922 10.7712 4.22941 11.7714C5.22961 12.7716 6.58616 13.3335 8.00065 13.3335ZM7.08198 5.61016L10.3347 7.77816C10.3712 7.80251 10.4012 7.83551 10.422 7.87424C10.4427 7.91297 10.4536 7.95623 10.4536 8.00016C10.4536 8.0441 10.4427 8.08736 10.422 8.12609C10.4012 8.16482 10.3712 8.19782 10.3347 8.22216L7.08132 10.3902C7.0412 10.4168 6.99464 10.432 6.94657 10.4343C6.89849 10.4365 6.8507 10.4258 6.80826 10.4031C6.76581 10.3804 6.7303 10.3466 6.70549 10.3054C6.68068 10.2641 6.66749 10.217 6.66732 10.1688V5.8315C6.66741 5.78326 6.68058 5.73596 6.70542 5.69462C6.73027 5.65328 6.76586 5.61945 6.80842 5.59674C6.85097 5.57403 6.89888 5.56328 6.94706 5.56564C6.99523 5.56801 7.04186 5.58339 7.08198 5.61016Z" fill="white"/>
</g>
<defs>
<clipPath id="clip0_1657_8522">
<rect width="16" height="16" fill="white"/>
</clipPath>
</defs>
</svg>
