<svg width="12" height="13" viewBox="0 0 12 13" fill="none" xmlns="http://www.w3.org/2000/svg">
<g clip-path="url(#clip0_1057_6472)">
<path d="M1.49805 5.48462V9.98462C1.49805 10.2498 1.6034 10.5042 1.79094 10.6917C1.97848 10.8793 2.23283 10.9846 2.49805 10.9846H9.49805C9.76326 10.9846 10.0176 10.8793 10.2052 10.6917C10.3927 10.5042 10.498 10.2498 10.498 9.98462V5.48462" stroke="black" stroke-width="0.75"/>
<path d="M7.41504 10.9846V7.98462C7.41504 7.7194 7.30968 7.46505 7.12215 7.27751C6.93461 7.08998 6.68026 6.98462 6.41504 6.98462H5.41504C5.14982 6.98462 4.89547 7.08998 4.70793 7.27751C4.5204 7.46505 4.41504 7.7194 4.41504 7.98462V10.9846" stroke="black" stroke-width="0.75" stroke-miterlimit="16"/>
<path d="M10.908 5.16857L10.061 2.20407C10.0431 2.1414 10.0052 2.08626 9.95319 2.04702C9.90113 2.00778 9.83771 1.98656 9.77252 1.98657H7.74902L7.98652 4.83857C7.99011 4.88443 8.0046 4.92877 8.02878 4.96791C8.05295 5.00704 8.08612 5.03984 8.12552 5.06357C8.32052 5.18007 8.70152 5.39507 8.99902 5.48657C9.50702 5.64307 10.249 5.58657 10.672 5.53457C10.7131 5.52926 10.7526 5.51503 10.7877 5.49289C10.8227 5.47075 10.8525 5.44122 10.875 5.40637C10.8975 5.37152 10.9121 5.33219 10.9178 5.29112C10.9235 5.25005 10.9202 5.20822 10.908 5.16857Z" stroke="black" stroke-width="0.75"/>
<path d="M6.99795 5.48657C7.28195 5.39907 7.64195 5.19957 7.84295 5.08057C7.8898 5.05268 7.92781 5.01211 7.95259 4.96354C7.97736 4.91496 7.98789 4.86037 7.98295 4.80607L7.74795 1.98657H4.24795L4.01295 4.80607C4.00792 4.86045 4.01839 4.91515 4.04317 4.96382C4.06795 5.01249 4.10601 5.05315 4.15295 5.08107C4.35395 5.19957 4.71395 5.39907 4.99795 5.48657C5.74445 5.71657 6.25145 5.71657 6.99795 5.48657Z" stroke="black" stroke-width="0.75"/>
<path d="M1.93632 2.20456L1.08932 5.16956C1.07736 5.20915 1.07417 5.25087 1.07995 5.29182C1.08574 5.33277 1.10036 5.37197 1.12282 5.40669C1.14527 5.44142 1.17502 5.47085 1.20999 5.49293C1.24495 5.51501 1.28431 5.52922 1.32532 5.53456C1.74782 5.58706 2.49032 5.64306 2.99832 5.48706C3.29582 5.39556 3.67732 5.18056 3.87182 5.06456C3.91129 5.04078 3.94449 5.0079 3.96867 4.96867C3.99285 4.92945 4.0073 4.88501 4.01082 4.83906L4.24832 1.98706H2.22482C2.15963 1.98705 2.09621 2.00827 2.04415 2.04751C1.9921 2.08675 1.95424 2.14188 1.93632 2.20456Z" stroke="black" stroke-width="0.75"/>
<g filter="url(#filter0_d_1057_6472)">
<circle cx="9.49805" cy="9.9873" r="2" fill="white"/>
</g>
<g clip-path="url(#clip1_1057_6472)">
<path d="M9.39355 9.88306V9.25806H9.60189V9.88306H10.2269V10.0914H9.60189V10.7164H9.39355V10.0914H8.76855V9.88306H9.39355Z" fill="black"/>
</g>
</g>
<defs>
<filter id="filter0_d_1057_6472" x="5.49805" y="6.65397" width="7.33333" height="7.33333" filterUnits="userSpaceOnUse" color-interpolation-filters="sRGB">
<feFlood flood-opacity="0" result="BackgroundImageFix"/>
<feColorMatrix in="SourceAlpha" type="matrix" values="0 0 0 0 0 0 0 0 0 0 0 0 0 0 0 0 0 0 127 0" result="hardAlpha"/>
<feOffset dx="-0.333333" dy="0.333333"/>
<feGaussianBlur stdDeviation="0.833334"/>
<feComposite in2="hardAlpha" operator="out"/>
<feColorMatrix type="matrix" values="0 0 0 0 0 0 0 0 0 0 0 0 0 0 0 0 0 0 0.25 0"/>
<feBlend mode="normal" in2="BackgroundImageFix" result="effect1_dropShadow_1057_6472"/>
<feBlend mode="normal" in="SourceGraphic" in2="effect1_dropShadow_1057_6472" result="shape"/>
</filter>
<clipPath id="clip0_1057_6472">
<rect width="12" height="12" fill="white" transform="translate(0 0.483398)"/>
</clipPath>
<clipPath id="clip1_1057_6472">
<rect width="2.5" height="2.5" fill="white" transform="translate(8.24805 8.7373)"/>
</clipPath>
</defs>
</svg>
