<svg width="21" height="20" viewBox="0 0 21 20" fill="none" xmlns="http://www.w3.org/2000/svg">
<g clip-path="url(#clip0_2288_1295)">
<path d="M3.66734 5.34519L0.964844 2.64352L2.14401 1.46436L4.84568 4.16686H17.5473C17.6772 4.16685 17.8053 4.1972 17.9214 4.25549C18.0375 4.31379 18.1383 4.39841 18.2159 4.5026C18.2934 4.6068 18.3456 4.72768 18.3681 4.85559C18.3906 4.98351 18.383 5.11493 18.3457 5.23936L16.3457 11.906C16.2942 12.0778 16.1888 12.2283 16.0449 12.3354C15.9011 12.4424 15.7266 12.5002 15.5473 12.5002H5.33401V14.1669H14.5007V15.8335H4.50068C4.27966 15.8335 4.0677 15.7457 3.91142 15.5894C3.75514 15.4332 3.66734 15.2212 3.66734 15.0002V5.34519ZM5.33401 5.83352V10.8335H14.9273L16.4273 5.83352H5.33401ZM4.91734 19.1669C4.58582 19.1669 4.26788 19.0352 4.03346 18.8007C3.79904 18.5663 3.66734 18.2484 3.66734 17.9169C3.66734 17.5853 3.79904 17.2674 4.03346 17.033C4.26788 16.7986 4.58582 16.6669 4.91734 16.6669C5.24886 16.6669 5.56681 16.7986 5.80123 17.033C6.03565 17.2674 6.16734 17.5853 6.16734 17.9169C6.16734 18.2484 6.03565 18.5663 5.80123 18.8007C5.56681 19.0352 5.24886 19.1669 4.91734 19.1669ZM14.9173 19.1669C14.5858 19.1669 14.2679 19.0352 14.0335 18.8007C13.799 18.5663 13.6673 18.2484 13.6673 17.9169C13.6673 17.5853 13.799 17.2674 14.0335 17.033C14.2679 16.7986 14.5858 16.6669 14.9173 16.6669C15.2489 16.6669 15.5668 16.7986 15.8012 17.033C16.0356 17.2674 16.1673 17.5853 16.1673 17.9169C16.1673 18.2484 16.0356 18.5663 15.8012 18.8007C15.5668 19.0352 15.2489 19.1669 14.9173 19.1669Z" fill="#B5B5B5"/>
</g>
<defs>
<clipPath id="clip0_2288_1295">
<rect width="20" height="20" fill="white" transform="translate(0.333984)"/>
</clipPath>
</defs>
</svg>
