<svg width="25" height="24" viewBox="0 0 25 24" fill="none" xmlns="http://www.w3.org/2000/svg">
<g clip-path="url(#clip0_1401_7059)">
<path d="M4.49984 6.41396L1.25684 3.17196L2.67184 1.75696L5.91384 4.99996H21.1558C21.3117 4.99995 21.4654 5.03637 21.6047 5.10633C21.744 5.17628 21.865 5.27782 21.9581 5.40285C22.0511 5.52789 22.1137 5.67294 22.1407 5.82644C22.1678 5.97995 22.1586 6.13765 22.1138 6.28696L19.7138 14.287C19.6521 14.493 19.5255 14.6737 19.353 14.8022C19.1804 14.9306 18.971 15 18.7558 15H6.49984V17H17.4998V19H5.49984C5.23462 19 4.98027 18.8946 4.79273 18.7071C4.60519 18.5195 4.49984 18.2652 4.49984 18V6.41396ZM6.49984 6.99996V13H18.0118L19.8118 6.99996H6.49984ZM5.99984 23C5.60201 23 5.22048 22.8419 4.93918 22.5606C4.65787 22.2793 4.49984 21.8978 4.49984 21.5C4.49984 21.1021 4.65787 20.7206 4.93918 20.4393C5.22048 20.158 5.60201 20 5.99984 20C6.39766 20 6.77919 20.158 7.0605 20.4393C7.3418 20.7206 7.49984 21.1021 7.49984 21.5C7.49984 21.8978 7.3418 22.2793 7.0605 22.5606C6.77919 22.8419 6.39766 23 5.99984 23ZM17.9998 23C17.602 23 17.2205 22.8419 16.9392 22.5606C16.6579 22.2793 16.4998 21.8978 16.4998 21.5C16.4998 21.1021 16.6579 20.7206 16.9392 20.4393C17.2205 20.158 17.602 20 17.9998 20C18.3977 20 18.7792 20.158 19.0605 20.4393C19.3418 20.7206 19.4998 21.1021 19.4998 21.5C19.4998 21.8978 19.3418 22.2793 19.0605 22.5606C18.7792 22.8419 18.3977 23 17.9998 23Z" fill="white"/>
</g>
<defs>
<clipPath id="clip0_1401_7059">
<rect width="24" height="24" fill="white" transform="translate(0.5)"/>
</clipPath>
</defs>
</svg>
