<svg width="24" height="24" viewBox="0 0 24 24" fill="none" xmlns="http://www.w3.org/2000/svg">
<path d="M21.0796 14.9576H20.4421C20.3906 14.9436 20.3437 14.9201 20.2921 14.9107C18.9515 14.7045 17.8921 13.5889 17.8031 12.2811C17.6999 10.8186 18.5343 9.58108 19.8937 9.17795C20.0718 9.12639 20.2593 9.08889 20.4421 9.04202H21.0796C21.1218 9.05608 21.1593 9.07952 21.2062 9.0842C22.4437 9.28577 23.3858 10.1764 23.653 11.3951C23.6718 11.4889 23.6999 11.5826 23.7233 11.6764V12.3139C23.7093 12.3561 23.6858 12.3983 23.6812 12.4405C23.4843 13.6592 22.6171 14.5873 21.4124 14.8686C21.2952 14.8967 21.1874 14.9295 21.0796 14.9576L21.0796 14.9576ZM3.06091 9.04199L3.69846 9.04202C3.75002 9.05608 3.7969 9.07952 3.84846 9.0842C5.19846 9.29514 6.25315 10.4155 6.33752 11.7373C6.43127 13.1951 5.58752 14.428 4.22346 14.8264C4.05 14.878 3.8719 14.9155 3.69844 14.9576H3.06094C3.01875 14.9436 2.98125 14.9201 2.93906 14.9108C1.72031 14.6858 0.923438 13.978 0.54375 12.7967C0.492188 12.642 0.464062 12.478 0.421875 12.3186V11.6811C0.435938 11.6389 0.459375 11.5967 0.464063 11.5545C0.665625 10.3311 1.52812 9.40764 2.73281 9.12639C2.84531 9.09824 2.95312 9.07012 3.06091 9.04199ZM11.7516 9.04202H12.3891C12.4406 9.05608 12.4875 9.07952 12.5391 9.08889C13.8844 9.29983 14.9672 10.4623 15.0234 11.7748C15.0891 13.2514 14.1984 14.503 12.825 14.8545C12.6797 14.892 12.5344 14.9248 12.3891 14.9576H11.7516C11.7 14.9436 11.6531 14.9201 11.6016 14.9108C10.2563 14.7045 9.17341 13.5373 9.1125 12.2248C9.04219 10.7483 9.9375 9.4967 11.3109 9.14514C11.4609 9.10764 11.6062 9.07483 11.7516 9.04202Z" fill="#636363"/>
</svg>
