<svg width="17" height="16" viewBox="0 0 17 16" fill="none" xmlns="http://www.w3.org/2000/svg">
<g clip-path="url(#clip0_1676_9151)">
<path d="M8.50065 14.6668C4.81865 14.6668 1.83398 11.6822 1.83398 8.00016C1.83398 4.31816 4.81865 1.3335 8.50065 1.3335C12.1827 1.3335 15.1673 4.31816 15.1673 8.00016C15.1673 11.6822 12.1827 14.6668 8.50065 14.6668ZM8.50065 13.3335C9.91514 13.3335 11.2717 12.7716 12.2719 11.7714C13.2721 10.7712 13.834 9.41465 13.834 8.00016C13.834 6.58567 13.2721 5.22912 12.2719 4.22893C11.2717 3.22873 9.91514 2.66683 8.50065 2.66683C7.08616 2.66683 5.72961 3.22873 4.72941 4.22893C3.72922 5.22912 3.16732 6.58567 3.16732 8.00016C3.16732 9.41465 3.72922 10.7712 4.72941 11.7714C5.72961 12.7716 7.08616 13.3335 8.50065 13.3335ZM6.50065 6.00016H10.5007V10.0002H6.50065V6.00016Z" fill="#3C3C3C"/>
</g>
<defs>
<clipPath id="clip0_1676_9151">
<rect width="16" height="16" fill="white" transform="translate(0.5)"/>
</clipPath>
</defs>
</svg>
