<svg width="16" height="16" viewBox="0 0 16 16" fill="none" xmlns="http://www.w3.org/2000/svg">
<g clip-path="url(#clip0_3183_2626)">
<path d="M13.9993 8.82767V13.333H14.666V14.6663H1.33268V13.333H1.99935V8.82767C1.58893 8.55373 1.25249 8.1827 1.0199 7.74752C0.7873 7.31233 0.665744 6.82645 0.666016 6.33301C0.666016 5.78167 0.815349 5.25034 1.08802 4.79767L2.89602 1.66634C2.95453 1.565 3.03868 1.48084 3.14003 1.42233C3.24137 1.36382 3.35633 1.33301 3.47335 1.33301H12.526C12.643 1.33301 12.758 1.36382 12.8593 1.42233C12.9607 1.48084 13.0448 1.565 13.1033 1.66634L14.9047 4.78767C15.3024 5.44826 15.4302 6.2367 15.2616 6.9891C15.093 7.74151 14.6409 8.39999 13.9993 8.82767ZM12.666 9.31434C12.2076 9.36576 11.7436 9.3107 11.31 9.15344C10.8763 8.99618 10.4849 8.74097 10.166 8.40767C9.88616 8.70039 9.54988 8.93336 9.17749 9.09251C8.8051 9.25166 8.40432 9.3337 7.99935 9.33368C7.59447 9.33387 7.19375 9.25204 6.82137 9.09312C6.44898 8.9342 6.11266 8.70148 5.83268 8.40901C5.51377 8.74219 5.12227 8.99727 4.68865 9.15442C4.25504 9.31156 3.79101 9.36651 3.33268 9.31501V13.333H12.666V9.31501V9.31434ZM3.85868 2.66634L2.23668 5.47501C2.07907 5.86444 2.07434 6.29903 2.22344 6.69179C2.37254 7.08456 2.66447 7.40654 3.0408 7.59327C3.41714 7.78001 3.85011 7.81773 4.25307 7.69889C4.65603 7.58004 4.99924 7.31341 5.21402 6.95234C5.43735 6.39434 6.22735 6.39434 6.45135 6.95234C6.57488 7.26195 6.78842 7.52741 7.06437 7.71441C7.34032 7.90141 7.666 8.00137 7.99935 8.00137C8.3327 8.00137 8.65838 7.90141 8.93433 7.71441C9.21028 7.52741 9.42382 7.26195 9.54735 6.95234C9.77068 6.39434 10.5607 6.39434 10.7847 6.95234C10.8712 7.16531 11.0008 7.35807 11.1654 7.51853C11.33 7.67898 11.5261 7.80364 11.7412 7.88469C11.9563 7.96573 12.1858 8.00141 12.4154 7.98946C12.6449 7.97752 12.8695 7.91822 13.0751 7.81529C13.2806 7.71236 13.4626 7.56803 13.6097 7.39136C13.7568 7.2147 13.8657 7.00952 13.9297 6.78872C13.9936 6.56793 14.0112 6.33629 13.9813 6.10838C13.9514 5.88046 13.8747 5.66119 13.756 5.46434L12.1393 2.66634H3.85935H3.85868Z" fill="#636363"/>
</g>
<defs>
<clipPath id="clip0_3183_2626">
<rect width="16" height="16" fill="white"/>
</clipPath>
</defs>
</svg>
