<svg width="16" height="4" viewBox="0 0 16 4" fill="none" xmlns="http://www.w3.org/2000/svg">
<path d="M0.1875 1.85156C0.1875 1.48438 0.300781 1.17578 0.527344 0.925781C0.761719 0.667969 1.09766 0.539062 1.53516 0.539062C1.97266 0.539062 2.30469 0.667969 2.53125 0.925781C2.76562 1.17578 2.88281 1.48438 2.88281 1.85156C2.88281 2.21094 2.76562 2.51562 2.53125 2.76562C2.30469 3.01562 1.97266 3.14062 1.53516 3.14062C1.09766 3.14062 0.761719 3.01562 0.527344 2.76562C0.300781 2.51562 0.1875 2.21094 0.1875 1.85156ZM6.51562 1.85156C6.51562 1.48438 6.62891 1.17578 6.85547 0.925781C7.08984 0.667969 7.42578 0.539062 7.86328 0.539062C8.30078 0.539062 8.63281 0.667969 8.85938 0.925781C9.09375 1.17578 9.21094 1.48438 9.21094 1.85156C9.21094 2.21094 9.09375 2.51562 8.85938 2.76562C8.63281 3.01562 8.30078 3.14062 7.86328 3.14062C7.42578 3.14062 7.08984 3.01562 6.85547 2.76562C6.62891 2.51562 6.51562 2.21094 6.51562 1.85156ZM12.8438 1.85156C12.8438 1.48438 12.957 1.17578 13.1836 0.925781C13.418 0.667969 13.7539 0.539062 14.1914 0.539062C14.6289 0.539062 14.9609 0.667969 15.1875 0.925781C15.4219 1.17578 15.5391 1.48438 15.5391 1.85156C15.5391 2.21094 15.4219 2.51562 15.1875 2.76562C14.9609 3.01562 14.6289 3.14062 14.1914 3.14062C13.7539 3.14062 13.418 3.01562 13.1836 2.76562C12.957 2.51562 12.8438 2.21094 12.8438 1.85156Z" fill="#3C3C3C"/>
</svg>
