<svg width="24" height="24" viewBox="0 0 24 24" fill="none" xmlns="http://www.w3.org/2000/svg">
<path fill-rule="evenodd" clip-rule="evenodd" d="M17.4015 20.3377C17.661 20.7382 17.5482 21.2765 17.1283 21.5033C15.0928 22.6023 12.7502 23.0224 10.4458 22.688C7.8555 22.312 5.48986 21.008 3.78882 19.0186C2.08777 17.0292 1.16711 14.4897 1.19802 11.8724C1.22893 9.25512 2.20931 6.7381 3.95686 4.78943C5.70441 2.84076 8.10019 1.59305 10.6987 1.27833C13.2972 0.963608 15.9216 1.60329 18.0838 3.07843C20.246 4.55356 21.799 6.76376 22.4538 9.29801C23.0363 11.5524 22.8729 13.9268 22.0012 16.0696C21.8214 16.5116 21.2984 16.6821 20.8722 16.4676C20.446 16.253 20.2786 15.7347 20.4517 15.29C21.139 13.5239 21.2585 11.5791 20.7808 9.73032C20.2307 7.60155 18.9262 5.74499 17.11 4.50587C15.2937 3.26676 13.0892 2.72943 10.9065 2.99379C8.72372 3.25816 6.71127 4.30623 5.24333 5.94312C3.77539 7.58 2.95186 9.6943 2.9259 11.8928C2.89993 14.0914 3.67329 16.2245 5.10217 17.8956C6.53104 19.5667 8.51818 20.662 10.6941 20.9779C12.5838 21.2522 14.5042 20.9223 16.1852 20.0475C16.6085 19.8272 17.1419 19.9373 17.4015 20.3377ZM11.9973 15.6005C11.6013 15.6005 11.2773 15.3649 11.2773 15.0769V6.04415C11.2773 5.75615 11.6013 5.52051 11.9973 5.52051C12.3933 5.52051 12.7173 5.75615 12.7173 6.04415V15.0769C12.7173 15.3649 12.3933 15.6005 11.9973 15.6005ZM11.4882 17.5497C11.3532 17.4146 11.2773 17.2315 11.2773 17.0406C11.2773 16.8496 11.3532 16.6665 11.4882 16.5314C11.6233 16.3964 11.8064 16.3206 11.9973 16.3206C12.1883 16.3206 12.3714 16.3964 12.5065 16.5314C12.6415 16.6665 12.7173 16.8496 12.7173 17.0406C12.7173 17.2315 12.6415 17.4146 12.5065 17.5497C12.3714 17.6847 12.1883 17.7606 11.9973 17.7606C11.8064 17.7606 11.6233 17.6847 11.4882 17.5497Z" fill="#636363"/>
</svg>
