<svg width="16" height="16" viewBox="0 0 16 16" fill="none" xmlns="http://www.w3.org/2000/svg">
<path d="M3.2 5.2H12.8V14.3C12.8 14.4857 12.7368 14.6637 12.6243 14.795C12.5117 14.9263 12.3591 15 12.2 15H3.8C3.64087 15 3.48826 14.9263 3.37574 14.795C3.26321 14.6637 3.2 14.4857 3.2 14.3V5.2ZM4.4 6.6V13.6H11.6V6.6H4.4ZM6.2 8H7.4V12.2H6.2V8ZM8.6 8H9.8V12.2H8.6V8ZM5 3.1V1.7C5 1.51435 5.06321 1.3363 5.17574 1.20503C5.28826 1.07375 5.44087 1 5.6 1H10.4C10.5591 1 10.7117 1.07375 10.8243 1.20503C10.9368 1.3363 11 1.51435 11 1.7V3.1H14V4.5H2V3.1H5ZM6.2 2.4V3.1H9.8V2.4H6.2Z" fill="#3C3C3C"/>
</svg>
