<svg width="16" height="17" viewBox="0 0 16 17" fill="none" xmlns="http://www.w3.org/2000/svg">
<path d="M3.2 5.7H12.8V14.8C12.8 14.9857 12.7368 15.1637 12.6243 15.295C12.5117 15.4263 12.3591 15.5 12.2 15.5H3.8C3.64087 15.5 3.48826 15.4263 3.37574 15.295C3.26321 15.1637 3.2 14.9857 3.2 14.8V5.7ZM4.4 7.1V14.1H11.6V7.1H4.4ZM6.2 8.5H7.4V12.7H6.2V8.5ZM8.6 8.5H9.8V12.7H8.6V8.5ZM5 3.6V2.2C5 2.01435 5.06321 1.8363 5.17574 1.70503C5.28826 1.57375 5.44087 1.5 5.6 1.5H10.4C10.5591 1.5 10.7117 1.57375 10.8243 1.70503C10.9368 1.8363 11 2.01435 11 2.2V3.6H14V5H2V3.6H5ZM6.2 2.9V3.6H9.8V2.9H6.2Z" fill="#C01717"/>
</svg>
