<svg width="16" height="16" viewBox="0 0 16 16" fill="none" xmlns="http://www.w3.org/2000/svg">
<g clip-path="url(#clip0_2288_1278)">
<path d="M13.3327 14.6667H11.9993V13.3334C11.9993 12.803 11.7886 12.2943 11.4136 11.9192C11.0385 11.5441 10.5298 11.3334 9.99935 11.3334H5.99935C5.46892 11.3334 4.96021 11.5441 4.58514 11.9192C4.21006 12.2943 3.99935 12.803 3.99935 13.3334V14.6667H2.66602V13.3334C2.66602 12.4494 3.01721 11.6015 3.64233 10.9764C4.26745 10.3513 5.11529 10.0001 5.99935 10.0001H9.99935C10.8834 10.0001 11.7313 10.3513 12.3564 10.9764C12.9815 11.6015 13.3327 12.4494 13.3327 13.3334V14.6667ZM7.99935 8.66675C7.47406 8.66675 6.95392 8.56328 6.46862 8.36227C5.98331 8.16125 5.54236 7.86661 5.17092 7.49518C4.79949 7.12374 4.50485 6.68278 4.30383 6.19748C4.10281 5.71218 3.99935 5.19204 3.99935 4.66675C3.99935 4.14146 4.10281 3.62132 4.30383 3.13601C4.50485 2.65071 4.79949 2.20976 5.17092 1.83832C5.54236 1.46689 5.98331 1.17225 6.46862 0.97123C6.95392 0.770211 7.47406 0.666748 7.99935 0.666748C9.06021 0.666748 10.0776 1.08818 10.8278 1.83832C11.5779 2.58847 11.9993 3.60588 11.9993 4.66675C11.9993 5.72761 11.5779 6.74503 10.8278 7.49518C10.0776 8.24532 9.06021 8.66675 7.99935 8.66675ZM7.99935 7.33342C8.70659 7.33342 9.38487 7.05246 9.88497 6.55237C10.3851 6.05227 10.666 5.37399 10.666 4.66675C10.666 3.9595 10.3851 3.28123 9.88497 2.78113C9.38487 2.28103 8.70659 2.00008 7.99935 2.00008C7.29211 2.00008 6.61383 2.28103 6.11373 2.78113C5.61363 3.28123 5.33268 3.9595 5.33268 4.66675C5.33268 5.37399 5.61363 6.05227 6.11373 6.55237C6.61383 7.05246 7.29211 7.33342 7.99935 7.33342Z" fill="#B5B5B5"/>
</g>
<defs>
<clipPath id="clip0_2288_1278">
<rect width="16" height="16" fill="white"/>
</clipPath>
</defs>
</svg>
