<svg width="32" height="32" viewBox="0 0 32 32" fill="none" xmlns="http://www.w3.org/2000/svg">
<g clip-path="url(#clip0_192_6408)">
<path d="M2.67186 29.3333L4.47452 22.7093C3.28671 20.6731 2.66265 18.3573 2.66652 16C2.66652 8.63596 8.63586 2.66663 15.9999 2.66663C23.3639 2.66663 29.3332 8.63596 29.3332 16C29.3332 23.364 23.3639 29.3333 15.9999 29.3333C13.6436 29.3371 11.3287 28.7135 9.29319 27.5266L2.67186 29.3333ZM11.1879 9.74396C11.0157 9.75465 10.8474 9.8 10.6932 9.87729C10.5486 9.9592 10.4165 10.0616 10.3012 10.1813C10.1412 10.332 10.0505 10.4626 9.95319 10.5893C9.4604 11.2306 9.19533 12.0179 9.19986 12.8266C9.20252 13.48 9.37319 14.116 9.63986 14.7106C10.1852 15.9133 11.0825 17.1866 12.2679 18.3666C12.5532 18.6506 12.8319 18.936 13.1319 19.2013C14.603 20.4966 16.3562 21.4307 18.2519 21.9293L19.0105 22.0453C19.2572 22.0586 19.5039 22.04 19.7519 22.028C20.1402 22.0079 20.5193 21.9028 20.8625 21.72C21.0839 21.6026 21.1879 21.544 21.3732 21.4266C21.3732 21.4266 21.4305 21.3893 21.5399 21.3066C21.7199 21.1733 21.8305 21.0786 21.9799 20.9226C22.0905 20.808 22.1865 20.6733 22.2599 20.52C22.3639 20.3026 22.4679 19.888 22.5105 19.5426C22.5425 19.2786 22.5332 19.1346 22.5292 19.0453C22.5239 18.9026 22.4052 18.7546 22.2759 18.692L21.4999 18.344C21.4999 18.344 20.3399 17.8386 19.6319 17.516C19.5572 17.4834 19.4772 17.4649 19.3959 17.4613C19.3046 17.4519 19.2125 17.4622 19.1255 17.4914C19.0386 17.5206 18.9589 17.5681 18.8919 17.6306V17.628C18.8852 17.628 18.7959 17.704 17.8319 18.872C17.7765 18.9463 17.7003 19.0025 17.6129 19.0334C17.5255 19.0642 17.4309 19.0684 17.3412 19.0453C17.2543 19.0221 17.1692 18.9927 17.0865 18.9573C16.9212 18.888 16.8639 18.8613 16.7505 18.812L16.7439 18.8093C15.9811 18.4763 15.2748 18.0264 14.6505 17.476C14.4825 17.3293 14.3265 17.1693 14.1665 17.0146C13.642 16.5123 13.1848 15.944 12.8065 15.324L12.7279 15.1973C12.6714 15.1122 12.6257 15.0204 12.5919 14.924C12.5412 14.728 12.6732 14.5706 12.6732 14.5706C12.6732 14.5706 12.9972 14.216 13.1479 14.024C13.2733 13.8644 13.3904 13.6984 13.4985 13.5266C13.6559 13.2733 13.7052 13.0133 13.6225 12.812C13.2492 11.9 12.8625 10.992 12.4652 10.0906C12.3865 9.91196 12.1532 9.78396 11.9412 9.75863C11.8692 9.75063 11.7972 9.74263 11.7252 9.73729C11.5461 9.7284 11.3667 9.73018 11.1879 9.74263V9.74396Z" fill="white"/>
</g>
<defs>
<clipPath id="clip0_192_6408">
<rect width="32" height="32" fill="white"/>
</clipPath>
</defs>
</svg>
