<svg width="346" height="13" viewBox="0 0 346 13" fill="none" xmlns="http://www.w3.org/2000/svg">
<path fill-rule="evenodd" clip-rule="evenodd" d="M168.329 0.137898C213.111 0.710399 248.119 1.58271 265.025 2.54753C268.282 2.73344 268.403 2.71566 267.425 2.19528C266.439 1.66979 266.689 1.65623 273.598 1.85961C294.169 2.46466 317.592 4.86796 337.177 8.38281C344.758 9.74295 346.496 10.307 345.889 11.2098C345.115 12.3617 343.596 12.5904 336.731 12.5892C332.076 12.5883 327.292 12.3225 320.231 11.6723C267.377 6.80602 239.615 5.76257 136.439 4.76431C100.214 4.41388 92.3937 4.29064 65.4599 3.64582C43.0867 3.11008 18.4359 2.98022 7.19376 3.33848C3.05911 3.47046 -0.175079 3.51264 0.00735474 3.43279C0.420197 3.2514 14.8012 2.19499 22.598 1.77344C31.4556 1.29465 54.0943 0.576613 70.9463 0.240344C84.0154 -0.0205952 150.459 -0.0904995 168.329 0.137898Z" fill="#FED000"/>
</svg>
