<svg width="154" height="139" viewBox="0 0 154 139" fill="none" xmlns="http://www.w3.org/2000/svg">
<g id="Frame 956">
<path id="Vector" d="M144.836 70.7188V147.335H9.2186V70.4156C5.8521 67.9267 3.38972 64.6692 1.83145 60.6432C0.273178 56.6119 0.238609 52.3094 1.72774 47.7356L12.6649 11.7173H141.078L152.327 47.7356C153.816 52.3094 153.781 56.6465 152.223 60.7469C150.659 64.8473 148.197 68.1713 144.836 70.7188ZM94.5777 67.5597C99.6992 67.5597 103.523 66.1237 106.049 63.2518C108.576 60.38 109.639 57.4176 109.24 54.3649L103.943 19.6948H81.0239V53.2002C81.0239 57.1198 82.3642 60.4916 85.0446 63.3157C87.7197 66.145 90.8921 67.5597 94.5777 67.5597ZM58.687 67.5597C62.9735 67.5597 66.4384 66.145 69.0816 63.3157C71.7249 60.4916 73.0465 57.1198 73.0465 53.2002V19.6948H50.1192L44.8062 54.9792C44.4817 57.4522 45.564 60.1672 48.053 63.1242C50.542 66.0812 54.0919 67.5597 58.687 67.5597ZM23.1792 67.5597C26.6946 67.5597 29.6835 66.3631 32.1459 63.9698C34.6083 61.5766 36.1399 58.5903 36.7409 55.0111L41.7428 19.6948H18.3608L9.61747 49.4907C8.30917 53.6815 8.86759 57.7421 11.2927 61.6723C13.7232 65.5972 17.6854 67.5597 23.1792 67.5597ZM130.875 67.5597C135.651 67.5597 139.464 65.6983 142.315 61.9754C145.171 58.2526 145.878 54.091 144.437 49.4907L135.446 19.6948H112.312L117.314 55.0111C117.914 58.5903 119.446 61.5766 121.909 63.9698C124.366 66.3631 127.355 67.5597 130.875 67.5597Z" fill="#F6F6F6"/>
</g>
</svg>
