<svg width="122" height="139" viewBox="0 0 122 139" fill="none" xmlns="http://www.w3.org/2000/svg">
<path d="M104.408 88.7058C113.657 88.7058 121.149 96.1978 121.149 105.447V111.82H121.103C120.788 119.034 118.809 128.071 110.716 135.452C101.874 143.526 86.603 148.799 61.0287 148.799C35.4451 148.799 20.1838 143.526 11.3414 135.452C3.24828 128.071 1.26893 119.025 0.954451 111.82H0.908203V105.438C0.908203 96.1978 8.40014 88.7058 17.6494 88.7058H104.408ZM28.6561 10.059C24.9765 10.059 21.4476 11.5207 18.8457 14.1226C16.2439 16.7245 14.7822 20.2533 14.7822 23.933V60.9302C14.7822 64.6098 16.2439 68.1387 18.8457 70.7405C21.4476 73.3424 24.9765 74.8041 28.6561 74.8041H93.4013C97.0809 74.8041 100.61 73.3424 103.212 70.7405C105.814 68.1387 107.275 64.6098 107.275 60.9302V23.933C107.275 20.2533 105.814 16.7245 103.212 14.1226C100.61 11.5207 97.0809 10.059 93.4013 10.059H65.6533V5.43434C65.6795 4.82004 65.5778 4.207 65.3547 3.63406C65.1315 3.06112 64.7918 2.54078 64.357 2.10601C63.9222 1.67124 63.4019 1.33152 62.829 1.10837C62.256 0.885221 61.643 0.783513 61.0287 0.80969C58.4759 0.80969 56.404 2.93703 56.404 5.43434V10.059H28.6561ZM33.2808 42.4316C33.2808 39.9785 34.2553 37.6259 35.9898 35.8913C37.7244 34.1567 40.077 33.1823 42.5301 33.1823C44.9831 33.1823 47.3357 34.1567 49.0703 35.8913C50.8049 37.6259 51.7794 39.9785 51.7794 42.4316C51.7794 44.8846 50.8049 47.2372 49.0703 48.9718C47.3357 50.7064 44.9831 51.6809 42.5301 51.6809C40.077 51.6809 37.7244 50.7064 35.9898 48.9718C34.2553 47.2372 33.2808 44.8846 33.2808 42.4316ZM70.278 42.4316C70.278 39.9785 71.2525 37.6259 72.9871 35.8913C74.7216 34.1567 77.0742 33.1823 79.5273 33.1823C81.9804 33.1823 84.333 34.1567 86.0675 35.8913C87.8021 37.6259 88.7766 39.9785 88.7766 42.4316C88.7766 44.8846 87.8021 47.2372 86.0675 48.9718C84.333 50.7064 81.9804 51.6809 79.5273 51.6809C77.0742 51.6809 74.7216 50.7064 72.9871 48.9718C71.2525 47.2372 70.278 44.8846 70.278 42.4316Z" fill="#F6F6F6"/>
</svg>
