<svg width="127" height="139" viewBox="0 0 127 139" fill="none" xmlns="http://www.w3.org/2000/svg">
<g id="Frame 956">
<path id="Vector" d="M63.9062 72.8096C83.7906 72.8096 99.9062 56.6939 99.9062 36.8096C99.9062 16.9252 83.7906 0.80957 63.9062 0.80957C44.0219 0.80957 27.9062 16.9252 27.9062 36.8096C27.9062 56.6939 44.0219 72.8096 63.9062 72.8096ZM89.1063 81.8096H84.4094C78.1656 84.6783 71.2188 86.3096 63.9062 86.3096C56.5938 86.3096 49.675 84.6783 43.4031 81.8096H38.7062C17.8375 81.8096 0.90625 98.7408 0.90625 119.61V131.31C0.90625 138.763 6.95312 144.81 14.4062 144.81H113.406C120.859 144.81 126.906 138.763 126.906 131.31V119.61C126.906 98.7408 109.975 81.8096 89.1063 81.8096Z" fill="#F6F6F6"/>
</g>
</svg>
