<svg width="98" height="101" viewBox="0 0 98 101" fill="none" xmlns="http://www.w3.org/2000/svg">
<path fill-rule="evenodd" clip-rule="evenodd" d="M64.7422 31.4395H34.3879C32.3665 31.4405 30.4281 32.2945 28.9987 33.8138C27.5694 35.3331 26.7659 37.3933 26.7649 39.5419C26.7649 41.6908 27.568 43.7517 28.9976 45.2712C30.4272 46.7907 32.3661 47.6444 34.3879 47.6444H47.1974L48.0963 45.6401C48.4266 45.2796 48.8774 45.0721 49.3508 45.0628C49.6004 45.0567 49.8485 45.1047 50.08 45.204C50.3115 45.3033 50.5215 45.4516 50.6972 45.6401C50.9343 46.3068 51.1753 46.9776 51.4163 47.6444H64.7422C66.7639 47.6444 68.7029 46.7907 70.1324 45.2712C71.562 43.7517 72.3652 41.6908 72.3652 39.5419C72.3642 37.3933 71.5607 35.3331 70.1313 33.8138C68.702 32.2945 66.7636 31.4405 64.7422 31.4395ZM39.869 43.4285C39.1496 43.4269 38.4465 43.1998 37.8479 42.7755C37.2461 42.3489 36.7768 41.7422 36.4995 41.0321C36.2221 40.322 36.1491 39.5404 36.2898 38.7862C36.4305 38.032 36.7784 37.3391 37.2897 36.7951C37.8009 36.2512 38.4524 35.8806 39.1618 35.7303C39.8712 35.58 40.6067 35.6567 41.275 35.9508C41.9434 36.2448 42.5147 36.743 42.9167 37.3822C43.3186 38.0215 43.5332 38.773 43.5332 39.5419C43.5332 40.053 43.4384 40.559 43.2541 41.0311C43.0699 41.5032 42.7999 41.932 42.4595 42.293C42.1191 42.654 41.7151 42.9401 41.2706 43.135M58.8366 43.4285C58.1172 43.4269 57.4141 43.1998 56.8155 42.7755C56.2137 42.3489 55.7444 41.7422 55.4671 41.0321C55.1897 40.322 55.1167 39.5404 55.2574 38.7862C55.3981 38.032 55.746 37.3391 56.2572 36.7951C56.7685 36.2512 57.42 35.8806 58.1294 35.7303C58.8388 35.58 59.5742 35.6567 60.2426 35.9508C60.911 36.2448 61.4823 36.743 61.8843 37.3822C62.2862 38.0215 62.5008 38.773 62.5008 39.5419C62.5008 40.053 62.406 40.559 62.2217 41.0311C62.0375 41.5032 61.7674 41.932 61.4271 42.293C61.0867 42.654 60.6827 42.9401 60.2382 43.135" fill="#007AEA"/>
<path d="M43.167 53.0933C44.3149 53.5548 46.2758 54.3431 48.9039 54.3585C51.6202 54.3741 53.6513 53.5548 54.8152 53.0853C55.4672 52.8222 55.8471 52.669 55.9226 52.834C56.1942 53.3787 52.9507 57.1027 48.9269 57.0824C44.9031 57.062 41.7476 53.3747 42.0192 52.834C42.1103 52.6685 42.5024 52.8261 43.167 53.0933Z" fill="#007AEA"/>
<path fill-rule="evenodd" clip-rule="evenodd" d="M48.7278 0.291016C27.5303 0.291016 10.3489 17.74 10.3489 39.2666C10.3489 50.7759 15.2639 61.1225 23.0743 68.2573C21.9487 70.7723 20.581 73.1565 18.9931 75.3719C16.5384 78.8296 13.4866 81.7588 10.0008 84.0029C14.6092 83.2828 19.1507 82.143 23.5754 80.596C27.1396 79.3505 30.6227 77.8566 34.002 76.124C33.8834 75.876 33.7534 75.624 33.6004 75.3679V72.9286C33.5989 71.6767 33.8296 70.4367 34.2792 69.2796C34.7289 68.1225 35.3888 67.071 36.2211 66.1852C37.0535 65.2994 38.0419 64.5967 39.1299 64.1172C40.218 63.6378 41.3842 63.391 42.5621 63.391H55.2607C57.0693 63.3933 58.835 63.9769 60.3258 65.0653C61.8167 66.1536 62.963 67.6958 63.6142 69.4892C65.5802 68.0798 67.6087 66.665 69.6996 65.2449C71.2487 64.196 72.7901 63.1796 74.3086 62.1958C74.8594 62.6023 75.4561 63.1674 75.5402 63.9398C75.6779 65.1595 74.5113 66.3588 70.6214 69.0583C68.9423 70.221 66.6971 71.7049 63.9585 73.3067C63.9929 73.585 64.0282 73.8624 64.0636 74.1397C64.099 74.4173 64.1344 74.6949 64.1688 74.9735C77.6745 68.9363 87.1181 55.2316 87.1181 39.2828C87.1067 17.74 69.9253 0.291016 48.7278 0.291016ZM60.8833 62.6389H36.9395C32.7134 62.6389 28.6604 60.8545 25.6721 57.6782C22.6838 54.502 21.005 50.1941 21.005 45.7022V40.4171C21.005 34.9311 23.0554 29.6698 26.705 25.7906C30.3547 21.9114 35.3047 19.732 40.466 19.732H43.8893C43.5566 19.732 43.2375 19.5916 43.0022 19.3415C42.7669 19.0914 42.6348 18.7522 42.6348 18.3986C42.6348 18.0449 42.7669 17.7057 43.0022 17.4557C43.2375 17.2056 43.5566 17.0651 43.8893 17.0651H48.418V12.0646C46.5055 11.7759 45.0942 10.1904 45.2395 8.40567C45.3887 6.55995 47.1519 5.21428 49.2059 5.40129C51.2599 5.5883 52.7822 7.23889 52.6483 9.08461C52.5182 10.7108 51.1183 11.9304 49.4201 12.089V17.061H53.9526C54.2853 17.061 54.6044 17.2015 54.8397 17.4516C55.075 17.7017 55.2071 18.0408 55.2071 18.3945C55.2071 18.7482 55.075 19.0873 54.8397 19.3374C54.6044 19.5875 54.2853 19.728 53.9526 19.728H57.372C62.5334 19.728 67.4834 21.9073 71.133 25.7865C74.7827 29.6657 76.833 34.927 76.833 40.413V45.6981C76.834 47.9241 76.4221 50.1285 75.6208 52.1852C74.8194 54.2418 73.6444 56.1103 72.163 57.6838C70.6816 59.2572 68.9228 60.5048 66.9873 61.355C65.0518 62.2053 62.9776 62.6416 60.8833 62.6389Z" fill="#007AEA"/>
<path d="M0.382812 77.6774H6.09343C9.31011 77.6774 11.4478 78.2169 12.5064 79.2959C13.5651 80.3749 14.0944 81.6778 14.0944 83.2047C14.0944 84.2227 13.8705 85.1897 13.4226 86.1059C12.9747 87.0016 12.2621 87.6735 11.2849 88.1214C12.7304 88.4878 13.789 89.1291 14.4609 90.0453C15.1531 90.9614 15.4992 92.0404 15.4992 93.2823C15.4992 94.5853 15.2956 95.7253 14.8884 96.7026C14.4812 97.6798 13.6363 98.4941 12.3537 99.1456C11.0711 99.7971 9.21849 100.123 6.79581 100.123H0.382812V77.6774ZM6.64312 87.2052C8.08858 87.2052 9.1167 86.8591 9.72746 86.1669C10.3382 85.4544 10.6436 84.5586 10.6436 83.4796C10.6436 81.5455 9.25921 80.5785 6.49043 80.5785H3.742V87.2052H6.64312ZM7.25388 97.2523C9.10652 97.2523 10.3484 96.8858 10.9795 96.1529C11.631 95.3996 11.9567 94.4529 11.9567 93.3128C11.9567 92.2338 11.5903 91.3991 10.8574 90.8087C10.1245 90.2183 9.0149 89.9231 7.52872 89.9231H3.742V97.2523H7.25388Z" fill="black"/>
<path d="M23.3773 100.428C21.9318 100.428 20.6492 100.102 19.5295 99.451C18.4097 98.7995 17.5445 97.9139 16.9337 96.7942C16.323 95.6744 16.0176 94.4326 16.0176 93.0685C16.0176 91.7249 16.3128 90.4932 16.9032 89.3734C17.5139 88.2537 18.3792 87.3681 19.4989 86.7166C20.6187 86.0651 21.9114 85.7394 23.3773 85.7394C24.8431 85.7394 26.1257 86.0651 27.2251 86.7166C28.3448 87.3681 29.1998 88.2537 29.7903 89.3734C30.401 90.4932 30.7064 91.7249 30.7064 93.0685C30.7064 94.4326 30.401 95.6744 29.7903 96.7942C29.1795 97.9139 28.3142 98.7995 27.1945 99.451C26.0951 100.102 24.8227 100.428 23.3773 100.428ZM23.4689 97.7409C24.6497 97.7409 25.576 97.3031 26.2478 96.4277C26.94 95.5523 27.2861 94.4529 27.2861 93.1296C27.2861 91.8063 26.9197 90.6967 26.1868 89.801C25.4538 88.8848 24.4868 88.4268 23.2856 88.4268C22.1252 88.4268 21.1887 88.8746 20.4761 89.7704C19.7839 90.6662 19.4378 91.7859 19.4378 93.1296C19.4378 94.4326 19.8145 95.5319 20.5678 96.4277C21.321 97.3031 22.2881 97.7409 23.4689 97.7409Z" fill="black"/>
<path d="M33.007 88.7932H30.5334V86.1059H33.007V80.3952L36.3357 79.6623V86.1059H39.5727V88.7932H36.3357V100.123H33.007V88.7932Z" fill="black"/>
<path d="M52.6282 100.337C50.3073 100.337 48.2918 99.8174 46.5817 98.7792C44.8919 97.7409 43.5991 96.3565 42.7033 94.626C41.8076 92.8751 41.3597 90.9512 41.3597 88.8543C41.3597 86.6352 41.8381 84.6502 42.795 82.8994C43.7722 81.1485 45.1362 79.7845 46.8871 78.8073C48.6379 77.8097 50.6229 77.3109 52.842 77.3109C53.8396 77.3109 54.7659 77.4229 55.6209 77.6468C56.4964 77.8504 57.2191 78.0947 57.7891 78.3797C58.3592 78.6444 58.7358 78.8683 58.9191 79.0516L57.4227 82.1054C56.1808 81.006 54.5623 80.4563 52.5671 80.4563C51.1624 80.4563 49.89 80.8024 48.7499 81.4946C47.6098 82.1868 46.714 83.1742 46.0625 84.4568C45.411 85.7394 45.0853 87.2256 45.0853 88.9154C45.0853 90.4626 45.3703 91.8674 45.9404 93.1296C46.5308 94.3918 47.3858 95.3894 48.5056 96.1223C49.6253 96.8552 50.9588 97.2217 52.5061 97.2217C54.2976 97.2217 56.0281 96.7127 57.6975 95.6948L58.7053 98.5959C58.2574 99.0031 57.4329 99.4001 56.2317 99.7869C55.0509 100.153 53.8497 100.337 52.6282 100.337Z" fill="#007AEA"/>
<path d="M67.635 100.428C66.3728 100.428 65.2022 100.133 64.1232 99.5426C63.0645 98.9318 62.2094 98.0768 61.558 96.9774C60.9268 95.8577 60.6113 94.5547 60.6113 93.0685C60.6113 91.6027 60.8861 90.3201 61.4358 89.2207C62.0059 88.1214 62.81 87.2663 63.8483 86.6555C64.8866 86.0448 66.1081 85.7394 67.5129 85.7394C68.3272 85.7394 69.0907 85.8819 69.8032 86.1669C70.5158 86.452 71.1164 86.8082 71.605 87.2358C72.0936 87.6429 72.4193 88.0501 72.5822 88.4573L72.6433 86.1059H75.7887V100.123H72.6738L72.6127 97.6492C72.2666 98.3822 71.6355 99.0336 70.7194 99.6037C69.8032 100.153 68.7751 100.428 67.635 100.428ZM68.1847 97.6798C69.3452 97.6798 70.3224 97.2828 71.1164 96.4888C71.9104 95.6745 72.3074 94.6158 72.3074 93.3128V93.0991C72.3074 92.2236 72.1241 91.4398 71.7577 90.7476C71.3912 90.0554 70.8924 89.5159 70.2613 89.1291C69.6302 88.7423 68.938 88.5489 68.1847 88.5489C66.8818 88.5489 65.874 88.9764 65.1615 89.8315C64.4489 90.6662 64.0926 91.7554 64.0926 93.0991C64.0926 94.4631 64.4387 95.5727 65.1309 96.4277C65.8435 97.2624 66.8614 97.6798 68.1847 97.6798Z" fill="#007AEA"/>
<path d="M79.5215 86.1059H82.8196V88.8543C83.1454 87.9178 83.6747 87.1645 84.4076 86.5945C85.1405 86.0244 85.9752 85.7394 86.9117 85.7394C87.5632 85.7394 88.0111 85.8005 88.2554 85.9226L87.7973 89.2513C87.6141 89.1291 87.2171 89.068 86.6063 89.068C85.6495 89.068 84.7741 89.3734 83.9801 89.9842C83.2064 90.595 82.8196 91.5722 82.8196 92.9158V100.123H79.5215V86.1059Z" fill="#007AEA"/>
<path d="M91.1985 88.7932H88.7249V86.1059H91.1985V80.3952L94.5271 79.6623V86.1059H97.7642V88.7932H94.5271V100.123H91.1985V88.7932Z" fill="#007AEA"/>
</svg>
