<svg width="83" height="49" viewBox="0 0 83 49" fill="none" xmlns="http://www.w3.org/2000/svg">
<path d="M0.869442 0.959999H12.8374C19.5788 0.959999 24.0588 2.09067 26.2774 4.352C28.4961 6.61333 29.6054 9.344 29.6054 12.544C29.6054 14.6773 29.1361 16.704 28.1974 18.624C27.2588 20.5013 25.7654 21.9093 23.7174 22.848C26.7468 23.616 28.9654 24.96 30.3734 26.88C31.8241 28.8 32.5494 31.0613 32.5494 33.664C32.5494 36.3947 32.1228 38.784 31.2694 40.832C30.4161 42.88 28.6454 44.5867 25.9574 45.952C23.2694 47.3173 19.3868 48 14.3094 48H0.869442V0.959999ZM13.9894 20.928C17.0188 20.928 19.1734 20.2027 20.4534 18.752C21.7334 17.2587 22.3734 15.3813 22.3734 13.12C22.3734 9.06666 19.4721 7.04 13.6694 7.04H7.90944V20.928H13.9894ZM15.2694 41.984C19.1521 41.984 21.7548 41.216 23.0774 39.68C24.4428 38.1013 25.1254 36.1173 25.1254 33.728C25.1254 31.4667 24.3574 29.7173 22.8214 28.48C21.2854 27.2427 18.9601 26.624 15.8454 26.624H7.90944V41.984H15.2694ZM49.0599 48.64C46.0306 48.64 43.3426 47.9573 40.9959 46.592C38.6493 45.2267 36.8359 43.3707 35.5559 41.024C34.2759 38.6773 33.6359 36.0747 33.6359 33.216C33.6359 30.4 34.2546 27.8187 35.4919 25.472C36.7719 23.1253 38.5853 21.2693 40.9319 19.904C43.2786 18.5387 45.9879 17.856 49.0599 17.856C52.1319 17.856 54.8199 18.5387 57.1239 19.904C59.4706 21.2693 61.2626 23.1253 62.4999 25.472C63.7799 27.8187 64.4199 30.4 64.4199 33.216C64.4199 36.0747 63.7799 38.6773 62.4999 41.024C61.2199 43.3707 59.4066 45.2267 57.0599 46.592C54.7559 47.9573 52.0893 48.64 49.0599 48.64ZM49.2519 43.008C51.7266 43.008 53.6679 42.0907 55.0759 40.256C56.5266 38.4213 57.2519 36.1173 57.2519 33.344C57.2519 30.5707 56.4839 28.2453 54.9479 26.368C53.4119 24.448 51.3853 23.488 48.8679 23.488C46.4359 23.488 44.4733 24.4267 42.9799 26.304C41.5293 28.1813 40.8039 30.528 40.8039 33.344C40.8039 36.0747 41.5933 38.3787 43.1719 40.256C44.7506 42.0907 46.7773 43.008 49.2519 43.008ZM69.2414 24.256H64.0574V18.624H69.2414V6.656L76.2174 5.12V18.624H83.0014V24.256H76.2174V48H69.2414V24.256Z" fill="white"/>
</svg>
