<svg width="202" height="68" viewBox="0 0 202 68" fill="none" xmlns="http://www.w3.org/2000/svg">
<path fill-rule="evenodd" clip-rule="evenodd" d="M20.9064 16.0001C9.46311 16.0001 0.1879 24.8553 0.1879 35.7797C0.1879 41.6206 2.84121 46.8713 7.05759 50.4922C6.44993 51.7685 5.7116 52.9785 4.85442 54.1028C3.52927 55.8575 1.88178 57.344 0 58.4829C2.48776 58.1175 4.93949 57.539 7.32808 56.7539C9.2522 56.1219 11.1325 55.3637 12.9568 54.4845C12.8928 54.3586 12.8226 54.2307 12.74 54.1007V52.8628C12.7392 52.2275 12.8637 51.5982 13.1065 51.011C13.3492 50.4238 13.7055 49.8902 14.1548 49.4406C14.6041 48.9911 15.1377 48.6345 15.7251 48.3912C16.3124 48.1478 16.942 48.0226 17.5779 48.0226H24.4331C25.4095 48.0238 26.3627 48.3199 27.1675 48.8723C27.9723 49.4246 28.5912 50.2072 28.9427 51.1174C30.004 50.4021 31.0991 49.6841 32.2279 48.9634C33.0641 48.4311 33.8962 47.9153 34.716 47.416C35.0133 47.6223 35.3354 47.9091 35.3809 48.3011C35.4552 48.9201 34.8254 49.5287 32.7255 50.8987C31.819 51.4887 30.607 52.2418 29.1285 53.0547C29.1471 53.196 29.1662 53.3368 29.1853 53.4776C29.2044 53.6184 29.2235 53.7592 29.2421 53.9006C36.533 50.8368 41.6311 43.8818 41.6311 35.788C41.6249 24.8553 32.3497 16.0001 20.9064 16.0001ZM27.4684 47.6409H14.5426C12.2612 47.6409 10.0732 46.7354 8.46001 45.1234C6.8468 43.5115 5.94051 41.3253 5.94051 39.0457V36.3636C5.94051 33.5795 7.04738 30.9095 9.01761 28.9408C10.9878 26.9722 13.66 25.8662 16.4464 25.8662H18.2944C18.1148 25.8662 17.9425 25.7949 17.8155 25.668C17.6885 25.5411 17.6171 25.369 17.6171 25.1895C17.6171 25.01 17.6885 24.8379 17.8155 24.711C17.9425 24.5841 18.1148 24.5128 18.2944 24.5128H20.7391V21.9751C19.7067 21.8286 18.9448 21.0239 19.0233 20.1182C19.1038 19.1815 20.0557 18.4986 21.1645 18.5935C22.2733 18.6884 23.0951 19.5261 23.0228 20.4628C22.9526 21.288 22.1969 21.907 21.2801 21.9874V24.5107H23.727C23.9066 24.5107 24.0788 24.582 24.2059 24.7089C24.3329 24.8358 24.4042 25.0079 24.4042 25.1874C24.4042 25.3669 24.3329 25.539 24.2059 25.6659C24.0788 25.7928 23.9066 25.8641 23.727 25.8641H25.5729C28.3592 25.8641 31.0314 26.9701 33.0017 28.9388C34.9719 30.9074 36.0788 33.5775 36.0788 36.3616V39.0437C36.0793 40.1734 35.8569 41.2921 35.4243 42.3358C34.9917 43.3795 34.3574 44.3277 33.5577 45.1262C32.758 45.9248 31.8085 46.5579 30.7636 46.9894C29.7188 47.4209 28.599 47.6423 27.4684 47.6409ZM29.5503 31.8082H13.1638C12.0726 31.8087 11.0262 32.2421 10.2545 33.0131C9.48291 33.7841 9.04917 34.8297 9.04863 35.9201C9.04863 37.0106 9.48219 38.0565 10.2539 38.8276C11.0257 39.5988 12.0724 40.032 13.1638 40.032H20.0789L20.5642 39.0148C20.7425 38.8319 20.9859 38.7266 21.2414 38.7219C21.3762 38.7188 21.5101 38.7431 21.6351 38.7935C21.76 38.8439 21.8734 38.9192 21.9683 39.0148C22.0963 39.3532 22.2264 39.6936 22.3564 40.032H29.5503C30.6417 40.032 31.6885 39.5988 32.4602 38.8276C33.232 38.0565 33.6655 37.0106 33.6655 35.9201C33.665 34.8297 33.2312 33.7841 32.4596 33.0131C31.688 32.2421 30.6416 31.8087 29.5503 31.8082ZM16.1248 37.8925C15.7357 37.8921 15.3554 37.7768 15.0317 37.5611C14.7068 37.3446 14.4535 37.0367 14.3037 36.6763C14.154 36.3159 14.1146 35.9193 14.1906 35.5365C14.2665 35.1538 14.4543 34.8022 14.7303 34.5261C15.0063 34.2501 15.358 34.062 15.741 33.9857C16.124 33.9095 16.521 33.9484 16.8818 34.0976C17.2426 34.2468 17.551 34.4997 17.768 34.8241C17.985 35.1485 18.1008 35.5299 18.1008 35.9201C18.1008 36.1794 18.0496 36.4363 17.9502 36.6758C17.8507 36.9154 17.705 37.133 17.5212 37.3162C17.3375 37.4994 17.1194 37.6446 16.8794 37.7435C16.6394 37.8424 16.3823 37.893 16.1227 37.8925H16.1248ZM26.3643 37.8925C25.9752 37.8921 25.5949 37.7768 25.2712 37.5611C24.9463 37.3446 24.6929 37.0367 24.5432 36.6763C24.3935 36.3159 24.3541 35.9193 24.43 35.5365C24.506 35.1538 24.6938 34.8022 24.9698 34.5261C25.2458 34.2501 25.5975 34.062 25.9805 33.9857C26.3635 33.9095 26.7605 33.9484 27.1213 34.0976C27.4821 34.2468 27.7905 34.4997 28.0075 34.8241C28.2245 35.1485 28.3403 35.5299 28.3403 35.9201C28.3403 36.1794 28.2891 36.4363 28.1897 36.6758C28.0902 36.9154 27.9444 37.133 27.7607 37.3162C27.577 37.4994 27.3589 37.6446 27.1189 37.7435C26.8789 37.8424 26.6218 37.893 26.3622 37.8925H26.3643ZM17.9034 42.7981C18.5231 43.0323 19.5816 43.4324 21.0004 43.4402C22.4667 43.4482 23.5632 43.0323 24.1915 42.7941C24.5436 42.6606 24.7486 42.5828 24.7894 42.6665C24.936 42.943 23.185 44.8329 21.0128 44.8225C18.8406 44.8122 17.1371 42.9409 17.2837 42.6665C17.3329 42.5826 17.5446 42.6625 17.9034 42.7981Z" fill="#007AEA"/>
<path d="M46.9355 17.3836H56.0146C61.1288 17.3836 64.5274 18.2413 66.2105 19.9568C67.8936 21.6723 68.7352 23.7439 68.7352 26.1714C68.7352 27.7898 68.3792 29.3273 67.6671 30.7838C66.955 32.208 65.8221 33.2762 64.2684 33.9883C66.5666 34.5709 68.2497 35.5905 69.3178 37.047C70.4183 38.5036 70.9686 40.2191 70.9686 42.1935C70.9686 44.265 70.6449 46.0776 69.9975 47.6313C69.3502 49.185 68.0069 50.4797 65.9677 51.5154C63.9286 52.5512 60.9831 53.0691 57.1313 53.0691H46.9355V17.3836ZM56.8886 32.5317C59.1867 32.5317 60.8213 31.9815 61.7923 30.881C62.7633 29.7481 63.2489 28.3239 63.2489 26.6084C63.2489 23.5335 61.0478 21.996 56.6458 21.996H52.2762V32.5317H56.8886ZM57.8596 48.5052C60.8051 48.5052 62.7795 47.9226 63.7829 46.7574C64.8187 45.5598 65.3366 44.0547 65.3366 42.2421C65.3366 40.5266 64.754 39.1995 63.5887 38.2608C62.4235 37.3221 60.6594 36.8528 58.2966 36.8528H52.2762V48.5052H57.8596ZM83.4938 53.5546C81.1957 53.5546 79.1565 53.0367 77.3763 52.001C75.596 50.9652 74.2204 49.5572 73.2494 47.777C72.2783 45.9967 71.7928 44.0223 71.7928 41.8536C71.7928 39.7174 72.2621 37.7591 73.2008 35.9789C74.1719 34.1987 75.5475 32.7907 77.3277 31.7549C79.1079 30.7191 81.1633 30.2012 83.4938 30.2012C85.8243 30.2012 87.8634 30.7191 89.6113 31.7549C91.3915 32.7907 92.751 34.1987 93.6896 35.9789C94.6607 37.7591 95.1462 39.7174 95.1462 41.8536C95.1462 44.0223 94.6607 45.9967 93.6896 47.777C92.7186 49.5572 91.343 50.9652 89.5627 52.001C87.8149 53.0367 85.7919 53.5546 83.4938 53.5546ZM83.6394 49.2821C85.5168 49.2821 86.9895 48.5861 88.0576 47.1943C89.1581 45.8025 89.7084 44.0547 89.7084 41.9507C89.7084 39.8468 89.1258 38.0828 87.9605 36.6586C86.7953 35.2021 85.2578 34.4738 83.3481 34.4738C81.5032 34.4738 80.0142 35.1859 78.8814 36.6101C77.7809 38.0342 77.2306 39.8145 77.2306 41.9507C77.2306 44.0223 77.8294 45.7701 79.027 47.1943C80.2246 48.5861 81.7621 49.2821 83.6394 49.2821ZM98.8039 35.0564H94.8712V30.7838H98.8039V21.7047L104.096 20.5394V30.7838H109.243V35.0564H104.096V53.0691H98.8039V35.0564Z" fill="black"/>
<path d="M128.634 53.409C124.944 53.409 121.74 52.5836 119.021 50.9328C116.334 49.2821 114.279 47.081 112.855 44.3298C111.431 41.5461 110.719 38.4874 110.719 35.1535C110.719 31.6254 111.479 28.4696 113.001 25.6859C114.554 22.9023 116.723 20.7336 119.506 19.18C122.29 17.594 125.446 16.801 128.974 16.801C130.56 16.801 132.033 16.979 133.392 17.335C134.784 17.6587 135.933 18.0471 136.839 18.5003C137.746 18.921 138.345 19.2771 138.636 19.5684L136.257 24.4236C134.282 22.6757 131.709 21.8018 128.537 21.8018C126.304 21.8018 124.281 22.352 122.468 23.4525C120.656 24.553 119.231 26.1229 118.196 28.1621C117.16 30.2012 116.642 32.5641 116.642 35.2506C116.642 37.7106 117.095 39.9439 118.001 41.9507C118.94 43.9576 120.299 45.5436 122.08 46.7088C123.86 47.8741 125.98 48.4567 128.44 48.4567C131.288 48.4567 134.04 47.6475 136.694 46.0291L138.296 50.6415C137.584 51.2889 136.273 51.92 134.363 52.535C132.486 53.1176 130.576 53.409 128.634 53.409ZM152.493 53.5546C150.486 53.5546 148.625 53.0853 146.91 52.1466C145.227 51.1756 143.867 49.8161 142.831 48.0683C141.828 46.288 141.326 44.2165 141.326 41.8536C141.326 39.5232 141.763 37.484 142.637 35.7361C143.543 33.9883 144.822 32.6288 146.473 31.6578C148.124 30.6867 150.066 30.2012 152.299 30.2012C153.594 30.2012 154.807 30.4278 155.94 30.881C157.073 31.3341 158.028 31.9005 158.805 32.5803C159.582 33.2276 160.1 33.875 160.359 34.5223L160.456 30.7838H165.456V53.0691H160.504L160.407 49.1364C159.857 50.3016 158.853 51.3374 157.397 52.2437C155.94 53.1176 154.306 53.5546 152.493 53.5546ZM153.367 49.185C155.212 49.185 156.766 48.5538 158.028 47.2914C159.29 45.9967 159.922 44.3136 159.922 42.2421V41.9022C159.922 40.5104 159.63 39.2642 159.048 38.1637C158.465 37.0632 157.672 36.2055 156.669 35.5905C155.665 34.9755 154.565 34.668 153.367 34.668C151.296 34.668 149.693 35.3477 148.56 36.7072C147.428 38.0342 146.861 39.7659 146.861 41.9022C146.861 44.0708 147.411 45.8349 148.512 47.1943C149.645 48.5214 151.263 49.185 153.367 49.185ZM171.391 30.7838H176.635V35.1535C177.153 33.6646 177.994 32.467 179.159 31.5607C180.325 30.6544 181.652 30.2012 183.141 30.2012C184.176 30.2012 184.889 30.2983 185.277 30.4925L184.549 35.7847C184.257 35.5905 183.626 35.4934 182.655 35.4934C181.134 35.4934 179.742 35.9789 178.48 36.9499C177.25 37.921 176.635 39.4746 176.635 41.6109V53.0691H171.391V30.7838ZM189.956 35.0564H186.023V30.7838H189.956V21.7047L195.248 20.5394V30.7838H200.395V35.0564H195.248V53.0691H189.956V35.0564Z" fill="#007AEA"/>
</svg>
