<svg width="119" height="49" viewBox="0 0 119 49" fill="none" xmlns="http://www.w3.org/2000/svg">
<path d="M24.368 48.448C19.504 48.448 15.28 47.36 11.696 45.184C8.15467 43.008 5.44533 40.1067 3.568 36.48C1.69067 32.8107 0.752 28.7787 0.752 24.384C0.752 19.7333 1.75467 15.5733 3.76 11.904C5.808 8.23466 8.66667 5.376 12.336 3.328C16.0053 1.23733 20.1653 0.191998 24.816 0.191998C26.9067 0.191998 28.848 0.426664 30.64 0.895996C32.4747 1.32266 33.9893 1.83467 35.184 2.432C36.3787 2.98666 37.168 3.456 37.552 3.84L34.416 10.24C31.8133 7.936 28.4213 6.784 24.24 6.784C21.296 6.784 18.6293 7.50933 16.24 8.96C13.8507 10.4107 11.9733 12.48 10.608 15.168C9.24267 17.856 8.56 20.9707 8.56 24.512C8.56 27.7547 9.15733 30.6987 10.352 33.344C11.5893 35.9893 13.3813 38.08 15.728 39.616C18.0747 41.152 20.8693 41.92 24.112 41.92C27.8667 41.92 31.4933 40.8533 34.992 38.72L37.104 44.8C36.1653 45.6533 34.4373 46.4853 31.92 47.296C29.4453 48.064 26.928 48.448 24.368 48.448ZM55.8185 48.64C53.1732 48.64 50.7198 48.0213 48.4585 46.784C46.2398 45.504 44.4478 43.712 43.0825 41.408C41.7598 39.0613 41.0985 36.3307 41.0985 33.216C41.0985 30.144 41.6745 27.456 42.8265 25.152C44.0212 22.848 45.7065 21.056 47.8825 19.776C50.0585 18.496 52.6185 17.856 55.5625 17.856C57.2692 17.856 58.8692 18.1547 60.3625 18.752C61.8558 19.3493 63.1145 20.096 64.1385 20.992C65.1625 21.8453 65.8452 22.6987 66.1865 23.552L66.3145 18.624H72.9065V48H66.3785L66.2505 42.816C65.5252 44.352 64.2025 45.7173 62.2825 46.912C60.3625 48.064 58.2078 48.64 55.8185 48.64ZM56.9705 42.88C59.4025 42.88 61.4505 42.048 63.1145 40.384C64.7785 38.6773 65.6105 36.4587 65.6105 33.728V33.28C65.6105 31.4453 65.2265 29.8027 64.4585 28.352C63.6905 26.9013 62.6452 25.7707 61.3225 24.96C59.9998 24.1493 58.5492 23.744 56.9705 23.744C54.2398 23.744 52.1278 24.64 50.6345 26.432C49.1412 28.1813 48.3945 30.464 48.3945 33.28C48.3945 36.1387 49.1198 38.464 50.5705 40.256C52.0638 42.0053 54.1972 42.88 56.9705 42.88ZM80.7295 18.624H87.6415V24.384C88.3242 22.4213 89.4335 20.8427 90.9695 19.648C92.5055 18.4533 94.2548 17.856 96.2175 17.856C97.5828 17.856 98.5215 17.984 99.0335 18.24L98.0735 25.216C97.6895 24.96 96.8575 24.832 95.5775 24.832C93.5722 24.832 91.7375 25.472 90.0735 26.752C88.4522 28.032 87.6415 30.08 87.6415 32.896V48H80.7295V18.624ZM105.202 24.256H100.018V18.624H105.202V6.656L112.178 5.12V18.624H118.962V24.256H112.178V48H105.202V24.256Z" fill="#007AEA"/>
</svg>
