<svg width="50" height="56" viewBox="0 0 50 56" fill="none" xmlns="http://www.w3.org/2000/svg">
<path fill-rule="evenodd" clip-rule="evenodd" d="M25.1091 0C11.3654 0 0.225673 11.6727 0.225673 26.0731C0.225673 33.7724 3.41236 40.6939 8.47634 45.4669C7.74654 47.1492 6.85978 48.7442 5.83028 50.2262C4.23874 52.5393 2.26006 54.4988 0 56C2.98787 55.5183 5.93245 54.7558 8.80121 53.7209C11.1121 52.8878 13.3704 51.8884 15.5615 50.7293C15.4846 50.5634 15.4003 50.3948 15.3011 50.2235V48.5917C15.3001 47.7542 15.4497 46.9248 15.7412 46.1507C16.0328 45.3767 16.4606 44.6732 17.0003 44.0807C17.5399 43.4881 18.1808 43.018 18.8862 42.6973C19.5917 42.3765 20.3478 42.2114 21.1115 42.2114H29.3448C30.5175 42.213 31.6622 42.6034 32.6289 43.3315C33.5955 44.0595 34.3387 45.0912 34.7609 46.2909C36.0356 45.3481 37.3508 44.4017 38.7065 43.4516C38.9619 43.2732 39.2357 43.0593 39.5171 42.8395L39.5172 42.8395C40.3423 42.195 41.2322 41.5 41.9117 41.5C42.2688 41.772 42.4388 42.0619 42.4933 42.5786C42.5826 43.3945 41.8262 44.1968 39.3041 46.0026C38.2155 46.7804 36.7598 47.7731 34.9841 48.8446C35.0063 49.0301 35.0292 49.2148 35.052 49.3996L35.0524 49.4025C35.0753 49.588 35.0982 49.7735 35.1205 49.9597C43.8771 45.921 50 36.7531 50 26.084C49.9926 11.6727 38.8528 0 25.1091 0ZM32.9903 41.7083H17.466C14.726 41.7083 12.0982 40.5146 10.1607 38.3898C8.22319 36.265 7.13471 33.3832 7.13471 30.3783V26.8428C7.13471 23.1729 8.46408 19.6532 10.8304 17.0582C13.1967 14.4632 16.4061 13.0053 19.7525 13.0053H21.972C21.7563 13.0053 21.5494 12.9113 21.3969 12.744C21.2443 12.5767 21.1586 12.3498 21.1586 12.1132C21.1586 11.8767 21.2443 11.6498 21.3969 11.4825C21.5494 11.3152 21.7563 11.2212 21.972 11.2212H24.9082V7.87606C23.6683 7.68297 22.7532 6.62231 22.8474 5.42839C22.9442 4.19367 24.0874 3.29347 25.4191 3.41857C26.7508 3.54368 27.7378 4.64786 27.651 5.88257C27.5667 6.97043 26.6591 7.78631 25.558 7.89238V11.2185H28.4967C28.7124 11.2185 28.9193 11.3125 29.0718 11.4798C29.2244 11.6471 29.3101 11.874 29.3101 12.1105C29.3101 12.3471 29.2244 12.574 29.0718 12.7413C28.9193 12.9086 28.7124 13.0026 28.4967 13.0026H30.7137C34.0602 13.0026 37.2696 14.4604 39.6359 17.0555C42.0021 19.6505 43.3315 23.1701 43.3315 26.8401V30.3756C43.3322 31.8647 43.0651 33.3394 42.5455 34.7152C42.026 36.091 41.2641 37.3409 40.3036 38.3935C39.3431 39.4461 38.2028 40.2807 36.9479 40.8495C35.693 41.4183 34.3481 41.7101 32.9903 41.7083ZM35.4902 20.8379H15.8097C14.499 20.8386 13.2423 21.4099 12.3155 22.4262C11.3888 23.4426 10.8678 24.8208 10.8672 26.2581C10.8672 27.6957 11.3879 29.0743 12.3148 30.0908C13.2417 31.1073 14.4988 31.6784 15.8097 31.6784H24.1149L24.6977 30.3376C24.9118 30.0964 25.2041 29.9576 25.5111 29.9514C25.6729 29.9473 25.8337 29.9794 25.9838 30.0458C26.1339 30.1122 26.2701 30.2115 26.384 30.3376C26.5378 30.7836 26.694 31.2323 26.8502 31.6784H35.4902C36.8011 31.6784 38.0582 31.1073 38.9851 30.0908C39.912 29.0743 40.4327 27.6957 40.4327 26.2581C40.432 24.8208 39.9111 23.4426 38.9844 22.4262C38.0576 21.4099 36.8009 20.8386 35.4902 20.8379ZM19.3658 28.8581C18.8986 28.8576 18.4418 28.7056 18.053 28.4212C17.6628 28.1359 17.3585 27.73 17.1787 27.255C16.9989 26.7799 16.9516 26.2571 17.0428 25.7526C17.134 25.248 17.3596 24.7845 17.691 24.4206C18.0225 24.0567 18.4449 23.8088 18.9049 23.7083C19.3649 23.6078 19.8417 23.6591 20.275 23.8558C20.7084 24.0525 21.0788 24.3858 21.3394 24.8134C21.6 25.241 21.7391 25.7438 21.7391 26.2581C21.7391 26.6 21.6776 26.9385 21.5582 27.2543C21.4387 27.5701 21.2637 27.857 21.043 28.0985C20.8223 28.34 20.5604 28.5314 20.2722 28.6617C19.9839 28.7921 19.6751 28.8588 19.3634 28.8581H19.3658ZM31.6637 28.8581C31.1965 28.8576 30.7397 28.7056 30.3509 28.4212C29.9607 28.1359 29.6564 27.73 29.4766 27.255C29.2968 26.7799 29.2495 26.2571 29.3407 25.7526C29.4319 25.248 29.6575 24.7845 29.9889 24.4206C30.3204 24.0567 30.7428 23.8088 31.2028 23.7083C31.6627 23.6078 32.1396 23.6591 32.5729 23.8558C33.0063 24.0525 33.3767 24.3858 33.6373 24.8134C33.8979 25.241 34.037 25.7438 34.037 26.2581C34.037 26.6 33.9755 26.9385 33.8561 27.2543C33.7366 27.5701 33.5615 27.857 33.3409 28.0985C33.1202 28.34 32.8583 28.5314 32.57 28.6617C32.2818 28.7921 31.973 28.8588 31.6613 28.8581H31.6637ZM21.5029 35.3247C22.2471 35.6334 23.5185 36.1607 25.2225 36.171C26.9836 36.1815 28.3005 35.6334 29.0551 35.3193C29.4779 35.1433 29.7241 35.0408 29.7731 35.1512C29.9492 35.5156 27.8462 38.0068 25.2373 37.9932C22.6285 37.9796 20.5825 35.5129 20.7586 35.1512C20.8177 35.0405 21.0719 35.1459 21.5029 35.3247Z" fill="#007AEA"/>
</svg>
