<svg width="83" height="49" viewBox="0 0 83 49" fill="none" xmlns="http://www.w3.org/2000/svg">
<path d="M-0.0079999 0.959999H11.96C18.7013 0.959999 23.1813 2.09067 25.4 4.352C27.6187 6.61333 28.728 9.344 28.728 12.544C28.728 14.6773 28.2587 16.704 27.32 18.624C26.3813 20.5013 24.888 21.9093 22.84 22.848C25.8693 23.616 28.088 24.96 29.496 26.88C30.9467 28.8 31.672 31.0613 31.672 33.664C31.672 36.3947 31.2453 38.784 30.392 40.832C29.5387 42.88 27.768 44.5867 25.08 45.952C22.392 47.3173 18.5093 48 13.432 48H-0.0079999V0.959999ZM13.112 20.928C16.1413 20.928 18.296 20.2027 19.576 18.752C20.856 17.2587 21.496 15.3813 21.496 13.12C21.496 9.06666 18.5947 7.04 12.792 7.04H7.032V20.928H13.112ZM14.392 41.984C18.2747 41.984 20.8773 41.216 22.2 39.68C23.5653 38.1013 24.248 36.1173 24.248 33.728C24.248 31.4667 23.48 29.7173 21.944 28.48C20.408 27.2427 18.0827 26.624 14.968 26.624H7.032V41.984H14.392ZM48.1825 48.64C45.1532 48.64 42.4652 47.9573 40.1185 46.592C37.7718 45.2267 35.9585 43.3707 34.6785 41.024C33.3985 38.6773 32.7585 36.0747 32.7585 33.216C32.7585 30.4 33.3772 27.8187 34.6145 25.472C35.8945 23.1253 37.7078 21.2693 40.0545 19.904C42.4012 18.5387 45.1105 17.856 48.1825 17.856C51.2545 17.856 53.9425 18.5387 56.2465 19.904C58.5932 21.2693 60.3852 23.1253 61.6225 25.472C62.9025 27.8187 63.5425 30.4 63.5425 33.216C63.5425 36.0747 62.9025 38.6773 61.6225 41.024C60.3425 43.3707 58.5292 45.2267 56.1825 46.592C53.8785 47.9573 51.2118 48.64 48.1825 48.64ZM48.3745 43.008C50.8492 43.008 52.7905 42.0907 54.1985 40.256C55.6492 38.4213 56.3745 36.1173 56.3745 33.344C56.3745 30.5707 55.6065 28.2453 54.0705 26.368C52.5345 24.448 50.5078 23.488 47.9905 23.488C45.5585 23.488 43.5958 24.4267 42.1025 26.304C40.6518 28.1813 39.9265 30.528 39.9265 33.344C39.9265 36.0747 40.7158 38.3787 42.2945 40.256C43.8732 42.0907 45.8998 43.008 48.3745 43.008ZM68.364 24.256H63.18V18.624H68.364V6.656L75.34 5.12V18.624H82.124V24.256H75.34V48H68.364V24.256Z" fill="black"/>
</svg>
